<?xml version="1.0" encoding="utf-8"?>
<!-- Generator: Adobe Illustrator 27.5.0, SVG Export Plug-In . SVG Version: 6.00 Build 0)  -->
<svg version="1.1" xmlns="http://www.w3.org/2000/svg" xmlns:xlink="http://www.w3.org/1999/xlink" x="0px" y="0px"
	 viewBox="0 0 500 500" style="enable-background:new 0 0 500 500;" xml:space="preserve">
<g id="Background_complete">
	<g>
		<g>
			<g>
				<g>
					<path style="fill:#F0F0F0;" d="M444.708,349.145H263.962c-3.232,0-5.862-2.63-5.862-5.862V80.009
						c0-3.232,2.63-5.862,5.862-5.862h180.746c3.232,0,5.862,2.629,5.862,5.862v263.273
						C450.57,346.515,447.94,349.145,444.708,349.145z M263.962,74.397c-3.095,0-5.612,2.518-5.612,5.612v263.273
						c0,3.095,2.518,5.612,5.612,5.612h180.746c3.095,0,5.612-2.518,5.612-5.612V80.009c0-3.094-2.518-5.612-5.612-5.612H263.962z"
						/>
				</g>
			</g>
			<g>
				<g>
					<path style="fill:#F0F0F0;" d="M236.28,349.145H55.534c-3.232,0-5.862-2.63-5.862-5.862V80.009
						c0-3.232,2.629-5.862,5.862-5.862H236.28c3.232,0,5.862,2.629,5.862,5.862v263.273
						C242.143,346.515,239.513,349.145,236.28,349.145z M55.534,74.397c-3.094,0-5.612,2.518-5.612,5.612v263.273
						c0,3.095,2.518,5.612,5.612,5.612H236.28c3.095,0,5.612-2.518,5.612-5.612V80.009c0-3.094-2.518-5.612-5.612-5.612H55.534z"/>
				</g>
			</g>
		</g>
		<g>
			<g>
				<rect x="0" y="410.214" style="fill:#F0F0F0;" width="500" height="0.25"/>
			</g>
		</g>
	</g>
	<g>
		<g>
			<path style="fill:#F0F0F0;" d="M103.087,115.75h31.571c0.828,0,1.5-0.672,1.5-1.5v-7.127c0-0.828-0.672-1.5-1.5-1.5h-31.571
				c-0.828,0-1.5,0.672-1.5,1.5v7.127C101.587,115.078,102.258,115.75,103.087,115.75z"/>
		</g>
		<path style="fill:#F0F0F0;" d="M84.23,128.665h31.571c0.828,0,1.5-0.672,1.5-1.5v-7.127c0-0.828-0.672-1.5-1.5-1.5H84.23
			c-0.828,0-1.5,0.672-1.5,1.5v7.127C82.73,127.994,83.401,128.665,84.23,128.665z"/>
	</g>
	<g>
		<path style="fill:#F0F0F0;" d="M267.528,271.285h-31.571c-0.828,0-1.5-0.672-1.5-1.5v-7.127c0-0.828,0.672-1.5,1.5-1.5h31.571
			c0.828,0,1.5,0.672,1.5,1.5v7.127C269.028,270.614,268.356,271.285,267.528,271.285z"/>
		<path style="fill:#F0F0F0;" d="M286.385,284.201h-31.571c-0.828,0-1.5-0.672-1.5-1.5v-7.127c0-0.828,0.672-1.5,1.5-1.5h31.571
			c0.828,0,1.5,0.672,1.5,1.5v7.127C287.885,283.529,287.213,284.201,286.385,284.201z"/>
	</g>
	<g>
		<g>
			<path style="fill:#F0F0F0;" d="M369.319,117.144h-31.571c-0.829,0-1.5-0.672-1.5-1.5v-7.127c0-0.828,0.671-1.5,1.5-1.5h31.571
				c0.828,0,1.5,0.672,1.5,1.5v7.127C370.819,116.473,370.147,117.144,369.319,117.144z"/>
			<path style="fill:#F0F0F0;" d="M407.033,117.144h-31.571c-0.828,0-1.5-0.672-1.5-1.5v-7.127c0-0.828,0.672-1.5,1.5-1.5h31.571
				c0.828,0,1.5,0.672,1.5,1.5v7.127C408.533,116.473,407.861,117.144,407.033,117.144z"/>
		</g>
		<path style="fill:#F0F0F0;" d="M388.176,130.06h-31.571c-0.828,0-1.5-0.672-1.5-1.5v-7.127c0-0.828,0.672-1.5,1.5-1.5h31.571
			c0.828,0,1.5,0.672,1.5,1.5v7.127C389.676,129.388,389.004,130.06,388.176,130.06z"/>
	</g>
</g>
<g id="Background_simple" style="display:none;">
	<g style="display:inline;">
		<path style="fill:#407BFF;" d="M181.513,312.651c54.922,21.826,115.224,21.284,169.246-2.682
			c28.9-12.821,58.707-34.184,80.105-69.721c57.061-94.767-27.015-158.165-109.647-130.488
			c-82.632,27.676-95.766,46.734-158.155-6.36C99.606,49.396,30.225,123.446,70.234,208.631
			C91.102,253.059,132.607,293.216,181.513,312.651z"/>
		<path style="opacity:0.9;fill:#FFFFFF;" d="M181.513,312.651c54.922,21.826,115.224,21.284,169.246-2.682
			c28.9-12.821,58.707-34.184,80.105-69.721c57.061-94.767-27.015-158.165-109.647-130.488
			c-82.632,27.676-95.766,46.734-158.155-6.36C99.606,49.396,30.225,123.446,70.234,208.631
			C91.102,253.059,132.607,293.216,181.513,312.651z"/>
	</g>
</g>
<g id="Shadow">
	<ellipse style="fill:#F0F0F0;" cx="258.5" cy="433.595" rx="206.833" ry="6.072"/>
</g>
<g id="Plant">
	<g>
		<g>
			<path style="fill:#407BFF;" d="M274.754,430.54l5.659-30.651h-38.486l5.659,30.651c0.358,1.941,2.051,3.349,4.024,3.349h19.119
				C272.703,433.889,274.396,432.481,274.754,430.54z"/>
			<path style="opacity:0.4;fill:#FFFFFF;" d="M274.754,430.54l5.659-30.651h-38.486l5.659,30.651
				c0.358,1.941,2.051,3.349,4.024,3.349h19.119C272.703,433.889,274.396,432.481,274.754,430.54z"/>
			<path style="fill:#407BFF;" d="M276.335,372.149c-5.066-1.335-12.808,9.182-15.159,19.435v-14.939
				c1.182-2.096,3.435-5.249,7.526-8.581c6.362-5.182,12.218-11.831,7.143-13.168c-4.757-1.253-11.87,7.94-14.669,17.553v-19.184
				c0.82-1.273,2.163-2.942,4.309-4.69c4.01-3.265,7.7-7.456,4.502-8.299c-2.776-0.731-6.826,4.183-8.811,9.725v-6.218
				c0.328-1.923,0.792-4.67,2.064-7.479c2.949-6.507,4.542-13.212,0.654-12.713c-3.892,0.499-6.415,12.089-4.287,20.987v3.2
				c-1.437-6.511-6.37-13.255-9.589-12.407c-3.199,0.842,0.492,5.033,4.501,8.299c3.052,2.486,4.48,4.812,5.087,6.064v15.113
				c-2.306-10.305-10.102-20.941-15.195-19.599c-5.076,1.337,0.781,7.987,7.143,13.168c4.808,3.915,7.078,7.584,8.053,9.58v18.122
				c-2.464-10.116-10.061-20.325-15.058-19.009c-5.076,1.337-0.723,6.196,6.427,12.074c4.859,3.995,7.461,8.21,8.631,10.502v10.205
				h1.569v-5.065c0.995-2.012,3.267-5.638,8.016-9.506C275.554,380.135,281.411,373.486,276.335,372.149z"/>
			<path style="opacity:0.2;fill:#FFFFFF;" d="M276.335,372.149c-5.066-1.335-12.808,9.182-15.159,19.435v-14.939
				c1.182-2.096,3.435-5.249,7.526-8.581c6.362-5.182,12.218-11.831,7.143-13.168c-4.757-1.253-11.87,7.94-14.669,17.553v-19.184
				c0.82-1.273,2.163-2.942,4.309-4.69c4.01-3.265,7.7-7.456,4.502-8.299c-2.776-0.731-6.826,4.183-8.811,9.725v-6.218
				c0.328-1.923,0.792-4.67,2.064-7.479c2.949-6.507,4.542-13.212,0.654-12.713c-3.892,0.499-6.415,12.089-4.287,20.987v3.2
				c-1.437-6.511-6.37-13.255-9.589-12.407c-3.199,0.842,0.492,5.033,4.501,8.299c3.052,2.486,4.48,4.812,5.087,6.064v15.113
				c-2.306-10.305-10.102-20.941-15.195-19.599c-5.076,1.337,0.781,7.987,7.143,13.168c4.808,3.915,7.078,7.584,8.053,9.58v18.122
				c-2.464-10.116-10.061-20.325-15.058-19.009c-5.076,1.337-0.723,6.196,6.427,12.074c4.859,3.995,7.461,8.21,8.631,10.502v10.205
				h1.569v-5.065c0.995-2.012,3.267-5.638,8.016-9.506C275.554,380.135,281.411,373.486,276.335,372.149z"/>
			<rect x="239.558" y="398.445" style="fill:#407BFF;" width="43.225" height="4.208"/>
			<rect x="239.558" y="398.445" style="opacity:0.6;fill:#FFFFFF;" width="43.225" height="4.208"/>
		</g>
	</g>
</g>
<g id="Doors">
	<g>
		<rect x="98.312" y="142.459" style="fill:#407BFF;" width="130.618" height="267.755"/>
		<rect x="98.312" y="142.459" style="opacity:0.2;" width="130.618" height="267.755"/>
		
			<rect x="33.566" y="214.85" transform="matrix(-1.836970e-16 1 -1 -1.836970e-16 439.9573 112.7156)" style="fill:#407BFF;" width="260.109" height="122.972"/>
		<rect x="102.138" y="146.282" style="opacity:0.9;fill:#FFFFFF;" width="122.97" height="263.93"/>
		<rect x="125.988" y="146.282" style="opacity:0.1;" width="99.12" height="263.93"/>
		<g>
			<polygon style="fill:#407BFF;" points="56.384,129.012 56.384,410.214 98.312,410.214 98.312,142.459 			"/>
			<polygon style="opacity:0.2;fill:#FFFFFF;" points="56.384,129.012 56.384,410.214 98.312,410.214 98.312,142.459 			"/>
			<path style="fill:#407BFF;" d="M67.351,273.33c0,3.761-1.416,6.81-3.163,6.81c-1.747,0-3.164-3.049-3.164-6.81
				c0-3.761,1.416-6.81,3.164-6.81C65.934,266.521,67.351,269.569,67.351,273.33z"/>
			<rect x="52.588" y="129.012" style="fill:#407BFF;" width="3.796" height="281.202"/>
			<rect x="52.588" y="129.012" style="opacity:0.2;" width="3.796" height="281.202"/>
		</g>
	</g>
	<g>
		<rect x="293.937" y="142.459" style="fill:#407BFF;" width="130.618" height="267.755"/>
		<rect x="293.937" y="142.459" style="opacity:0.2;" width="130.618" height="267.755"/>
		
			<rect x="227.279" y="216.762" transform="matrix(-1.836970e-16 1 -1 -1.836970e-16 637.4937 -80.9975)" style="fill:#407BFF;" width="263.932" height="122.972"/>
		
			<rect x="227.279" y="216.762" transform="matrix(-1.836970e-16 1 -1 -1.836970e-16 637.4937 -80.9975)" style="opacity:0.2;fill:#FFFFFF;" width="263.932" height="122.972"/>
		<path style="fill:#407BFF;" d="M319.348,273.465c0,3.761-3.049,6.81-6.81,6.81c-3.761,0-6.81-3.049-6.81-6.81
			c0-3.761,3.049-6.81,6.81-6.81C316.299,266.656,319.348,269.704,319.348,273.465z"/>
		<path style="opacity:0.2;" d="M319.348,273.465c0,3.761-3.049,6.81-6.81,6.81c-3.761,0-6.81-3.049-6.81-6.81
			c0-3.761,3.049-6.81,6.81-6.81C316.299,266.656,319.348,269.704,319.348,273.465z"/>
		<g>
			<path style="fill:#407BFF;" d="M362.109,225.382c-19.136,0-34.705,15.569-34.705,34.705c0,19.136,15.569,34.705,34.705,34.705
				s34.705-15.569,34.705-34.705C396.814,240.951,381.245,225.382,362.109,225.382z M362.109,237.115
				c12.671,0,22.972,10.301,22.972,22.972c0,4.2-1.138,8.154-3.133,11.545l-31.385-31.385
				C353.955,238.253,357.897,237.115,362.109,237.115z M362.109,283.059c-12.659,0-22.972-10.301-22.972-22.972
				c0-4.2,1.138-8.154,3.133-11.545l31.385,31.385C370.263,281.921,366.309,283.059,362.109,283.059z"/>
			<g style="opacity:0.2;">
				<path d="M362.109,225.382c-19.136,0-34.705,15.569-34.705,34.705c0,19.136,15.569,34.705,34.705,34.705
					s34.705-15.569,34.705-34.705C396.814,240.951,381.245,225.382,362.109,225.382z M362.109,237.115
					c12.671,0,22.972,10.301,22.972,22.972c0,4.2-1.138,8.154-3.133,11.545l-31.385-31.385
					C353.955,238.253,357.897,237.115,362.109,237.115z M362.109,283.059c-12.659,0-22.972-10.301-22.972-22.972
					c0-4.2,1.138-8.154,3.133-11.545l31.385,31.385C370.263,281.921,366.309,283.059,362.109,283.059z"/>
			</g>
		</g>
		<g>
			<g>
				<polygon style="fill:#407BFF;" points="436.964,207.189 282.783,167.289 282.783,194.223 436.964,234.122 				"/>
			</g>
			<g style="opacity:0.4;">
				<polygon style="fill:#FFFFFF;" points="436.964,207.192 436.964,234.122 282.784,194.222 282.784,167.292 				"/>
			</g>
			<circle style="fill:#263238;" cx="287.242" cy="172.841" r="1.144"/>
			<circle style="fill:#263238;" cx="287.242" cy="189.812" r="1.144"/>
			<circle style="fill:#263238;" cx="432.848" cy="211.055" r="1.144"/>
			<circle style="fill:#263238;" cx="432.848" cy="228.026" r="1.144"/>
			
				<line style="opacity:0.2;fill:none;stroke:#000000;stroke-linecap:round;stroke-linejoin:round;stroke-miterlimit:10;" x1="300.397" y1="176.989" x2="404.14" y2="203.835"/>
			
				<line style="opacity:0.2;fill:none;stroke:#000000;stroke-linecap:round;stroke-linejoin:round;stroke-miterlimit:10;" x1="295.555" y1="190.412" x2="349.164" y2="204.285"/>
			<g style="opacity:0.2;">
				<path d="M436.964,216.442v1.03l-24.68-6.39c-0.27-0.07-0.43-0.34-0.36-0.61c0.07-0.27,0.33-0.43,0.61-0.36L436.964,216.442z"/>
			</g>
			
				<line style="opacity:0.2;fill:none;stroke:#000000;stroke-linecap:round;stroke-linejoin:round;stroke-miterlimit:10;" x1="357.239" y1="199.792" x2="411.117" y2="213.735"/>
			<g style="opacity:0.2;">
				<path d="M346.288,197.284c-0.041,0-0.083-0.005-0.125-0.016l-25.508-6.601c-0.268-0.069-0.429-0.342-0.359-0.609
					c0.069-0.267,0.34-0.429,0.609-0.358l25.508,6.601c0.267,0.069,0.429,0.342,0.359,0.609
					C346.713,197.134,346.51,197.284,346.288,197.284z"/>
			</g>
			<g style="opacity:0.2;">
				<path d="M424.661,225.074c-0.041,0-0.083-0.005-0.125-0.016l-25.508-6.601c-0.267-0.069-0.429-0.342-0.359-0.609
					c0.069-0.267,0.34-0.429,0.609-0.358l25.508,6.601c0.267,0.069,0.429,0.342,0.359,0.609
					C425.087,224.924,424.884,225.074,424.661,225.074z"/>
			</g>
		</g>
		<g>
			<g>
				<polygon style="fill:#407BFF;" points="436.964,316.773 282.783,356.672 282.783,329.739 436.964,289.839 				"/>
			</g>
			<g style="opacity:0.4;">
				<polygon style="fill:#FFFFFF;" points="436.964,316.77 436.964,289.84 282.784,329.74 282.784,356.669 				"/>
			</g>
			<circle style="fill:#263238;" cx="287.242" cy="351.12" r="1.144"/>
			<circle style="fill:#263238;" cx="287.242" cy="334.149" r="1.144"/>
			<circle style="fill:#263238;" cx="432.848" cy="312.907" r="1.144"/>
			<circle style="fill:#263238;" cx="432.848" cy="295.936" r="1.144"/>
			
				<line style="opacity:0.2;fill:none;stroke:#000000;stroke-linecap:round;stroke-linejoin:round;stroke-miterlimit:10;" x1="300.397" y1="346.973" x2="404.14" y2="320.126"/>
			
				<line style="opacity:0.2;fill:none;stroke:#000000;stroke-linecap:round;stroke-linejoin:round;stroke-miterlimit:10;" x1="295.555" y1="333.55" x2="349.164" y2="319.676"/>
			<g style="opacity:0.2;">
				<path d="M436.964,307.52v-1.03l-24.68,6.39c-0.27,0.07-0.43,0.34-0.36,0.61c0.07,0.27,0.33,0.43,0.61,0.36L436.964,307.52z"/>
			</g>
			
				<line style="opacity:0.2;fill:none;stroke:#000000;stroke-linecap:round;stroke-linejoin:round;stroke-miterlimit:10;" x1="357.239" y1="324.169" x2="411.117" y2="310.227"/>
			<g style="opacity:0.2;">
				<path d="M346.288,326.678c-0.041,0-0.083,0.005-0.125,0.016l-25.508,6.601c-0.268,0.069-0.429,0.342-0.359,0.609
					c0.069,0.267,0.34,0.429,0.609,0.358l25.508-6.601c0.267-0.069,0.429-0.342,0.359-0.609
					C346.713,326.827,346.51,326.678,346.288,326.678z"/>
			</g>
			<g style="opacity:0.2;">
				<path d="M424.661,298.888c-0.041,0-0.083,0.005-0.125,0.016l-25.508,6.601c-0.267,0.069-0.429,0.342-0.359,0.609
					c0.069,0.267,0.34,0.429,0.609,0.358l25.508-6.601c0.267-0.069,0.429-0.342,0.359-0.609
					C425.087,299.037,424.884,298.888,424.661,298.888z"/>
			</g>
		</g>
	</g>
</g>
<g id="Character_2">
	<g>
		<path style="fill:#FFC3BD;" d="M428.507,201.592c2.777,3.971,5.362,7.978,7.801,12.161c1.224,2.086,2.407,4.204,3.556,6.387
			c0.566,1.099,1.125,2.208,1.67,3.363c0.547,1.168,1.079,2.337,1.58,3.771c0.131,0.415,0.25,0.724,0.38,1.243l0.092,0.359
			l0.048,0.2l0.072,0.378c0.094,0.516,0.106,0.99,0.092,1.444c-0.11,1.802-0.678,2.882-1.155,3.772
			c-1.005,1.708-2.041,2.732-3.064,3.719c-2.044,1.905-4.094,3.373-6.188,4.751c-4.184,2.737-8.436,4.995-12.908,7.046l-2.742-4.706
			c3.68-2.807,7.392-5.743,10.777-8.735c1.671-1.505,3.306-3.054,4.557-4.568c0.604-0.734,1.128-1.53,1.257-1.912
			c0.066-0.158-0.051-0.211-0.124,0.397c-0.015,0.159-0.006,0.334,0.022,0.559l0.032,0.16c0.006,0.029-0.013-0.013-0.013-0.013
			l-0.035-0.068l-0.205-0.436c-0.384-0.768-0.912-1.726-1.458-2.663c-0.555-0.947-1.153-1.911-1.762-2.873
			c-1.208-1.937-2.482-3.88-3.755-5.83c-2.566-3.881-5.145-7.841-7.648-11.757L428.507,201.592z"/>
		<g>
			<g>
				<g>
					<g>
						<polygon style="fill:#FFC3BD;" points="432.746,417.915 430.747,427.271 425.791,427.271 425.276,417.915 						"/>
						<g>
							<g>
								<path style="fill:#263238;" d="M411.602,433.889c0.174-3.049,1.493-3.959,3.154-4.063c1.727-0.108,7.841-2.164,7.841-2.164
									s1.231-1.936,2.356-2.329c1.125-0.393,2.261,0.758,2.261,0.758l3.1-0.377c0,0,0.89-1.392,1.569-0.173
									c1.053,1.89,1.095,7.121,1.04,8.348H411.602z"/>
							</g>
						</g>
						<g>
							<g>
								<g>
									<path style="fill:#407BFF;" d="M411.981,433.093c1.29-0.006,2.575-0.012,3.865-0.018c5.636-0.027,11.271-0.06,16.908-0.088
										c0.215,0.001,0.161-0.327-0.053-0.322c-0.379,0.004-0.766,0.002-1.145,0.007c-0.002-0.013-0.011-0.031-0.02-0.043
										c-1.1-1.757-0.458-3.541,1.016-4.431c0.174-0.098-0.044-0.384-0.211-0.279c-1.595,0.963-2.242,2.871-1.127,4.752
										c-0.796,0.008-1.587,0.01-2.385,0.013c-5.63,0.027-11.265,0.06-16.901,0.088
										C411.713,432.77,411.767,433.098,411.981,433.093z"/>
								</g>
							</g>
						</g>
					</g>
				</g>
				<path style="fill:#407BFF;" d="M437.597,295.351c0.198,9.428-0.224,21.626-1.804,37.323c-0.459,4.561-1.016,9.42-1.688,14.593
					c7.481,29.95-1.262,73.218-1.262,73.218l-7.67-0.17c0,0-7.147-48.354-9.486-73.669c-3.833-41.476-3.806-80.986-3.806-80.986
					l20.915-1.788C432.796,263.873,437.098,271.814,437.597,295.351z"/>
				<path style="opacity:0.6;fill:#FFFFFF;" d="M437.597,295.351c0.198,9.428-0.224,21.626-1.804,37.323
					c-0.459,4.561-1.016,9.42-1.688,14.593c7.481,29.95-1.262,73.218-1.262,73.218l-7.67-0.17c0,0-7.147-48.354-9.486-73.669
					c-3.833-41.476-3.806-80.986-3.806-80.986l20.915-1.788C432.796,263.873,437.098,271.814,437.597,295.351z"/>
				<path style="opacity:0.2;" d="M413.843,322.76c5.09-13.03,1.94-36.01,1.94-36.01l-2.86,18.81L413.843,322.76z"/>
				<g>
					<polygon style="fill:#263238;" points="424.525,422.104 423.866,418.848 434.069,418.848 433.909,422.104 					"/>
				</g>
			</g>
			<g>
				<g>
					<g>
						<polygon style="fill:#FFC3BD;" points="399.035,417.81 397.065,427.228 392.109,427.228 391.566,417.81 						"/>
						<g>
							<g>
								<path style="fill:#263238;" d="M377.94,433.889c0.165-3.069,1.482-3.985,3.142-4.089c1.727-0.109,7.835-2.179,7.835-2.179
									s1.225-1.948,2.349-2.344c1.124-0.396,2.263,0.763,2.263,0.763l3.099-0.38c0,0,0.885-1.401,1.569-0.173
									c1.058,1.902,1.116,7.168,1.065,8.402H377.94z"/>
							</g>
						</g>
						<g>
							<g>
								<g>
									<path style="fill:#407BFF;" d="M378.317,433.087c1.29-0.006,2.575-0.012,3.865-0.018
										c5.636-0.027,11.271-0.061,16.907-0.088c0.215,0.001,0.16-0.329-0.054-0.324c-0.379,0.004-0.766,0.003-1.145,0.007
										c-0.002-0.013-0.011-0.031-0.02-0.044c-1.106-1.768-0.469-3.564,1.002-4.46c0.173-0.099-0.046-0.386-0.212-0.281
										c-1.592,0.97-2.233,2.89-1.113,4.783c-0.796,0.008-1.587,0.01-2.385,0.013c-5.63,0.027-11.265,0.061-16.901,0.088
										C378.047,432.762,378.102,433.092,378.317,433.087z"/>
								</g>
							</g>
						</g>
					</g>
				</g>
				<path style="fill:#407BFF;" d="M388.654,346.075c0.504,25.477,2.552,74.154,2.552,74.154l7.657,0.163
					c0,0,12.81-43.552,8.148-73.696c1.154-5.203,2.168-10.095,3.059-14.684c0.548-2.822,1.047-5.53,1.497-8.131
					c1.554-8.867,2.585-16.475,3.248-22.995c0.237-2.282,0.425-4.426,0.573-6.446c1.71-23.69-2.651-28.902-2.651-28.902
					l-24.083,0.095C388.653,265.633,387.775,301.671,388.654,346.075z"/>
				<path style="opacity:0.6;fill:#FFFFFF;" d="M388.654,346.075c0.504,25.477,2.552,74.154,2.552,74.154l7.657,0.163
					c0,0,12.81-43.552,8.148-73.696c1.154-5.203,2.168-10.095,3.059-14.684c0.548-2.822,1.047-5.53,1.497-8.131
					c1.554-8.867,2.585-16.475,3.248-22.995c0.237-2.282,0.425-4.426,0.573-6.446c1.71-23.69-2.651-28.902-2.651-28.902
					l-24.083,0.095C388.653,265.633,387.775,301.671,388.654,346.075z"/>
				<g>
					<polygon style="fill:#263238;" points="390.392,422.027 390.04,418.749 400.243,418.749 399.776,422.027 					"/>
				</g>
			</g>
			<g>
				<g>
					<g>
						<g>
							<path style="fill:#263238;" d="M386.922,175.254c-0.128,0.038-0.273,0.01-0.379-0.088c-0.159-0.147-0.169-0.396-0.022-0.555
								c1.474-1.596,3.267-1.314,3.342-1.301c0.214,0.036,0.358,0.239,0.322,0.453c-0.036,0.213-0.238,0.357-0.451,0.322
								c-0.059-0.009-1.458-0.215-2.635,1.059C387.048,175.197,386.987,175.234,386.922,175.254"/>
						</g>
						<g>
							<path style="fill:#ED847E;" d="M387.586,176.992c0,0-0.717,2.935-1.742,4.444c0.963,0.68,2.365,0.118,2.365,0.118
								L387.586,176.992z"/>
						</g>
						<g>
							<path style="fill:#263238;" d="M388.567,177.186c0.157,0.65-0.06,1.261-0.485,1.363c-0.425,0.103-0.897-0.341-1.054-0.991
								c-0.157-0.65,0.059-1.261,0.485-1.364C387.938,176.092,388.409,176.535,388.567,177.186"/>
						</g>
						<g>
							<path style="fill:#263238;" d="M387.709,176.185l-1.671-0.072C386.038,176.113,387.135,177.139,387.709,176.185"/>
						</g>
						<g>
							<path style="fill:#263238;" d="M388.216,166.521c0,0-3.722,0.78-0.944,6.436l2.995-5.529L388.216,166.521z"/>
						</g>
						<g>
							<path style="fill:#263238;" d="M404.156,161.348c0,0-2.595-12.377,7.342-11.031c9.937,1.345,7.816,9.692,7.816,9.692
								s6.005,0.477,2.976,7.246c-3.03,6.769-13.552,1.912-13.552,1.912C406.262,167.369,404.878,164.641,404.156,161.348z"/>
						</g>
						<g>
							<path style="fill:#FFC3BD;" d="M406.872,197.931c-2.67-0.388-4.673,0.086-6.114,0.783c1.349-2.294,0.426-5.003-0.868-7.493
								l7.362-10.093c0.205,5.067,1.373,14.166,5.529,16.591C412.781,197.718,414.128,198.99,406.872,197.931z"/>
						</g>
						<g style="opacity:0.2;">
							<path d="M404.25,185.243l-4.357,5.971c0.438,0.837,0.829,1.699,1.101,2.562c1.993-0.79,4.287-3.732,3.991-5.944
								C404.838,186.728,404.546,185.703,404.25,185.243"/>
						</g>
						<g>
							<path style="fill:#FFC3BD;" d="M409.516,171.497c0.598,8.012,1.022,11.391-2.434,16.017
								c-5.198,6.959-15.17,5.941-18.149-1.731c-2.682-6.906-3.208-18.848,4.137-23.073
								C400.307,158.548,408.919,163.485,409.516,171.497"/>
						</g>
						<g>
							<path style="fill:#263238;" d="M397.541,159.422c0,0,7.344-1.704,12.173,3.076c4.829,4.779,5.642,16.798-2.259,24.498
								c0.132,2.431-10.419,3.192-13.392-3.75c-1.079-2.52-2.689-4.192-3.108-12.76c0,0,0,0-3.009-0.855
								C385.468,168.43,386.164,158.216,397.541,159.422z"/>
						</g>
						<g>
							<path style="fill:#FFC3BD;" d="M398.031,177.361c-0.353,1.628-1.425,2.941-2.588,3.663c-1.749,1.086-3.197-0.34-3.19-2.291
								c0.005-1.756,0.923-4.437,2.909-4.734C397.119,173.706,398.435,175.499,398.031,177.361"/>
						</g>
						<g>
							<path style="fill:#FFFFFF;" d="M392.855,181.306c0.145,0.721,0.847,1.187,1.567,1.042c0.72-0.145,1.187-0.847,1.042-1.567
								c-0.145-0.721-0.847-1.187-1.567-1.042C393.176,179.884,392.71,180.586,392.855,181.306z"/>
						</g>
					</g>
					<g>
						<g>
							<path style="fill:#407BFF;" d="M412.651,170.588c-0.007,0-0.014-0.001-0.021-0.002c-9.602-1.31-9.075-11.252-9.069-11.353
								c0.009-0.121,0.106-0.219,0.234-0.206c0.121,0.008,0.214,0.113,0.206,0.234c-0.025,0.393-0.504,9.633,8.689,10.887
								c0.12,0.016,0.205,0.128,0.188,0.248C412.864,170.511,412.764,170.592,412.651,170.588z"/>
						</g>
					</g>
				</g>
				<g>
					<path style="fill:#263238;" d="M434.984,261.538c2.92,12.135-44.874,8.092-46.805,5.683
						c-1.922-2.409,3.608-31.264,3.894-38.237l0.001-0.027c0.257-6.929-6.407-15.136-3.609-20.154
						c1.03-1.846,3.016-3.805,5.119-5.55c1.868-1.547,3.828-2.918,5.272-3.878c0.121-0.085,0.233-0.153,0.335-0.221l0.019-0.017
						c0.335-0.22,0.643-0.415,0.903-0.576c0.633-0.398,1.004-0.617,1.004-0.617s6.325-1.253,12.828-1.413
						c0.389-0.01,0.77-0.012,1.159-0.013c2.643-0.012,5.24,0.183,7.405,0.739c7.821,1.997,8.807,9.061,8.764,16.904
						C431.23,222.005,433.736,256.349,434.984,261.538z"/>
				</g>
				<g style="opacity:0.2;">
					<path d="M415.104,196.519c-0.01,0.027-0.011,0.045-0.021,0.071c-0.433,1.429-5.425,5.093-9.852,4.746
						c-3.986-0.31-6.007-1.682-6.375-1.961c0.121-0.085,0.233-0.153,0.335-0.221l0.019-0.017c0.335-0.22,0.643-0.415,0.903-0.576
						c0.979,0.368,3.274,1.075,6.548,1.1c4.44,0.049,7.275-3.121,7.275-3.121s0,0,0.009-0.009
						C414.335,196.521,414.715,196.52,415.104,196.519z"/>
				</g>
				<g>
					<path style="fill:#FFC3BD;" d="M403.835,215.3c-1.055,9.265-8.186,12.591-11.762,13.684l0.001-0.027
						c0.257-6.929-6.407-15.136-3.609-20.154c1.03-1.846,3.016-3.805,5.119-5.55C398.331,204.365,404.742,207.35,403.835,215.3z"/>
				</g>
				<path style="opacity:0.2;" d="M396.442,219.417c0,0,0.721,4.253-0.849,8.103c-1.31,0.7-2.55,1.17-3.52,1.46v-0.02
					c0.02-0.48,0-0.97-0.04-1.46L396.442,219.417z"/>
				<g>
					<path style="fill:#263238;" d="M400.167,198.689c0,0-0.254-1.965,0.902-2.537c1.156-0.572,6.069-3.922,7.961-4.065
						c1.892-0.143,3.604,4.467,4.907,4.45C415.241,196.519,403.341,199.82,400.167,198.689z"/>
				</g>
			</g>
		</g>
		<g>
			<path style="fill:#407BFF;" d="M411.052,258.063h3.128c0,0,1.417,8.75-3.583,12.917c-5,4.167-16.431,3.329-16.431,3.329
				L411.052,258.063z"/>
			<g>
				<path style="fill:#407BFF;" d="M382.68,258.063h28.372c0,0,0.878,13.083-7.387,15.25
					C396.193,275.272,381.263,276.563,382.68,258.063z"/>
				<path style="opacity:0.4;fill:#FFFFFF;" d="M410.57,264.36c-0.06,0.28-0.12,0.57-0.19,0.86c-0.86,3.44-2.71,7.05-6.71,8.09
					c-6.28,1.65-17.82,2.82-20.51-7.82c-0.07-0.28-0.14-0.58-0.19-0.89c-0.37-1.84-0.48-4-0.29-6.54h28.37
					C411.05,258.06,411.25,261.02,410.57,264.36z"/>
				<path style="fill:#407BFF;" d="M395.998,262.688c0,0.465-0.377,0.842-0.842,0.842c-0.465,0-0.842-0.377-0.842-0.842
					s0.377-0.842,0.842-0.842C395.621,261.845,395.998,262.222,395.998,262.688z"/>
				<g>
					<path style="fill:#407BFF;" d="M410.57,264.36c-0.06,0.28-0.12,0.57-0.19,0.86c-2.48,0.9-8.43,2.79-14.32,2.79
						c-0.21,0-0.42-0.01-0.63-0.01c-5.39-0.13-9.93-1.59-12.27-2.51c-0.07-0.28-0.14-0.58-0.19-0.89c2.1,0.87,6.8,2.52,12.48,2.65
						C401.79,267.4,408.41,265.16,410.57,264.36z"/>
				</g>
			</g>
		</g>
		<g>
			<path style="fill:#407BFF;" d="M389.493,218.66c-3.32,15.56-5.17,36.28-5.44,39.4h-1c0.26-3.19,2.18-25.23,5.82-41.16
				C389.063,217.48,389.283,218.06,389.493,218.66z"/>
			<path style="opacity:0.4;fill:#FFFFFF;" d="M389.493,218.66c-3.32,15.56-5.17,36.28-5.44,39.4h-1
				c0.26-3.19,2.18-25.23,5.82-41.16C389.063,217.48,389.283,218.06,389.493,218.66z"/>
			<path style="fill:#407BFF;" d="M413.793,258.06h-1.01c-2.05-19.07-7.67-54.41-14.92-56.84c-0.56-0.18-1.11-0.1-1.68,0.28
				c-0.61,0.4-1.19,1.07-1.75,1.97c-0.29-0.08-0.57-0.15-0.85-0.22c-0.09,0.08-0.18,0.15-0.27,0.22c0.73-1.31,1.51-2.27,2.32-2.81
				c0.83-0.54,1.69-0.67,2.55-0.38C407.463,203.39,413.043,251.28,413.793,258.06z"/>
			<path style="opacity:0.4;fill:#FFFFFF;" d="M413.793,258.06h-1.01c-2.05-19.07-7.67-54.41-14.92-56.84
				c-0.56-0.18-1.11-0.1-1.68,0.28c-0.61,0.4-1.19,1.07-1.75,1.97c-0.29-0.08-0.57-0.15-0.85-0.22c-0.09,0.08-0.18,0.15-0.27,0.22
				c0.73-1.31,1.51-2.27,2.32-2.81c0.83-0.54,1.69-0.67,2.55-0.38C407.463,203.39,413.043,251.28,413.793,258.06z"/>
		</g>
		<path style="fill:#FFC3BD;" d="M398.551,213.324c-1.734,5.684-3.61,11.263-5.689,16.827c-1.018,2.787-2.115,5.55-3.241,8.332
			c-1.173,2.785-2.306,5.509-3.823,8.436l-0.665,1.176l-0.168,0.292l-0.084,0.146l-0.042,0.073l-0.107,0.169
			c-0.154,0.234-0.299,0.446-0.484,0.68c-0.221,0.264-0.453,0.514-0.707,0.754c-0.322,0.279-0.644,0.528-1.026,0.758
			c-0.427,0.236-0.855,0.446-1.339,0.581c-0.483,0.137-0.995,0.232-1.446,0.237c-0.233,0.008-0.467,0.005-0.698-0.009
			c-0.21-0.018-0.397-0.047-0.595-0.081c-1.554-0.312-2.329-0.887-2.966-1.33c-1.187-0.919-1.801-1.704-2.392-2.455
			c-0.576-0.75-1.044-1.473-1.48-2.188c-1.703-2.846-2.985-5.593-4.183-8.391c-2.386-5.574-4.327-11.168-6.045-16.916l5.068-1.994
			c2.657,5.148,5.396,10.336,8.239,15.278c1.44,2.444,2.911,4.898,4.466,6.941c0.385,0.501,0.775,0.971,1.129,1.357
			c0.34,0.381,0.727,0.687,0.728,0.636c-0.039-0.024-0.16-0.226-0.988-0.41c-0.108-0.02-0.205-0.029-0.323-0.039
			c-0.139-0.016-0.282-0.021-0.423-0.015c-0.265,0.018-0.602,0.05-0.906,0.148c-0.304,0.098-0.578,0.196-0.837,0.361
			c-0.228,0.131-0.412,0.258-0.587,0.427c-0.129,0.106-0.24,0.217-0.337,0.346c-0.076,0.087-0.125,0.142-0.175,0.225l-0.032,0.053
			l0.022-0.049l0.043-0.098l0.087-0.196l0.352-0.777c1.007-2.376,1.977-5.143,2.892-7.843c0.955-2.708,1.838-5.474,2.762-8.228
			c1.801-5.52,3.65-11.078,5.527-16.568L398.551,213.324z"/>
		<path style="fill:#FFC3BD;" d="M366.466,218.52c0,0,0.875-3.645,0.875-4.708s-1.853-2.167-1.853-2.167s-0.148-2.646-1.585-3.083
			s-5.812,0.75-6.322,3.794c-0.274,1.636,3.885,8.081,3.885,8.081L366.466,218.52z"/>
	</g>
</g>
<g id="Character_1">
	<g>
		<path style="fill:#407BFF;" d="M156.26,205.69l-9.13,18.6c-0.83,1.71-1.66,3.43-2.49,5.14c-0.74,1.53-1.47,3.06-2.18,4.58
			c-1.38,2.94-2.69,5.86-3.87,8.73c-0.58,1.47-1.14,2.99-1.45,4.09c-0.31,1.13-0.54,2.66-0.69,4.22c-0.31,3.15-0.42,6.54-0.47,9.93
			c-0.05,6.79,0.06,13.77,0.22,20.67l-6.86,0.97c-1.7-6.95-3.04-13.88-3.93-21.03c-0.44-3.59-0.78-7.19-0.83-11.02
			c-0.01-1.94,0.03-3.9,0.38-6.2c0.42-2.32,0.97-4.12,1.55-5.94c1.17-3.58,2.42-6.94,3.78-10.26c1.35-3.32,2.74-6.59,4.2-9.81
			c2.91-6.47,5.99-12.77,9.31-19.05L156.26,205.69z"/>
		<path style="opacity:0.2;" d="M144.64,204.88v24.55c-0.74,1.53-1.47,3.06-2.18,4.58L144.64,204.88z"/>
		<g>
			<g>
				<g>
					<path style="fill:#263238;" d="M122.518,294.198v-6.264c0-0.217,0.177-0.393,0.394-0.393h3.399v-1.011h-3.399
						c-0.775,0-1.405,0.63-1.405,1.405v6.264H122.518z"/>
				</g>
				<g>
					<path style="fill:#263238;" d="M146.031,287.934v6.264h1.011v-6.264c0-0.775-0.63-1.405-1.405-1.405h-3.399v1.011h3.399
						C145.854,287.54,146.031,287.717,146.031,287.934z"/>
				</g>
				<g>
					<g>
						<path style="fill:#263238;" d="M160.374,296.848v31.604c0,1.466-1.193,2.66-2.66,2.66h-45.611c-1.466,0-2.66-1.193-2.66-2.66
							v-31.604c0-1.466,1.193-2.65,2.66-2.65h45.611C159.181,294.198,160.374,295.381,160.374,296.848z"/>
					</g>
					<g style="opacity:0.5;">
						<path style="fill:#FFFFFF;" d="M160.374,296.848v31.604c0,1.466-1.193,2.66-2.66,2.66h-45.611c-1.466,0-2.66-1.193-2.66-2.66
							v-31.604c0-1.466,1.193-2.65,2.66-2.65h45.611C159.181,294.198,160.374,295.381,160.374,296.848z"/>
					</g>
					<g>
						<rect x="151.657" y="294.198" style="fill:#263238;" width="2.023" height="36.913"/>
						<rect x="116.139" y="294.198" style="fill:#263238;" width="2.023" height="36.913"/>
					</g>
				</g>
				<rect x="124.907" y="285.349" style="fill:#263238;" width="18.372" height="3.371"/>
				<rect x="124.907" y="285.349" style="opacity:0.3;fill:#FFFFFF;" width="18.372" height="3.371"/>
			</g>
			<path style="fill:#B55B52;" d="M136.262,280.71c0,0,4.087,3.141,4.562,4.405c0.475,1.264-1.44,4.267-2.374,4.212
				c-1.31-0.078,0.379-3.404,0.379-3.404l-8.036-0.188c0,0-1.47-0.549-1.453-3.116C131.371,280.87,133.564,280.265,136.262,280.71z"
				/>
			<path style="fill:#B55B52;" d="M139.952,288.244c0,0,0.879,1.923-0.251,2.463c-1.13,0.541-7.733,0.271-9.305-0.547
				c-1.572-0.818-0.72-3.089,0.479-3.381C132.073,286.489,138.503,285.759,139.952,288.244z"/>
		</g>
		<g>
			<g>
				<g>
					<g>
						<g>
							<g>
								<g>
									<polygon style="fill:#B55B52;" points="122.973,408.999 119.976,422.892 125.49,424.55 131.044,412.135 									"/>
								</g>
							</g>
						</g>
						<g>
							<g>
								<g>
									<path style="fill:#263238;" d="M124.142,422.889c0,0,2.495-3.006,3.458-2.42c0.963,0.586,0.501,4.786,0.501,4.786
										s5.247,3.112,6.806,3.552c1.558,0.44,2.644,1.612,2.181,4.742l-19.311-4.167c0,0,1.634-6.94,1.927-8.126
										c0.293-1.187,1.671,0.673,1.671,0.673L124.142,422.889z"/>
								</g>
							</g>
						</g>
					</g>
					<path style="fill:#263238;" d="M170.06,269.04c-0.813,4.288-1.226,14.604-1.761,26.622c-0.371,8.245-0.792,17.288-1.439,25.732
						c-0.806,10.808-1.976,20.632-3.844,26.523c-6.564,20.765-32.477,67.281-32.477,67.281l-9.066-1.961
						c0,0,14.441-49.859,16.03-55.456c1.589-5.597,5.009-25.671,4.995-47.414c-0.022-34.177,0-42.201,0-42.201L170.06,269.04z"/>
					<path style="opacity:0.2;" d="M169.589,297.61c-0.851,8.21-1.797,17.213-2.934,25.604c-2.571-16.095-3.402-40.017-3.402-40.017
						L169.589,297.61z"/>
					<polygon style="fill:#407BFF;" points="120.616,413.391 131.259,415.687 132.772,412.461 121.103,409.795 					"/>
				</g>
				<g>
					<g>
						<g>
							<g>
								<polygon style="fill:#B55B52;" points="171.366,412.869 171.366,427.081 177.106,427.538 179.916,414.232 								"/>
							</g>
						</g>
					</g>
					<g>
						<g>
							<g>
								<path style="fill:#263238;" d="M175.438,426.2c0,0,1.805-3.465,2.87-3.095c1.065,0.37,1.499,4.573,1.499,4.573
									s5.785,1.935,7.402,2.037c1.616,0.102,2.925,1.018,3.132,4.175h-19.755c0,0,0.133-7.128,0.169-8.35
									c0.036-1.222,1.775,0.305,1.775,0.305L175.438,426.2z"/>
							</g>
						</g>
					</g>
				</g>
				<path style="fill:#263238;" d="M164.529,269.664c-2.22,1.471-0.941,11.163-0.597,15.344c0.646,7.968,5.661,19.812,6.348,30.161
					c0.802,11.985,1.374,23.986,1.088,32.314c-0.736,21.384-0.573,69.847-0.573,69.847h9.277c0,0,10.897-48.168,12.934-69.847
					c1.702-17.973,0.286-69.707-0.001-80.898L164.529,269.664z"/>
				<polygon style="fill:#407BFF;" points="169.988,417.659 180.875,417.659 181.674,414.186 169.705,414.041 				"/>
			</g>
		</g>
		<g>
			<g>
				<g>
					<g>
						<g>
							<path style="fill:#263238;" d="M187.764,173.217c0.108,0.66-0.155,1.252-0.587,1.323c-0.432,0.07-0.869-0.408-0.976-1.068
								c-0.108-0.66,0.155-1.253,0.587-1.323C187.219,172.079,187.657,172.557,187.764,173.217"/>
						</g>
						<path style="fill:#A02724;" d="M186.849,173.997c0,0,1.428,3.358,2.944,4.956c-1.015,0.999-2.796,0.602-2.796,0.602
							L186.849,173.997z"/>
						<path style="fill:#263238;" d="M184.322,169.73c-0.083-0.014-0.161-0.059-0.215-0.131c-0.116-0.152-0.086-0.369,0.066-0.484
							c1.521-1.159,3.028-0.64,3.093-0.618c0.18,0.064,0.273,0.262,0.209,0.442c-0.064,0.179-0.264,0.272-0.44,0.21l0,0
							c-0.049-0.017-1.231-0.408-2.444,0.516C184.512,169.726,184.414,169.747,184.322,169.73z"/>
						<path style="fill:#B55B52;" d="M175.79,189.814l-8.406-12.283c-0.943,5.959-3.334,15.007-5.599,18.444
							c0,0,2.152,5.666,12.851,2.053C174.636,198.028,173.182,193.419,175.79,189.814z"/>
						<path style="fill:#407BFF;" d="M160.905,193.313c0,0,1.023-3.42,3.773-4.279c0,0,7.569,2.215,10.327,2.14
							c0,0,1.212,1.025,1.085,2.634C176.09,193.807,163.919,194.179,160.905,193.313z"/>
						<path style="fill:#B55B52;" d="M166.912,172.215c0.636,7.212,0.642,11.465,4.389,15.076
							c5.637,5.431,14.465,1.885,15.996-5.371c1.379-6.532,0.107-17.228-7.041-19.914
							C173.215,159.359,166.276,165.003,166.912,172.215z"/>
						<path style="fill:#263238;" d="M187.029,165.051c-3.832,5.336-1.062,7.172-2.093,9.443c-1.031,2.271-3.044-2.746-5.09,2.844
							c-2.046,5.59-9.593,7.091-9.593,7.091c-1.687-1.589-3.621-1.382-3.621-1.382c-15.571-16.927-1.342-20.499-1.342-20.499
							s0.644-2.86,4.909-4.139c3.413-1.023,4.119-0.259,8.981-0.956c4.862-0.697,7.205-1.371,9.546,0.701
							C190.572,159.787,187.029,165.051,187.029,165.051z"/>
						<path style="fill:#B55B52;" d="M178.58,174.562c0.151,1.89,1.066,3.653,2.146,4.797c1.625,1.719,3.262,0.596,3.501-1.544
							c0.215-1.925-0.372-5.14-2.335-6.067C179.958,170.835,178.407,172.401,178.58,174.562z"/>
					</g>
				</g>
			</g>
		</g>
		<path style="fill:#407BFF;" d="M196.72,252.68c-0.09,4.41-0.31,8.98-0.69,13.71c-0.14,1.81-0.31,3.64-0.5,5.5
			c-23.21,8.17-55.32-0.8-55.32-0.8c1.06-4.55,2.95-18.17,3.75-28.12c1-12.39,1.15-22.01-0.74-35.45
			c-0.92-6.53,0.54-12.63,6.78-13.44l2.76-0.31c10.48-1.35,22.58-0.92,32.44,0.89c5.03,0.92,8.79,5.32,9.21,10.65
			C195.34,217.3,197.16,233.44,196.72,252.68z"/>
		<path style="opacity:0.2;" d="M160.905,193.313c0,0,1.72,2.937,6.907,2.937s8.287-2.811,8.287-2.811l1.783,0.174
			c0,0-5.578,4.637-11.012,3.949C161.438,196.875,160.905,193.313,160.905,193.313"/>
		<path style="opacity:0.2;" d="M196.72,252.68c-0.09,4.41-0.31,8.98-0.69,13.71c-3.08-2.66-7.52-7.19-9.18-12.51
			c-2.65-8.5-5.02-35.48-5.02-35.48L196.72,252.68z"/>
		<path style="fill:#407BFF;" d="M193.852,203.226c1.018,6.593,1.995,13.281,2.918,19.903c0.477,3.315,0.942,6.62,1.46,9.896
			c0.479,3.279,1.052,6.529,1.662,9.615c0.325,1.556,0.618,2.956,1.051,4.209l0.327,0.957l0.429,1.035
			c0.261,0.686,0.592,1.407,0.918,2.125c1.314,2.876,2.853,5.804,4.406,8.735c3.163,5.839,6.405,11.85,9.728,17.683l-4.267,4.202
			c-5.295-4.289-10.091-10.8-14.154-16.436c-2.036-2.821-3.992-5.708-5.863-8.818c-0.466-0.781-0.937-1.554-1.38-2.411l-0.665-1.26
			c-0.218-0.445-0.429-0.929-0.641-1.394c-0.854-1.883-1.449-3.768-1.987-5.486c-2.059-6.945-3.448-13.62-4.729-20.391
			c-1.282-6.758-2.29-13.485-3.091-20.33L193.852,203.226z"/>
		<path style="fill:#B55B52;" d="M212.483,281.586c0,0,0.963,10.594,2.896,10.747c0.507,0.04,0.712-1.12,0.458-3.918
			c0,0,2.748,6.106,3.511,6.768c3.697,3.204,3.511-6.157,2.086-9.912c-1.352-3.563-4.684-7.887-4.684-7.887L212.483,281.586z"/>
	</g>
</g>
</svg>
