<?xml version="1.0" encoding="utf-8"?>
<!-- Generator: Adobe Illustrator 27.5.0, SVG Export Plug-In . SVG Version: 6.00 Build 0)  -->
<svg version="1.1" xmlns="http://www.w3.org/2000/svg" xmlns:xlink="http://www.w3.org/1999/xlink" x="0px" y="0px"
	 viewBox="0 0 500 500" style="enable-background:new 0 0 500 500;" xml:space="preserve">
<g id="Background_Complete">
	<g>
		<rect y="382.398" style="fill:#EBEBEB;" width="500" height="0.25"/>
		<rect x="78.545" y="390.788" style="fill:#EBEBEB;" width="33.122" height="0.25"/>
		<rect x="133.333" y="398" style="fill:#EBEBEB;" width="30.167" height="0.25"/>
		<rect x="56.854" y="400.074" style="fill:#EBEBEB;" width="38.251" height="0.25"/>
		<rect x="434" y="399.528" style="fill:#EBEBEB;" width="15.901" height="0.25"/>
		<rect x="391.471" y="399.528" style="fill:#EBEBEB;" width="39.321" height="0.25"/>
		<rect x="250" y="390.663" style="fill:#EBEBEB;" width="30.333" height="0.25"/>
		<rect x="284.667" y="390.663" style="fill:#EBEBEB;" width="72.095" height="0.25"/>
		<path style="fill:#EBEBEB;" d="M237.014,337.8H43.915c-3.147,0-5.708-2.561-5.708-5.708V60.66c0-3.147,2.561-5.708,5.708-5.708
			h193.099c3.146,0,5.707,2.561,5.707,5.708v271.432C242.721,335.239,240.16,337.8,237.014,337.8z M43.915,55.203
			c-3.01,0-5.458,2.448-5.458,5.458v271.432c0,3.01,2.448,5.458,5.458,5.458h193.099c3.009,0,5.457-2.448,5.457-5.458V60.66
			c0-3.009-2.448-5.458-5.457-5.458H43.915z"/>
		<path style="fill:#EBEBEB;" d="M453.31,337.8H260.212c-3.147,0-5.707-2.561-5.707-5.708V60.66c0-3.147,2.561-5.708,5.707-5.708
			H453.31c3.148,0,5.708,2.561,5.708,5.708v271.432C459.019,335.239,456.458,337.8,453.31,337.8z M260.212,55.203
			c-3.009,0-5.457,2.448-5.457,5.458v271.432c0,3.01,2.448,5.458,5.457,5.458H453.31c3.01,0,5.458-2.448,5.458-5.458V60.66
			c0-3.009-2.448-5.458-5.458-5.458H260.212z"/>
	</g>
	<g>
		<g>
			<g>
				<path style="fill:#F0F0F0;" d="M204.908,242.424c0,0-0.934,27.177-36.751,27.177s-36.751-27.177-36.751-27.177H204.908z"/>
			</g>
			<g>
				<g>
					<rect x="82.809" y="278.155" style="fill:#F0F0F0;" width="39.432" height="95.388"/>
					<rect x="90.38" y="373.543" style="fill:#F0F0F0;" width="194.461" height="8.856"/>
					
						<rect x="122.241" y="278.155" transform="matrix(-1 -1.224647e-16 1.224647e-16 -1 414.6532 651.6972)" style="fill:#F5F5F5;" width="170.172" height="95.388"/>
					
						<rect x="137.744" y="289.759" transform="matrix(-1 -1.224647e-16 1.224647e-16 -1 414.6532 608.8693)" style="fill:#F0F0F0;" width="139.166" height="29.352"/>
					
						<rect x="137.744" y="327.471" transform="matrix(-1 -1.224647e-16 1.224647e-16 -1 414.6532 684.2931)" style="fill:#F0F0F0;" width="139.166" height="29.352"/>
					<path style="fill:#F5F5F5;" d="M223.652,294.783h-32.652c-1.729,0-3.143-1.414-3.143-3.143v0c0-1.729,1.414-3.143,3.143-3.143
						h32.652c1.729,0,3.143,1.414,3.143,3.143v0C226.795,293.368,225.381,294.783,223.652,294.783z"/>
					<path style="fill:#F5F5F5;" d="M223.652,332.494h-32.652c-1.729,0-3.143-1.414-3.143-3.143l0,0
						c0-1.729,1.414-3.143,3.143-3.143h32.652c1.729,0,3.143,1.414,3.143,3.143l0,0C226.795,331.08,225.381,332.494,223.652,332.494
						z"/>
				</g>
				<rect x="122.241" y="269.602" style="fill:#F0F0F0;" width="175.426" height="8.553"/>
				
					<rect x="77.299" y="269.602" transform="matrix(-1 -1.224647e-16 1.224647e-16 -1 199.5393 547.7563)" style="fill:#E6E6E6;" width="44.942" height="8.553"/>
			</g>
		</g>
		<g>
			<g>
				<rect x="320.499" y="85.315" style="fill:#E6E6E6;" width="102.007" height="136.421"/>
				<rect x="323.103" y="85.315" style="fill:#F5F5F5;" width="107.199" height="136.421"/>
				<rect x="332.079" y="94.298" style="fill:#FFFFFF;" width="89.24" height="118.46"/>
				<g>
					<path style="fill:#F0F0F0;" d="M408.754,161.208c0,0-0.815,23.702-32.052,23.702s-32.052-23.702-32.052-23.702H408.754z"/>
				</g>
				<circle style="fill:#F0F0F0;" cx="362.526" cy="136.627" r="6"/>
				<circle style="fill:#F0F0F0;" cx="390.873" cy="136.627" r="6"/>
			</g>
		</g>
		<g>
			<g>
				<rect x="331.084" y="303.144" style="fill:#E6E6E6;" width="36.069" height="79.255"/>
				
					<rect x="367.154" y="303.144" transform="matrix(-1 -1.224647e-16 1.224647e-16 -1 797.758 685.542)" style="fill:#F5F5F5;" width="63.451" height="79.255"/>
				
					<rect x="360.913" y="316.03" transform="matrix(-1.836970e-16 1 -1 -1.836970e-16 743.3115 -54.4464)" style="fill:#E6E6E6;" width="75.932" height="56.804"/>
				
					<rect x="339.682" y="337.261" transform="matrix(-1.836970e-16 1 -1 -1.836970e-16 722.0806 -33.2155)" style="fill:#E0E0E0;" width="75.932" height="14.342"/>
				
					<rect x="389.179" y="285.637" transform="matrix(-1.836970e-16 1 -1 -1.836970e-16 714.7178 -83.7348)" style="fill:#F5F5F5;" width="20.094" height="59.71"/>
				<path style="fill:#E6E6E6;" d="M424.577,323.4h-50.701v-15.816h50.701V323.4z M374.876,322.4h48.701v-13.816h-48.701V322.4z"/>
				<path style="fill:#E6E6E6;" d="M401.813,315.517c0,1.428-1.158,2.586-2.586,2.586c-1.428,0-2.586-1.158-2.586-2.586
					c0-1.428,1.158-2.586,2.586-2.586C400.655,312.931,401.813,314.089,401.813,315.517z"/>
			</g>
			<g>
				<polygon style="fill:#E6E6E6;" points="375.071,303.144 359.846,303.144 364.357,269.783 375.071,269.783 				"/>
				<polygon style="fill:#F0F0F0;" points="397.409,303.144 368.561,303.144 363.191,264.097 392.038,264.097 				"/>
				<polygon style="fill:#F5F5F5;" points="401.26,303.144 371.241,303.144 365.871,264.097 395.89,264.097 				"/>
				<polygon style="fill:#FFFFFF;" points="373.895,300.067 369.371,267.174 393.236,267.174 397.76,300.067 				"/>
				<path style="fill:#F5F5F5;" d="M380.013,290.659l-1.874-13.624c-0.137-0.998,0.638-1.888,1.646-1.888h5.688
					c0.83,0,1.533,0.613,1.646,1.435l1.874,13.624c0.137,0.998-0.638,1.888-1.646,1.888h-5.688
					C380.828,292.094,380.126,291.481,380.013,290.659z"/>
			</g>
		</g>
		<g>
			<g>
				<rect x="78.687" y="75.962" style="fill:#FAFAFA;" width="200.954" height="144.26"/>
				<polygon style="fill:#FFFFFF;" points="268.205,220.223 217.092,75.962 178.734,75.962 229.847,220.223 				"/>
				<polygon style="fill:#FFFFFF;" points="165.061,220.223 113.948,75.962 99.957,75.962 151.07,220.223 				"/>
				<g>
					<path style="fill:#E0E0E0;" d="M69.105,71.002h220.117c0.491,0,0.893,0.402,0.893,0.893l0,0c0,0.491-0.402,0.893-0.893,0.893
						H69.105c-0.491,0-0.893-0.402-0.893-0.893l0,0C68.213,71.404,68.614,71.002,69.105,71.002z"/>
					<rect x="177.973" y="75.652" style="fill:#F0F0F0;" width="2.381" height="144.88"/>
					<rect x="176.783" y="75.652" style="fill:#E0E0E0;" width="1.191" height="144.88"/>
					
						<rect x="177.973" y="46.227" transform="matrix(6.123234e-17 -1 1 6.123234e-17 31.0716 327.2564)" style="fill:#F0F0F0;" width="2.381" height="203.731"/>
					<path style="fill:#F0F0F0;" d="M77.299,219.23L77.299,219.23V76.955v-2.382h2.381h198.969h2.381v2.382V219.23h0v2.382h0l0,0
						h-2.381l0,0H79.679l0,0h-2.381l0,0l0,0V219.23z M278.648,219.23V76.955H79.679V219.23H278.648z"/>
					<rect x="76.108" y="74.573" style="fill:#E0E0E0;" width="1.191" height="147.038"/>
				</g>
			</g>
			<g>
				<polygon style="opacity:0.5;fill:#EBEBEB;" points="106.84,68.819 106.84,238.233 63.83,238.233 71.718,68.819 				"/>
				<polygon style="opacity:0.5;fill:#EBEBEB;" points="250.298,68.819 250.298,238.233 293.308,238.233 285.42,68.819 				"/>
			</g>
		</g>
	</g>
</g>
<g id="Background_Simple" style="display:none;">
	<g style="display:inline;">
		<path style="fill:#407BFF;" d="M290.461,151.785c-22.64-23.618-35.196-49.794-66.197-67.211
			c-24.301-13.653-52.119-24.759-86.963-15.971c-33.199,8.373-62.116,26.792-70.645,56.114
			c-8.429,28.977,2.471,62.638,21.396,81.912c10.086,10.272,24.542,15.861,37.501,23.344c14.293,8.253,23.054,19.564,30.087,33.089
			c12.352,23.752,21.807,48.118,53.012,57.339c30.567,9.033,65.301-1.743,98.984-11.821c30.8-9.215,76.719-15.028,93.09-45.393
			c15.484-28.72,0.842-65.777-22.962-80.164C351.25,166.997,312.169,174.432,290.461,151.785z"/>
		<path style="opacity:0.9;fill:#FFFFFF;" d="M290.461,151.785c-22.64-23.618-35.196-49.794-66.197-67.211
			c-24.301-13.653-52.119-24.759-86.963-15.971c-33.199,8.373-62.116,26.792-70.645,56.114
			c-8.429,28.977,2.471,62.638,21.396,81.912c10.086,10.272,24.542,15.861,37.501,23.344c14.293,8.253,23.054,19.564,30.087,33.089
			c12.352,23.752,21.807,48.118,53.012,57.339c30.567,9.033,65.301-1.743,98.984-11.821c30.8-9.215,76.719-15.028,93.09-45.393
			c15.484-28.72,0.842-65.777-22.962-80.164C351.25,166.997,312.169,174.432,290.461,151.785z"/>
	</g>
</g>
<g id="Shadow_1_">
	<ellipse id="_x3C_Path_x3E__215_" style="fill:#F5F5F5;" cx="250" cy="416.238" rx="193.889" ry="11.323"/>
</g>
<g id="Character_1">
	<g>
		<polygon style="fill:#FFC3BD;" points="239.021,402.488 246.773,400.407 244.017,381.9 236.265,383.981 		"/>
		<polygon style="fill:#FFC3BD;" points="167.332,409.517 175.359,409.517 181.613,390.929 173.586,390.929 		"/>
		<path style="fill:#263238;" d="M176.43,408.588l-9.786,0c-0.328,0-0.612,0.228-0.683,0.548l-1.586,7.135
			c-0.164,0.74,0.417,1.44,1.175,1.427c3.148-0.054,5.446-0.239,9.412-0.239c2.44,0,9.797,0.254,13.166,0.254
			c3.295,0,3.809-3.331,2.43-3.633c-6.185-1.353-10.845-3.219-12.825-4.998C177.376,408.761,176.91,408.588,176.43,408.588z"/>
		<path style="fill:#263238;" d="M246.478,399.524l-8.466,2.272c-0.317,0.085-0.532,0.379-0.518,0.707l0.318,7.302
			c0.033,0.757,0.757,1.288,1.485,1.08c3.04-0.872,7.405-2.235,11.243-3.265c4.488-1.205,6.407-1.597,11.67-3.009
			c3.182-0.854,3.202-4.309,1.792-4.243c-6.421,0.301-9.388,1.085-15.496-0.74C247.844,399.428,247.147,399.344,246.478,399.524z"/>
		<path style="fill:#FFC3BD;" d="M214.91,163.231l8.542,14.436l4.283,7.2c1.449,2.378,2.883,4.756,4.352,7.095
			c0.207,0.344,0.38,0.571,0.42,0.642c0.046,0.077-0.135-0.065-0.602-0.127c-0.464-0.089-0.979,0.095-1.021,0.159
			c-0.077,0.076,0.126,0.024,0.393-0.17c0.554-0.394,1.322-1.207,2.03-2.116c0.718-0.926,1.409-1.984,2.083-3.088
			c1.356-2.212,2.604-4.626,3.804-7.085c1.221-2.442,2.351-5.02,3.451-7.497l5.799,1.643c-1.055,5.837-2.489,11.422-4.895,17.099
			c-0.612,1.418-1.308,2.833-2.145,4.274c-0.862,1.441-1.812,2.91-3.374,4.405c-0.792,0.74-1.76,1.517-3.143,2.144
			c-1.337,0.637-3.322,0.997-5.174,0.628c-1.859-0.357-3.288-1.26-4.304-2.108c-1.026-0.862-1.751-1.742-2.358-2.554
			c-3.488-4.65-6.748-9.387-9.849-14.208c-3.114-4.826-6.053-9.688-8.859-14.742L214.91,163.231z"/>
		<g>
			<path style="fill:#407BFF;" d="M200.616,164.271c-1.721,7.479,14.685,26.607,14.685,26.607l14.745-10.784
				c0,0-5.118-9.954-11.703-17.384C211.581,155.081,202.505,156.064,200.616,164.271z"/>
			<path style="opacity:0.4;" d="M200.616,164.271c-1.721,7.479,14.685,26.607,14.685,26.607l14.745-10.784
				c0,0-5.118-9.954-11.703-17.384C211.581,155.081,202.505,156.064,200.616,164.271z"/>
		</g>
		<polygon style="opacity:0.2;" points="244.016,381.906 245.438,391.445 237.683,393.526 236.261,383.987 		"/>
		<polygon style="opacity:0.2;" points="173.583,390.934 181.613,390.934 178.385,400.516 170.355,400.516 		"/>
		<g>
			<path style="fill:#407BFF;" d="M164.705,163.155c10.45,29.92,10.64,62.33,11.81,68.82c6.24-0.83,29.74-4,42.55-5.73
				c2.88-45.94-9.74-68.7-9.74-68.7s-2.78-0.37-6.54-0.53c-1.18-0.05-2.45-0.08-3.77-0.07c-0.73,0-1.47,0.02-2.22,0.05
				c-4.84,0.21-12.69,1.45-18.09,2.44c-1.13,0.21-2.28,0.45-3.39,0.7c-1.03,0.24-2.04,0.49-2.99,0.74
				C168.014,162.005,164.705,163.155,164.705,163.155z"/>
			<path style="opacity:0.4;" d="M164.705,163.155c10.45,29.92,10.64,62.33,11.81,68.82c6.24-0.83,29.74-4,42.55-5.73
				c2.88-45.94-9.74-68.7-9.74-68.7s-2.78-0.37-6.54-0.53c-1.18-0.05-2.45-0.08-3.77-0.07c-0.73,0-1.47,0.02-2.22,0.05
				c-4.84,0.21-12.69,1.45-18.09,2.44c-1.13,0.21-2.28,0.45-3.39,0.7c-1.03,0.24-2.04,0.49-2.99,0.74
				C168.014,162.005,164.705,163.155,164.705,163.155z"/>
		</g>
		<path style="opacity:0.2;" d="M174.488,176.935c1.69,4.51,0.37,17-1.48,21.26c-0.66-4.46-1.47-9.14-2.49-13.939L174.488,176.935z"
			/>
		<path style="fill:#FFC3BD;" d="M246.755,176.683l7.2-5.021l-8.359-5.937c0,0-4.811,2.906-3.268,8.544L246.755,176.683z"/>
		<polygon style="fill:#FFC3BD;" points="257.903,167.693 250.402,162.927 245.596,165.725 253.955,171.662 		"/>
		<path style="fill:#FFC3BD;" d="M177.755,138.826c1.925,5.666,4.501,16.175,0.953,20.607c3.587,2.718,8.211,5.793,15.154,5.104
			c6.943-0.688,5.095-5.279,2.932-7.541c-6.698-0.675-7.18-5.513-6.659-10.187L177.755,138.826z"/>
		<path style="opacity:0.2;" d="M182.803,142.084l7.327,4.721c-0.127,1.107-0.192,2.22-0.125,3.285
			c-2.527-0.024-5.91-1.692-7.255-4.282C181.912,144.197,182.19,142.364,182.803,142.084z"/>
		<path style="fill:#263238;" d="M193.115,120.938l2.3,11.745C201.031,120.938,193.115,120.938,193.115,120.938z"/>
		<path style="fill:#FFC3BD;" d="M174.44,130.703c2.08,7.69,2.906,12.296,7.662,15.485c7.153,4.796,16.033-0.747,16.293-8.904
			c0.234-7.342-3.207-18.684-11.468-20.215C178.788,115.56,172.36,123.013,174.44,130.703z"/>
		<path style="fill:#263238;" d="M174.045,134.975c-3.223-3.222-6.889-9.889-4.001-11.833c-1.889-2.889,0.426-6.857,7.71-8.531
			c7.285-1.674,17.484-0.79,20.29,0.586c1.965,0.964-3.833,2.5-3.833,2.5s6.5,0.056,6.389,2.611c-0.111,2.556-22.5,3.407-22.5,3.407
			S183.197,130.559,174.045,134.975z"/>
		<path style="fill:#263238;" d="M171.447,123.422c0.759-0.64-0.565-1.515-2.331-1.025c-1.767,0.49-2.335-0.832-2.335-0.832
			s0.016,2.081,1.827,1.65C169.716,122.952,170.325,124.367,171.447,123.422z"/>
		<path style="fill:#FFC3BD;" d="M172.13,138.737c1.473,1.563,3.531,2.301,5.296,2.325c2.655,0.036,3.305-2.502,2.001-4.653
			c-1.174-1.936-3.971-4.288-6.363-3.294C170.706,134.093,170.446,136.949,172.13,138.737z"/>
		<path style="fill:#263238;" d="M248.307,388.593l-13.128,3.517c0,0-12.49-46.254-16.434-70.953
			c-1.201-7.513-3.878-17.913-7.117-29.018c-4.087-13.991-9.055-29.084-13.088-40.894c-4.253-12.438-7.447-21.229-7.447-21.229
			l27.971-3.768c0,0,20.052,61.038,22.454,85.418C244.02,337.016,248.307,388.593,248.307,388.593z"/>
		<path style="opacity:0.2;" d="M211.628,292.139c-4.087-13.991-9.055-29.084-13.088-40.894l2.512-6.467
			C208.555,252.612,212.08,278.126,211.628,292.139z"/>
		<path style="fill:#263238;" d="M205.717,228.047c0,0-0.361,69.008-2.247,92.452c-2.066,25.672-20.731,77.12-20.731,77.12h-14.702
			c0,0,9.232-47.001,12.24-71.931c3.427-28.399-3.759-93.704-3.759-93.704L205.717,228.047z"/>
		<polygon style="fill:#407BFF;" points="183.921,398.749 166.609,398.749 166.609,393.577 185.961,393.241 		"/>
		<polygon style="fill:#407BFF;" points="249.349,388.748 233.706,392.947 232.35,387.893 248.886,383.183 		"/>
		<path style="fill:#263238;" d="M185.914,130.451c0.13,0.634,0.572,1.079,0.987,0.994c0.414-0.085,0.645-0.669,0.514-1.303
			c-0.131-0.634-0.572-1.079-0.987-0.994C186.014,129.234,185.783,129.817,185.914,130.451z"/>
		<path style="fill:#263238;" d="M193.082,128.977c0.13,0.634,0.572,1.079,0.987,0.994c0.414-0.085,0.645-0.668,0.514-1.303
			c-0.13-0.634-0.572-1.079-0.987-0.994C193.182,127.759,192.951,128.342,193.082,128.977z"/>
		<path style="fill:#ED847E;" d="M191.655,129.761c0,0,2.194,3.362,4.145,4.801c-0.907,1.278-2.913,1.192-2.913,1.192
			L191.655,129.761z"/>
		<path style="fill:#263238;" d="M190.563,137.999c-2.479,0.171-3.943-1.274-4.01-1.342c-0.074-0.074-0.073-0.195,0.001-0.268
			c0.074-0.074,0.195-0.073,0.269,0.001c0.017,0.017,1.725,1.692,4.5,1.122c0.103-0.021,0.203,0.045,0.224,0.148
			c0.021,0.103-0.045,0.203-0.148,0.224C191.109,137.944,190.83,137.981,190.563,137.999z"/>
		<path style="fill:#263238;" d="M184.015,128.59c-0.063,0.004-0.128-0.007-0.189-0.036c-0.19-0.09-0.27-0.317-0.18-0.507
			c0.905-1.899,2.642-2.151,2.716-2.161c0.208-0.028,0.399,0.118,0.427,0.327c0.028,0.207-0.118,0.398-0.325,0.427l0,0
			c-0.057,0.008-1.41,0.219-2.132,1.735C184.271,128.503,184.147,128.581,184.015,128.59z"/>
		<path style="fill:#263238;" d="M196.45,125.876c-0.123,0.008-0.247-0.043-0.328-0.148c-1.023-1.331-2.389-1.255-2.447-1.251
			c-0.209,0.014-0.391-0.143-0.406-0.352c-0.015-0.209,0.14-0.39,0.349-0.407c0.076-0.004,1.826-0.121,3.107,1.547
			c0.128,0.167,0.097,0.405-0.07,0.533C196.594,125.845,196.522,125.871,196.45,125.876z"/>
		<g>
			<path style="fill:#407BFF;" d="M179.085,409.991c-0.742,0-1.543-0.154-2.1-0.289c-0.074-0.018-0.131-0.079-0.143-0.154
				c-0.012-0.076,0.022-0.151,0.087-0.192c0.292-0.183,2.882-1.773,3.769-1.317c0.138,0.071,0.306,0.222,0.326,0.538
				c0.027,0.425-0.106,0.763-0.393,1.005C180.267,409.886,179.696,409.991,179.085,409.991z M177.536,409.435
				c1.363,0.273,2.411,0.224,2.85-0.145c0.193-0.162,0.277-0.387,0.258-0.69c-0.009-0.148-0.069-0.197-0.12-0.223
				C180.063,408.14,178.588,408.826,177.536,409.435z"/>
			<path style="fill:#407BFF;" d="M177.029,409.707c-0.036,0-0.072-0.01-0.104-0.031c-0.058-0.038-0.091-0.105-0.086-0.174
				c0.008-0.098,0.2-2.414,1.132-3.176c0.243-0.198,0.516-0.281,0.81-0.245c0,0,0,0,0,0c0.454,0.056,0.574,0.336,0.605,0.498
				c0.17,0.895-1.436,2.653-2.267,3.104C177.092,409.7,177.06,409.707,177.029,409.707z M178.649,406.454
				c-0.156,0-0.3,0.055-0.437,0.167c-0.598,0.488-0.854,1.838-0.948,2.515c0.826-0.627,1.849-1.956,1.748-2.484
				c-0.009-0.048-0.031-0.161-0.277-0.192l0,0C178.706,406.456,178.678,406.454,178.649,406.454z"/>
			<path style="fill:#407BFF;" d="M247.528,400.39c-0.07-0.005-0.133-0.049-0.161-0.115c-0.032-0.074-0.013-0.16,0.047-0.215
				c0.303-0.277,2.996-2.693,4.078-2.421c0.209,0.052,0.359,0.193,0.434,0.407c0,0,0,0,0,0c0.126,0.358,0.091,0.69-0.105,0.986
				c-0.648,0.981-2.952,1.272-4.268,1.358C247.545,400.391,247.536,400.391,247.528,400.39z M251.324,397.996
				c-0.639-0.046-2.156,1.052-3.228,1.969c1.788-0.175,3.044-0.592,3.408-1.142c0.128-0.194,0.148-0.406,0.063-0.65
				c-0.033-0.094-0.084-0.143-0.168-0.165C251.376,398.002,251.351,397.998,251.324,397.996z"/>
			<path style="fill:#407BFF;" d="M247.528,400.39c-0.018-0.001-0.036-0.005-0.053-0.012c-0.063-0.024-0.109-0.079-0.121-0.146
				c-0.015-0.091-0.367-2.235,0.402-3.309c0.235-0.328,0.549-0.526,0.934-0.588l0,0c0.519-0.084,0.733,0.133,0.822,0.329
				c0.377,0.839-1.027,3.013-1.85,3.684C247.624,400.379,247.576,400.394,247.528,400.39z M248.949,396.698
				c-0.052-0.004-0.117-0.001-0.198,0.012l0,0c-0.285,0.046-0.51,0.188-0.686,0.434c-0.505,0.706-0.446,2.029-0.382,2.665
				c0.801-0.83,1.708-2.486,1.481-2.989C249.151,396.789,249.115,396.71,248.949,396.698z M248.72,396.522l0.005,0L248.72,396.522z"
				/>
		</g>
		<g>
			<path style="fill:#FFC3BD;" d="M174.523,171.833c-0.962,5.089-1.988,10.236-3.015,15.34c-1.043,5.109-2.066,10.214-3.049,15.293
				l-0.357,1.902l-0.089,0.476c-0.028,0.14-0.071,0.409-0.055,0.244c-0.017-0.095,0.009-0.422-0.144-0.936
				c-0.132-0.505-0.56-1.263-1.098-1.719c-0.527-0.464-0.965-0.616-1.189-0.667c-0.465-0.076-0.231,0.046,0.053,0.055
				c0.646,0.053,1.749-0.091,2.833-0.301c1.107-0.2,2.278-0.489,3.457-0.813c4.744-1.297,9.678-3.1,14.535-4.778l2.848,5.311
				c-2.236,1.623-4.486,3.059-6.839,4.442c-2.346,1.38-4.761,2.664-7.331,3.829c-1.292,0.573-2.616,1.122-4.046,1.614
				c-1.451,0.473-2.929,0.918-4.911,1.122c-1.023,0.066-2.129,0.166-3.852-0.31c-0.847-0.251-1.889-0.699-2.902-1.61
				c-1.025-0.902-1.782-2.26-2.074-3.4c-0.313-1.15-0.322-2.146-0.259-2.893l0.123-1.234l0.212-2.001
				c0.6-5.318,1.359-10.581,2.223-15.815c0.876-5.24,1.858-10.418,3.013-15.632L174.523,171.833z"/>
			<g>
				<path style="fill:#407BFF;" d="M162.001,165.125c-5.24,5.607-5.712,22.839-5.712,22.839l15.178,7.146
					c0,0,4.916-10.941,5.076-20.859C176.723,163.011,167.277,159.48,162.001,165.125z"/>
				<path style="opacity:0.4;" d="M162.001,165.125c-5.24,5.607-5.712,22.839-5.712,22.839l15.178,7.146
					c0,0,4.916-10.941,5.076-20.859C176.723,163.011,167.277,159.48,162.001,165.125z"/>
			</g>
			<path style="fill:#FFC3BD;" d="M185.796,196.078l7.105-3.989l0.832,10.219c0,0-6.803,2.053-8.293-1.43L185.796,196.078z"/>
			<polygon style="fill:#FFC3BD;" points="200.26,192.089 202.989,197.499 193.734,202.308 192.902,192.089 			"/>
		</g>
	</g>
</g>
<g id="Character_2">
	<g>
		<path style="fill:#7F3E3B;" d="M293.374,198.538c0.038,0.757,0.042,1.252,0.04,1.855c-0.013,0.576-0.04,1.144-0.074,1.711
			c-0.075,1.132-0.186,2.257-0.348,3.378c-0.341,2.24-0.869,4.469-1.634,6.661c-0.755,2.192-1.781,4.338-3.072,6.367
			c-0.337,0.501-0.671,1.001-1.044,1.482c-0.184,0.242-0.362,0.485-0.561,0.718l-0.673,0.801c-0.477,0.571-1.52,1.47-2.989,1.73
			c-0.706,0.128-1.423,0.088-1.994-0.046c-0.558-0.127-1.039-0.335-1.374-0.521c-0.726-0.4-1.143-0.783-1.49-1.121
			c-0.36-0.35-0.606-0.659-0.842-0.964c-0.892-1.199-1.417-2.233-1.927-3.267c-0.496-1.031-0.928-2.031-1.314-3.039
			c-0.77-2.01-1.447-3.993-2.039-5.994c-1.208-3.994-2.167-7.984-2.947-12.072l4.322-1.287c1.585,3.686,3.201,7.409,4.837,11.027
			c0.837,1.802,1.665,3.596,2.56,5.292c0.452,0.842,0.892,1.678,1.358,2.437c0.453,0.752,0.96,1.48,1.338,1.869
			c0.086,0.087,0.172,0.165,0.185,0.16c0.018,0.013,0-0.046-0.275-0.211c-0.115-0.06-0.353-0.182-0.665-0.251
			c-0.323-0.078-0.782-0.112-1.239-0.028c-0.968,0.164-1.569,0.751-1.731,0.927c-0.1,0.126-0.006-0.001,0.005-0.022l0.085-0.127
			l0.17-0.253c0.117-0.165,0.22-0.345,0.327-0.519c0.219-0.344,0.411-0.714,0.609-1.077c0.778-1.469,1.39-3.069,1.871-4.747
			c0.476-1.678,0.828-3.43,1.059-5.213c0.124-0.889,0.22-1.787,0.281-2.682c0.028-0.447,0.051-0.893,0.062-1.333
			c0.021-0.412,0.029-0.933,0.03-1.191L293.374,198.538z"/>
		<path style="fill:#263238;" d="M289.165,188.627c-8.108,6.207-7.782,17.903-7.782,17.903l14.502,3.467
			c0,0,4.449-11.76,2.645-16.066C296.646,189.438,293.728,185.134,289.165,188.627z"/>
		<path style="opacity:0.2;" d="M294.019,197.2c-1.69,1.63-3.7,6.77-4.18,11.35l6.05,1.45c0,0,2.79-7.39,3.05-12.6
			C298.072,196.09,296.197,195.292,294.019,197.2z"/>
		<path style="fill:#7F3E3B;" d="M274.822,192.952l-4.484-4.942l-4.595,6.172c0,0,3.43,4.659,8.179,3.538L274.822,192.952z"/>
		<polygon style="fill:#7F3E3B;" points="266.637,184.062 263.831,186.541 265.744,194.182 270.339,188.01 		"/>
		<polygon style="fill:#7F3E3B;" points="330.729,409.297 322.462,410.094 316.701,390.682 324.968,389.885 		"/>
		<polygon style="fill:#7F3E3B;" points="388.69,380.599 382.565,386.35 369.34,371.817 375.466,366.065 		"/>
		<path style="fill:#263238;" d="M380.736,384.425l4.603-8.294c0.168-0.302,0.513-0.43,0.831-0.309l7.086,2.697
			c0.735,0.28,1.054,1.223,0.656,1.912c-1.655,2.864-2.598,4.163-4.622,7.81c-1.245,2.244-3.67,7.39-5.39,10.488
			c-1.682,3.031-4.875,1.563-4.437,0.119c1.967-6.476,1.597-10.081,1.042-12.938C380.405,385.396,380.491,384.867,380.736,384.425z"
			/>
		<path style="fill:#263238;" d="M321.02,407.574l10.016,0c0.364,0,0.693,0.253,0.791,0.609l2.178,7.925
			c0.226,0.822-0.379,1.578-1.222,1.586c-3.53,0.032-5.203,0.016-9.608,0.016c-2.71,0-9.72,0-13.462,0
			c-3.66,0-4.426-3.7-2.911-4.035c6.79-1.503,10.704-3.575,12.799-5.552C319.979,407.766,320.486,407.574,321.02,407.574z"/>
		<polygon style="opacity:0.2;" points="316.704,390.688 319.672,400.694 328.18,400.694 324.975,389.89 		"/>
		<polygon style="opacity:0.2;" points="375.471,366.068 369.343,371.822 376.162,379.31 382.29,373.557 		"/>
		<path style="fill:#263238;" d="M291.613,187.425c0,0-3.665,1.613,8.63,50.275c13.556-1.173,27.566-2.384,34.163-2.955
			c-1.776-13.854-2.534-22.427,1.644-51.536c0,0-7.293-0.938-14.672-0.657c-5.773,0.22-10.499,0.444-15.513,1.342
			C299.255,185.079,291.613,187.425,291.613,187.425z"/>
		<path style="opacity:0.2;" d="M330.409,196.09c-1.47,3.12-0.92,13.56,2.61,17.21c0.11-4.21,0.45-9.05,1.1-15.03
			C333.199,197.01,331.979,196.18,330.409,196.09z"/>
		<path style="fill:#FFFFFF;" d="M309.503,194.156c-0.064,0.722-0.376,1.284-0.697,1.256c-0.321-0.029-0.529-0.637-0.465-1.359
			c0.064-0.722,0.376-1.284,0.697-1.256S309.567,193.434,309.503,194.156z"/>
		<path style="fill:#FFFFFF;" d="M320.767,181.972l-11.253,8.083c0,0,3.971,4.08,5.754,9.62
			C322.663,193.597,328.434,183.75,320.767,181.972z"/>
		<path style="fill:#FFFFFF;" d="M306.51,183.333c-5.875,1.5-6.504,10.343-2.449,14.964c1.582-5.704,4.722-7.899,4.722-7.899
			L306.51,183.333z"/>
		<path style="fill:#263238;" d="M299.322,147.223c-2.25-0.208-2.917,1.902-2.208,3.996c1.033,3.054-2.498,8.963-5.708,12.504
			c-4.667,5.149,3.796,15.388,13.88,11.861c11.655-4.077,18.594,7.276,25.181-1.583c4.742-6.378-2.764-11.985-0.727-20.544
			c1.219-5.119-1.03-12.221-8.91-11.79c-7.338,0.402-9.16-7.861-16.285-5.611S299.322,147.223,299.322,147.223z"/>
		<path style="fill:#7F3E3B;" d="M318.33,165.218c-0.547,5.076-0.732,14.306,3.048,17.334c0,0-4.038,4.121-12.203,8.67
			c-5.94-4.105-3.31-7.328-3.31-7.328c5.451-1.811,4.95-5.928,3.645-9.722L318.33,165.218z"/>
		<path style="opacity:0.2;" d="M314.735,168.872l-5.22,5.296c0.312,0.898,0.573,1.813,0.716,2.712
			c2.1-0.491,5.139-2.673,5.173-4.919C315.42,170.841,314.961,169.373,314.735,168.872z"/>
		<path style="fill:#7F3E3B;" d="M322.795,157.288c-2.117,8.107-2.84,11.584-7.813,14.982c-7.48,5.11-16.975,0.737-17.323-7.84
			c-0.313-7.72,3.202-19.681,11.877-21.368C318.083,141.4,324.913,149.18,322.795,157.288z"/>
		<path style="fill:#263238;" d="M303.78,144.583c-5.347,3.639,7.259,7.159,10.875,7.159c-1.25-0.784-2.196-2.992-2.196-2.992
			s5.363,3.217,5.252,6.191c-0.086,2.293-0.847,7.267,3.153,6.726c4-0.542,5.727-10.833,2.967-14.042
			C321.072,144.417,312.368,138.739,303.78,144.583z"/>
		<path style="fill:#7F3E3B;" d="M323.465,164.164c-0.797,1.543-2.233,2.574-3.6,2.986c-2.056,0.619-3.127-1.21-2.591-3.173
			c0.482-1.767,2.133-4.218,4.214-3.977C323.538,160.237,324.377,162.4,323.465,164.164z"/>
		<path style="fill:#407BFF;" d="M300.244,237.7c0,0-11.559,51.131-3.843,87.179c5.168,24.143,19.689,72.914,19.689,72.914
			l14.571-0.375c0,0-9.992-51.182-12.909-71.31c-4.989-34.431,7.508-90.572,7.508-90.572L300.244,237.7z"/>
		<path style="opacity:0.2;" d="M313.572,248.024l7.286,11.491c-1.854,11.915-3.698,26.819-4.169,41.16
			C306.443,282.332,311.294,257.736,313.572,248.024z"/>
		<polygon style="fill:#263238;" points="314.036,398.548 332.036,398.089 330.995,392.558 312.629,393.429 		"/>
		<path style="fill:#407BFF;" d="M307.713,237.155c0,0,6.781,54.225,21.479,83.829c11.872,23.911,43.552,57.95,43.552,57.95
			l8.1-8.344c0,0-21.398-36.993-30.222-52.877c-21.635-38.948-3.954-68.668-16.216-82.968L307.713,237.155z"/>
		<polygon style="fill:#263238;" points="371.924,380.051 382.377,369.862 378.909,365.144 367.824,376.208 		"/>
		<g>
			<path style="fill:#407BFF;" d="M334.744,232.696l1.805,2.925c0.14,0.227-0.12,0.493-0.515,0.527l-35.827,3.099
				c-0.308,0.027-0.576-0.102-0.612-0.294l-0.573-3.031c-0.04-0.21,0.212-0.412,0.549-0.441l34.595-2.992
				C334.42,232.466,334.654,232.55,334.744,232.696z"/>
			<path style="opacity:0.3;fill:#FFFFFF;" d="M334.744,232.696l1.805,2.925c0.14,0.227-0.12,0.493-0.515,0.527l-35.827,3.099
				c-0.308,0.027-0.576-0.102-0.612-0.294l-0.573-3.031c-0.04-0.21,0.212-0.412,0.549-0.441l34.595-2.992
				C334.42,232.466,334.654,232.55,334.744,232.696z"/>
		</g>
		<path style="fill:#407BFF;" d="M330.433,236.966l0.927-0.08c0.184-0.016,0.317-0.123,0.294-0.238l-0.778-3.935
			c-0.023-0.115-0.192-0.196-0.377-0.18l-0.926,0.08c-0.185,0.016-0.317,0.123-0.294,0.239l0.778,3.935
			C330.079,236.901,330.248,236.982,330.433,236.966z"/>
		<path style="fill:#407BFF;" d="M302.84,239.353l0.926-0.08c0.185-0.016,0.317-0.123,0.294-0.238l-0.778-3.935
			c-0.023-0.115-0.192-0.196-0.377-0.18l-0.926,0.08c-0.185,0.016-0.317,0.123-0.294,0.238l0.778,3.935
			C302.486,239.287,302.655,239.369,302.84,239.353z"/>
		<path style="fill:#407BFF;" d="M316.636,238.159l0.927-0.08c0.185-0.016,0.317-0.123,0.294-0.238l-0.778-3.935
			c-0.023-0.115-0.192-0.196-0.377-0.18l-0.927,0.08c-0.185,0.016-0.317,0.123-0.294,0.238l0.778,3.935
			C316.282,238.094,316.452,238.175,316.636,238.159z"/>
		<path style="fill:#263238;" d="M309.071,157.01c-0.131,0.668-0.592,1.14-1.029,1.054c-0.437-0.086-0.684-0.697-0.553-1.365
			c0.131-0.668,0.592-1.14,1.029-1.054C308.954,155.73,309.202,156.342,309.071,157.01z"/>
		<path style="fill:#263238;" d="M301.518,155.525c-0.131,0.668-0.592,1.14-1.029,1.054c-0.437-0.086-0.684-0.697-0.553-1.365
			c0.131-0.668,0.592-1.14,1.029-1.054C301.401,154.245,301.649,154.857,301.518,155.525z"/>
		<path style="fill:#263238;" d="M301.15,154.234l-1.514-0.778C299.636,153.456,300.213,154.872,301.15,154.234z"/>
		<path style="fill:#630F0F;" d="M304.114,157.19c0,0-1.699,2.654-3.22,3.796c0.72,0.997,2.294,0.915,2.294,0.915L304.114,157.19z"
			/>
		<path style="fill:#263238;" d="M306.277,165.087c2.366,0,3.741-1.381,3.807-1.449c0.064-0.066,0.063-0.171-0.003-0.235
			c-0.065-0.064-0.17-0.063-0.235,0.003c-0.018,0.018-1.814,1.81-4.753,1.23c-0.094-0.02-0.178,0.042-0.195,0.131
			c-0.018,0.09,0.041,0.178,0.131,0.195C305.471,165.05,305.888,165.087,306.277,165.087z"/>
		<path style="fill:#263238;" d="M313.608,154.419c0.058,0,0.117-0.016,0.172-0.048c0.157-0.095,0.207-0.299,0.112-0.457
			c-1.126-1.862-2.935-1.944-3.011-1.947c-0.194,0.007-0.336,0.137-0.342,0.32c-0.007,0.183,0.136,0.337,0.319,0.345
			c0.063,0.002,1.533,0.082,2.466,1.627C313.385,154.361,313.495,154.419,313.608,154.419z"/>
		<path style="fill:#263238;" d="M299.421,151.742c0.055,0,0.11-0.014,0.161-0.042c1.59-0.888,2.934-0.201,2.947-0.194
			c0.163,0.086,0.364,0.022,0.449-0.14c0.085-0.162,0.023-0.363-0.139-0.449c-0.068-0.036-1.681-0.86-3.58,0.202
			c-0.16,0.09-0.218,0.292-0.128,0.452C299.191,151.681,299.304,151.742,299.421,151.742z"/>
		<path style="fill:#7F3E3B;" d="M338.997,191.376c2.177,3.916,4.084,7.81,5.778,11.983c0.847,2.086,1.622,4.213,2.262,6.552
			c0.317,1.185,0.606,2.395,0.741,3.905c0.056,0.766,0.11,1.606-0.114,2.82l-0.112,0.48c-0.052,0.181-0.11,0.361-0.172,0.538
			c-0.069,0.189-0.163,0.4-0.255,0.593c-0.092,0.189-0.127,0.234-0.195,0.357c-0.235,0.417-0.514,0.829-0.828,1.214
			c-1.256,1.587-3.078,2.585-4.664,3.008c-1.608,0.446-3.068,0.502-4.407,0.438c-2.679-0.162-4.989-0.795-7.197-1.539
			c-4.404-1.532-8.292-3.596-12.087-6.069l2.12-3.98c3.843,1.429,7.907,2.717,11.768,3.512c1.926,0.382,3.857,0.624,5.477,0.524
			c0.803-0.036,1.509-0.185,1.951-0.382c0.456-0.21,0.552-0.38,0.607-0.505c0.017-0.036,0.032-0.076,0.048-0.133
			c-0.005,0.005,0.033-0.064-0.006,0.002c-0.041,0.069-0.076,0.159-0.101,0.222c-0.023,0.049-0.042,0.1-0.055,0.153
			c-0.013,0.033-0.023,0.057-0.029,0.087c-0.044,0.154-0.033-0.091-0.099-0.388c-0.119-0.622-0.37-1.498-0.664-2.368
			c-0.608-1.769-1.419-3.637-2.256-5.497c-1.706-3.708-3.615-7.513-5.497-11.159L338.997,191.376z"/>
		<path style="fill:#7F3E3B;" d="M321.336,213.194l-3.333-6.763l-4.554,5.872c0,0,2.786,4.097,6.293,3.96L321.336,213.194z"/>
		<polygon style="fill:#7F3E3B;" points="314.403,204.479 310.081,209.249 313.45,212.303 318.004,206.43 		"/>
		<path style="fill:#263238;" d="M336.05,183.209c4.188,0.74,11.05,15.735,11.05,15.735L333.6,208c0,0-6.448-11.648-6-17.105
			C327.981,186.262,330.716,182.266,336.05,183.209z"/>
		<path style="fill:#407BFF;" d="M379.121,388.884c0.109,0,0.218-0.019,0.326-0.055c1.002-0.338,1.659-2.192,1.961-3.267
			c0.018-0.064-0.004-0.132-0.055-0.174c-0.052-0.042-0.123-0.049-0.182-0.018c-0.305,0.16-2.981,1.591-3.069,2.647
			c-0.013,0.161,0.026,0.395,0.286,0.591C378.631,388.791,378.877,388.884,379.121,388.884z M380.974,385.857
			c-0.464,1.483-1.064,2.465-1.633,2.657c-0.246,0.082-0.491,0.026-0.752-0.171c-0.151-0.114-0.16-0.224-0.154-0.298
			C378.488,387.396,380.056,386.378,380.974,385.857z"/>
		<path style="fill:#407BFF;" d="M378.708,386.275c0.95,0,2.115-0.303,2.627-0.616c0.05-0.031,0.081-0.086,0.079-0.145
			c-0.001-0.059-0.034-0.113-0.086-0.142c-0.089-0.05-2.209-1.215-3.349-0.81c-0.298,0.105-0.508,0.304-0.625,0.591
			c-0.181,0.447,0.017,0.707,0.152,0.821C377.76,386.19,378.204,386.275,378.708,386.275z M380.882,385.516
			c-0.907,0.386-2.664,0.624-3.161,0.205c-0.083-0.07-0.164-0.184-0.059-0.443c0.08-0.198,0.22-0.33,0.427-0.402
			C378.867,384.599,380.28,385.22,380.882,385.516z"/>
		<path style="fill:#407BFF;" d="M316.576,409.194c0.962,0,2.008-0.186,2.734-0.347c0.069-0.016,0.121-0.074,0.129-0.144
			c0.008-0.071-0.03-0.139-0.095-0.169c-0.412-0.194-4.045-1.873-4.961-1.253c-0.117,0.079-0.253,0.232-0.237,0.514
			c0.022,0.391,0.189,0.706,0.495,0.937C315.096,409.076,315.809,409.194,316.576,409.194z M318.738,408.625
			c-1.079,0.202-3.074,0.464-3.896-0.157c-0.228-0.173-0.346-0.399-0.363-0.691c-0.008-0.135,0.045-0.189,0.091-0.22
			C315.082,407.209,317.23,407.961,318.738,408.625z"/>
		<path style="fill:#407BFF;" d="M319.274,408.851c0.038,0,0.077-0.014,0.107-0.04c0.047-0.04,0.068-0.103,0.055-0.164
			c-0.035-0.153-0.859-3.736-2.831-3.508c-0.494,0.059-0.629,0.304-0.655,0.499c-0.123,0.912,2.168,2.752,3.262,3.199
			C319.231,408.847,319.252,408.851,319.274,408.851z M316.783,405.462c1.26,0,1.994,2.085,2.238,2.921
			c-1.184-0.62-2.821-2.115-2.742-2.698c0.006-0.043,0.023-0.173,0.366-0.214C316.691,405.465,316.738,405.462,316.783,405.462z"/>
		<path style="fill:#263238;" d="M308.703,155.719l-1.514-0.778C307.189,154.941,307.766,156.357,308.703,155.719z"/>
	</g>
</g>
<g id="Infinity_symbol">
	<g>
		<path style="fill:#407BFF;" d="M253.852,125.847l-0.574-0.818c2.588-1.816,5.247-3.539,7.902-5.121l0.512,0.859
			C259.058,122.336,256.42,124.045,253.852,125.847z M219.237,91.209c-1.244-0.737-2.511-1.441-3.768-2.094l0.461-0.888
			c1.273,0.662,2.557,1.375,3.816,2.121L219.237,91.209z M212.443,87.625c-5.1-2.368-10.428-4.129-15.838-5.234l0.2-0.979
			c5.486,1.12,10.889,2.906,16.059,5.307L212.443,87.625z"/>
		<path style="fill:#407BFF;" d="M322.345,110.621c-29.562-6.038-55.839,8.923-69.664,19.151
			c-8.708-14.829-27.014-38.894-56.577-44.931h-0.001c-26.308-5.372-52.073,11.659-57.445,37.962
			c-2.602,12.742-0.086,25.735,7.083,36.585c7.17,10.85,18.136,18.258,30.878,20.86c4.71,0.962,9.335,1.391,13.841,1.391
			c23.776,0,44.2-11.942,55.823-20.54c8.708,14.829,27.014,38.893,56.577,44.93c3.273,0.669,6.538,0.99,9.756,0.99
			c22.645,0,42.986-15.921,47.689-38.952C365.678,141.762,348.648,115.992,322.345,110.621z M180.623,160.652
			c-7.508-1.533-13.969-5.898-18.194-12.292c-4.225-6.393-5.707-14.048-4.174-21.556c2.771-13.571,14.756-22.951,28.1-22.951
			c1.896,0,3.82,0.19,5.749,0.583h-0.001c23.968,4.895,38.929,27.336,45.001,38.469
			C227.144,150.774,204.591,165.547,180.623,160.652z M340.711,164.064c-3.165,15.499-18.35,25.537-33.848,22.368
			c-23.968-4.894-38.929-27.336-45.002-38.469c9.962-7.868,32.52-22.639,56.482-17.747
			C333.842,133.381,343.877,148.566,340.711,164.064z"/>
	</g>
</g>
</svg>
