<?xml version="1.0" encoding="utf-8"?>
<!-- Generator: Adobe Illustrator 27.5.0, SVG Export Plug-In . SVG Version: 6.00 Build 0)  -->
<svg version="1.1" xmlns="http://www.w3.org/2000/svg" xmlns:xlink="http://www.w3.org/1999/xlink" x="0px" y="0px"
	 viewBox="0 0 500 500" style="enable-background:new 0 0 500 500;" xml:space="preserve">
<g id="Background_Complete">
	<rect x="416.779" y="398.494" style="fill:#EBEBEB;" width="33.122" height="0.25"/>
	<rect x="322.527" y="401.208" style="fill:#EBEBEB;" width="8.693" height="0.25"/>
	<rect x="396.586" y="389.208" style="fill:#EBEBEB;" width="19.192" height="0.25"/>
	<rect x="52.459" y="390.888" style="fill:#EBEBEB;" width="43.193" height="0.25"/>
	<rect x="104.556" y="390.888" style="fill:#EBEBEB;" width="6.333" height="0.25"/>
	<rect x="131.471" y="395.111" style="fill:#EBEBEB;" width="93.676" height="0.25"/>
	<path style="fill:#EBEBEB;" d="M237.014,337.8H43.915c-3.147,0-5.708-2.561-5.708-5.708V60.66c0-3.147,2.561-5.708,5.708-5.708
		h193.099c3.146,0,5.707,2.561,5.707,5.708v271.432C242.721,335.239,240.16,337.8,237.014,337.8z M43.915,55.203
		c-3.01,0-5.458,2.448-5.458,5.458v271.432c0,3.01,2.448,5.458,5.458,5.458h193.099c3.009,0,5.457-2.448,5.457-5.458V60.66
		c0-3.009-2.448-5.458-5.457-5.458H43.915z"/>
	<path style="fill:#EBEBEB;" d="M453.31,337.8H260.212c-3.147,0-5.707-2.561-5.707-5.708V60.66c0-3.147,2.561-5.708,5.707-5.708
		H453.31c3.148,0,5.708,2.561,5.708,5.708v271.432C459.019,335.239,456.458,337.8,453.31,337.8z M260.212,55.203
		c-3.009,0-5.457,2.448-5.457,5.458v271.432c0,3.01,2.448,5.458,5.457,5.458H453.31c3.01,0,5.458-2.448,5.458-5.458V60.66
		c0-3.009-2.448-5.458-5.458-5.458H260.212z"/>
	<rect y="382.398" style="fill:#EBEBEB;" width="500" height="0.25"/>
	<g>
		<g>
			<g>
				<rect x="143.066" y="77.695" style="fill:#FAFAFA;" width="86.378" height="7.309"/>
				<rect x="147.066" y="319.855" style="fill:#FAFAFA;" width="86.378" height="7.308"/>
				<g>
					<path style="fill:#F0F0F0;" d="M140.221,85.003v174.544c1.73-1.15,3.62-2.22,5.6-3.18c0.41-0.2,0.82-0.39,1.23-0.58v0.23
						c0,0.15,0.01,0.31,0.02,0.46c0.01,0.15,0.02,0.29,0.04,0.43c0,0.03,0,0.05,0.01,0.08c0.02,0.14,0.04,0.28,0.07,0.41
						c0.03,0.14,0.06,0.28,0.1,0.42V85.003H140.221z M140.161,70.553v262.835h93.64V70.553H140.161z M226.661,77.693v248.565h-79.37
						V77.693H226.661z M140.221,85.003v174.544c1.73-1.15,3.62-2.22,5.6-3.18c0.41-0.2,0.82-0.39,1.23-0.58v0.23
						c0,0.15,0.01,0.31,0.02,0.46c0.01,0.15,0.02,0.29,0.04,0.43c0,0.03,0,0.05,0.01,0.08c0.02,0.14,0.04,0.28,0.07,0.41
						c0.03,0.14,0.06,0.28,0.1,0.42V85.003H140.221z"/>
				</g>
			</g>
			<g>
				<rect x="57.407" y="77.695" style="fill:#FAFAFA;" width="86.378" height="7.309"/>
				<rect x="54.407" y="319.855" style="fill:#FAFAFA;" width="86.378" height="7.308"/>
				<g>
					<path style="fill:#F0F0F0;" d="M53.721,70.553v262.835h93.64V70.553H53.721z M62.171,327.208V78.643l77.99-0.95h0.06v248.565
						h-0.06l-30.18,0.37l-0.85,0.01l-43.67,0.53L62.171,327.208z"/>
				</g>
			</g>
		</g>
	</g>
	<rect x="296.305" y="250" style="fill:#EBEBEB;" width="99.612" height="132.648"/>
	<g>
		<g>
			<g>
				<g>
					<polygon style="fill:#F0F0F0;" points="414.475,226.689 414.475,201.81 385.785,126.349 385.785,70.878 305.834,70.878 
						305.834,126.349 277.144,201.81 277.144,226.689 					"/>
					<g>
						<path style="fill:#F5F5F5;" d="M318.31,159.521h-11.062c-2.862,0-5.183-2.32-5.183-5.183v-6.87
							c0-2.862,2.32-5.183,5.183-5.183h11.062c2.862,0,5.183,2.32,5.183,5.183v6.87C323.492,157.201,321.172,159.521,318.31,159.521
							z"/>
						<path style="fill:#EBEBEB;" d="M333.681,179.551h-15.72c-2.862,0-5.183-2.32-5.183-5.183v-6.87
							c0-2.862,2.32-5.183,5.183-5.183h15.72c2.862,0,5.183,2.32,5.183,5.183v6.87C338.864,177.23,336.543,179.551,333.681,179.551z
							"/>
						<path style="fill:#FAFAFA;" d="M342.066,159.987h-11.062c-2.862,0-5.183-2.32-5.183-5.183v-9.665
							c0-2.862,2.32-5.183,5.183-5.183h11.062c2.862,0,5.183,2.32,5.183,5.183v9.665
							C347.248,157.667,344.928,159.987,342.066,159.987z"/>
					</g>
					<g>
						<path style="fill:#EBEBEB;" d="M395.668,203.742h11.062c2.862,0,5.183,2.32,5.183,5.183v6.87c0,2.862-2.32,5.183-5.183,5.183
							h-11.062c-2.862,0-5.183-2.32-5.183-5.183v-6.87C390.486,206.062,392.806,203.742,395.668,203.742z"/>
						<path style="fill:#FAFAFA;" d="M380.297,183.712h15.72c2.862,0,5.183,2.32,5.183,5.183v6.87c0,2.862-2.32,5.183-5.183,5.183
							h-15.72c-2.862,0-5.183-2.32-5.183-5.183v-6.87C375.114,186.033,377.435,183.712,380.297,183.712z"/>
						<path style="fill:#F0F0F0;" d="M371.912,203.276h11.062c2.862,0,5.183,2.32,5.183,5.183v9.664c0,2.862-2.32,5.183-5.183,5.183
							h-11.062c-2.862,0-5.183-2.32-5.183-5.183v-9.664C366.73,205.596,369.05,203.276,371.912,203.276z"/>
					</g>
					<g>
						<path style="fill:#F0F0F0;" d="M337.122,110.762h11.062c2.862,0,5.183,2.32,5.183,5.183v6.87c0,2.862-2.32,5.183-5.183,5.183
							h-11.062c-2.862,0-5.183-2.32-5.183-5.183v-6.87C331.939,113.082,334.26,110.762,337.122,110.762z"/>
						<path style="fill:#F5F5F5;" d="M321.75,90.732h15.72c2.862,0,5.183,2.32,5.183,5.183v6.87c0,2.862-2.32,5.183-5.183,5.183
							h-15.72c-2.862,0-5.183-2.32-5.183-5.183v-6.87C316.568,93.053,318.888,90.732,321.75,90.732z"/>
						<path style="fill:#F0F0F0;" d="M313.366,110.296h11.062c2.862,0,5.183,2.32,5.183,5.183v9.665c0,2.862-2.32,5.183-5.183,5.183
							h-11.062c-2.862,0-5.183-2.32-5.183-5.183v-9.665C308.183,112.617,310.504,110.296,313.366,110.296z"/>
					</g>
					<g>
						<path style="fill:#EBEBEB;" d="M379.1,154.366h11.062c2.862,0,5.183,2.32,5.183,5.183v6.87c0,2.862-2.32,5.183-5.183,5.183
							H379.1c-2.862,0-5.183-2.32-5.183-5.183v-6.87C373.917,156.686,376.237,154.366,379.1,154.366z"/>
						<path style="fill:#FAFAFA;" d="M363.728,134.336h15.72c2.862,0,5.183,2.32,5.183,5.183v6.87c0,2.862-2.32,5.183-5.183,5.183
							h-15.72c-2.862,0-5.183-2.32-5.183-5.183v-6.87C358.546,136.657,360.866,134.336,363.728,134.336z"/>
						<path style="fill:#F0F0F0;" d="M355.344,153.9h11.062c2.862,0,5.183,2.32,5.183,5.183v9.664c0,2.862-2.32,5.183-5.183,5.183
							h-11.062c-2.862,0-5.183-2.32-5.183-5.183v-9.664C350.161,156.22,352.481,153.9,355.344,153.9z"/>
					</g>
					<g>
						<path style="fill:#F0F0F0;" d="M325.244,203.509h11.062c2.862,0,5.183-2.32,5.183-5.183v-6.87c0-2.862-2.32-5.183-5.183-5.183
							h-11.062c-2.862,0-5.183,2.32-5.183,5.183v6.87C320.061,201.189,322.382,203.509,325.244,203.509z"/>
						<path style="fill:#EBEBEB;" d="M309.872,223.539h15.72c2.862,0,5.183-2.32,5.183-5.183v-6.87c0-2.862-2.32-5.183-5.183-5.183
							h-15.72c-2.862,0-5.183,2.32-5.183,5.183v6.87C304.69,221.218,307.01,223.539,309.872,223.539z"/>
						<path style="fill:#FAFAFA;" d="M285.821,223.539h11.062c2.862,0,5.183-2.32,5.183-5.183v-6.87c0-2.862-2.32-5.183-5.183-5.183
							h-11.062c-2.862,0-5.183,2.32-5.183,5.183v6.87C280.638,221.218,282.958,223.539,285.821,223.539z"/>
						<path style="fill:#FAFAFA;" d="M301.488,203.975h11.062c2.862,0,5.183-2.32,5.183-5.183v-9.664
							c0-2.862-2.32-5.183-5.183-5.183h-11.062c-2.862,0-5.183,2.32-5.183,5.183v9.664
							C296.305,201.654,298.626,203.975,301.488,203.975z"/>
					</g>
				</g>
				<g>
					<g>
						<g>
							<rect x="253.388" y="241.434" style="fill:#FAFAFA;" width="45.183" height="140.493"/>
							<g>
								<g>
									<path style="fill:#EBEBEB;" d="M269.633,361.898h-11.062c-2.862,0-5.183-2.32-5.183-5.183v-6.87
										c0-2.862,2.32-5.183,5.183-5.183h11.062c2.862,0,5.183,2.32,5.183,5.183v6.87
										C274.815,359.578,272.495,361.898,269.633,361.898z"/>
									<path style="fill:#F0F0F0;" d="M285.004,381.928h-15.72c-2.862,0-5.183-2.32-5.183-5.183v-6.87
										c0-2.862,2.32-5.183,5.183-5.183h15.72c2.862,0,5.183,2.32,5.183,5.183v6.87
										C290.187,379.607,287.867,381.928,285.004,381.928z"/>
									<path style="fill:#EBEBEB;" d="M293.389,362.364h-11.062c-2.862,0-5.183-2.32-5.183-5.183v-9.665
										c0-2.862,2.32-5.183,5.183-5.183h11.062c2.862,0,5.183,2.32,5.183,5.183v9.665
										C298.572,360.043,296.251,362.364,293.389,362.364z"/>
								</g>
								<g>
									<path style="fill:#F0F0F0;" d="M269.633,319.077h-11.062c-2.862,0-5.183-2.32-5.183-5.183v-6.87
										c0-2.862,2.32-5.183,5.183-5.183h11.062c2.862,0,5.183,2.32,5.183,5.183v6.87
										C274.815,316.757,272.495,319.077,269.633,319.077z"/>
									<path style="fill:#F0F0F0;" d="M285.004,339.107h-15.72c-2.862,0-5.183-2.32-5.183-5.183v-6.87
										c0-2.862,2.32-5.183,5.183-5.183h15.72c2.862,0,5.183,2.32,5.183,5.183v6.87
										C290.187,336.786,287.867,339.107,285.004,339.107z"/>
									<path style="fill:#F0F0F0;" d="M293.389,319.543h-11.062c-2.862,0-5.183-2.32-5.183-5.183v-9.665
										c0-2.862,2.32-5.183,5.183-5.183h11.062c2.862,0,5.183,2.32,5.183,5.183v9.665
										C298.572,317.222,296.251,319.543,293.389,319.543z"/>
								</g>
								<g>
									<path style="fill:#F0F0F0;" d="M282.327,276.256h11.062c2.862,0,5.183-2.32,5.183-5.183v-6.87
										c0-2.862-2.32-5.183-5.183-5.183h-11.062c-2.862,0-5.183,2.32-5.183,5.183v6.87
										C277.144,273.936,279.465,276.256,282.327,276.256z"/>
									<path style="fill:#EBEBEB;" d="M266.956,296.286h15.72c2.862,0,5.183-2.32,5.183-5.183v-6.87
										c0-2.862-2.32-5.183-5.183-5.183h-15.72c-2.862,0-5.183,2.32-5.183,5.183v6.87
										C261.773,293.965,264.093,296.286,266.956,296.286z"/>
									<path style="fill:#F0F0F0;" d="M258.571,276.722h11.062c2.862,0,5.183-2.32,5.183-5.183v-9.664
										c0-2.862-2.32-5.183-5.183-5.183h-11.062c-2.862,0-5.183,2.32-5.183,5.183v9.664
										C253.388,274.401,255.709,276.722,258.571,276.722z"/>
								</g>
							</g>
						</g>
						<g>
							
								<rect x="393.048" y="241.434" transform="matrix(-1 -1.224647e-16 1.224647e-16 -1 831.2788 623.362)" style="fill:#FAFAFA;" width="45.183" height="140.493"/>
							<g>
								<g>
									<path style="fill:#F0F0F0;" d="M421.987,276.37h11.062c2.862,0,5.183,2.32,5.183,5.183v6.87
										c0,2.862-2.32,5.183-5.183,5.183h-11.062c-2.862,0-5.183-2.32-5.183-5.183v-6.87
										C416.804,278.69,419.124,276.37,421.987,276.37z"/>
									<path style="fill:#F0F0F0;" d="M406.615,256.34h15.72c2.862,0,5.183,2.32,5.183,5.183v6.87c0,2.862-2.32,5.183-5.183,5.183
										h-15.72c-2.862,0-5.183-2.32-5.183-5.183v-6.87C401.432,258.66,403.753,256.34,406.615,256.34z"/>
									<path style="fill:#EBEBEB;" d="M398.23,275.904h11.062c2.862,0,5.183,2.32,5.183,5.183v9.664
										c0,2.862-2.32,5.183-5.183,5.183H398.23c-2.862,0-5.183-2.32-5.183-5.183v-9.664
										C393.048,278.224,395.368,275.904,398.23,275.904z"/>
								</g>
								<g>
									<path style="fill:#EBEBEB;" d="M421.987,319.191h11.062c2.862,0,5.183,2.32,5.183,5.183v6.87
										c0,2.862-2.32,5.183-5.183,5.183h-11.062c-2.862,0-5.183-2.32-5.183-5.183v-6.87
										C416.804,321.511,419.124,319.191,421.987,319.191z"/>
									<path style="fill:#EBEBEB;" d="M406.615,299.161h15.72c2.862,0,5.183,2.32,5.183,5.183v6.87
										c0,2.862-2.32,5.183-5.183,5.183h-15.72c-2.862,0-5.183-2.32-5.183-5.183v-6.87
										C401.432,301.481,403.753,299.161,406.615,299.161z"/>
									<path style="fill:#F0F0F0;" d="M398.23,318.725h11.062c2.862,0,5.183,2.32,5.183,5.183v9.664
										c0,2.862-2.32,5.183-5.183,5.183H398.23c-2.862,0-5.183-2.32-5.183-5.183v-9.664
										C393.048,321.045,395.368,318.725,398.23,318.725z"/>
								</g>
								<g>
									<path style="fill:#EBEBEB;" d="M409.292,362.012H398.23c-2.862,0-5.183,2.32-5.183,5.183v6.87
										c0,2.862,2.32,5.183,5.183,5.183h11.062c2.862,0,5.183-2.32,5.183-5.183v-6.87
										C414.475,364.332,412.155,362.012,409.292,362.012z"/>
									<path style="fill:#EBEBEB;" d="M424.664,341.982h-15.72c-2.862,0-5.183,2.32-5.183,5.183v6.87
										c0,2.862,2.32,5.183,5.183,5.183h15.72c2.862,0,5.183-2.32,5.183-5.183v-6.87
										C429.846,344.302,427.526,341.982,424.664,341.982z"/>
									<path style="fill:#F0F0F0;" d="M433.048,361.546h-11.062c-2.862,0-5.183,2.32-5.183,5.183v9.664
										c0,2.862,2.32,5.183,5.183,5.183h11.062c2.862,0,5.183-2.32,5.183-5.183v-9.664
										C438.231,363.866,435.911,361.546,433.048,361.546z"/>
								</g>
							</g>
						</g>
					</g>
					<g>
						<polygon style="fill:#F5F5F5;" points="440.523,253.832 251.096,253.832 250.164,237.643 441.455,237.643 						"/>
						<polygon style="fill:#EBEBEB;" points="442.387,240.499 249.233,240.499 247.369,232.404 444.25,232.404 						"/>
						<rect x="245.506" y="226.689" style="fill:#E0E0E0;" width="200.607" height="8.094"/>
					</g>
				</g>
			</g>
		</g>
	</g>
</g>
<g id="Background_Simple" style="display:none;">
	<g style="display:inline;">
		<path style="fill:#407BFF;" d="M358.411,373.315c37.955-13.953,69.465-45.341,81.976-83.796s5.115-83.176-20.406-114.543
			c5.463-6.849,10.262-18.995,9.556-27.728c-0.706-8.733-4.848-17.141-11.34-23.024C335.732,49.509,76.938,83.782,55.461,222.327
			c-6.076,39.199,3.097,80.94,29.361,110.666c26.264,29.726,65.298,46.955,104.881,49.524c24.536,1.593,49.758-11.526,64.886-30.908
			C289.868,376.216,338.513,380.63,358.411,373.315z"/>
		<path style="opacity:0.9;fill:#FFFFFF;" d="M358.411,373.315c37.955-13.953,69.465-45.341,81.976-83.796
			s5.115-83.176-20.406-114.543c5.463-6.849,10.262-18.995,9.556-27.728c-0.706-8.733-4.848-17.141-11.34-23.024
			C335.732,49.509,76.938,83.782,55.461,222.327c-6.076,39.199,3.097,80.94,29.361,110.666
			c26.264,29.726,65.298,46.955,104.881,49.524c24.536,1.593,49.758-11.526,64.886-30.908
			C289.868,376.216,338.513,380.63,358.411,373.315z"/>
	</g>
</g>
<g id="Shadow">
	<ellipse id="_x3C_Path_x3E__359_" style="fill:#F5F5F5;" cx="250" cy="415.693" rx="193.889" ry="11.323"/>
</g>
<g id="Plant">
	<g>
		<g>
			<g>
				<g>
					<path style="fill:#407BFF;" d="M101.094,334.83c0,0,5.054,11.082,6.507,24.85c3.128,29.618,2.523,21.901,2.523,21.901
						l5.348,0.788c0,0-4.67-40.279-12.398-49.039C95.346,324.571,101.094,334.83,101.094,334.83z"/>
					<path style="opacity:0.4;" d="M101.094,334.83c0,0,5.054,11.082,6.507,24.85c3.128,29.618,2.523,21.901,2.523,21.901
						l5.348,0.788c0,0-4.67-40.279-12.398-49.039C95.346,324.571,101.094,334.83,101.094,334.83z"/>
					<g>
						<path style="fill:#407BFF;" d="M98.677,329.163c2.46-0.353,2.622,0.01,4.704,0.534c-0.818-1.939-1.262-4.584-4.25-6.915
							c-2.814-1.954-6.227-1.491-8.698,0.431c-0.182,0.142-0.425,0.205-0.669,0.156c-0.005-0.001-0.01-0.002-0.015-0.003
							c-0.571-0.115-0.913-0.722-0.659-1.192c1.109-2.049,3.425-3.43,5.936-3.439c-2.16-1.925-5.004-3.968-7.838-4.387
							c-3.101-0.459-7.815,2.621-8.79,5.51c-0.085,0.251-0.343,0.4-0.627,0.35c-0.006-0.001-0.012-0.002-0.018-0.003
							c-0.347-0.061-0.592-0.382-0.533-0.704c0.145-0.787,0.318-2.237,1.283-3.542c0.857-1.16,2.117-2.133,3.669-1.992
							c-2.265-2.692-9.994-2.016-9.736-1.748c-1.935,1.531-2.704,4.52-2.972,5.956c-0.095,0.51-0.566,0.85-1.12,0.816
							c-0.009,0-0.017-0.001-0.026-0.001c-0.711-0.044-1.268-0.677-1.177-1.34c0.204-1.486,0.668-3.823,1.635-4.896
							c-1.289-0.621-2.908,0.245-4.085,0.869c-3.751,1.989-4.729,6.233-6.111,9.894c0.672,2.72,1.925,6.211,4.994,9.415
							c1.867,1.95,4.435,3.145,7.094,3.427l0.065,0.007c-0.827-2.294-1.664-4.87-2.493-7.218c-0.159-0.45,0.06-0.91,0.503-1.065
							c0.006-0.002,0.011-0.004,0.017-0.006c0.466-0.159,1.016,0.079,1.232,0.534c1.392,2.938,2.099,5.405,3.575,8.4
							c2.325,0.842,8.867,0.751,8.455,0.373c-1.367-2.513-4.217-6.493-4.636-9.311c-0.062-0.418,0.256-0.77,0.695-0.767l0,0
							c0.332,0.002,0.64,0.212,0.765,0.515c1.438,3.509,3.101,6.556,5.662,9.544c3.668,0.571,6.438,0.917,8.451,0.179
							c-1.047-2.096-2.646-5.269-3.863-7.699c-0.385-0.767,0.669-1.355,1.22-0.677c0.009,0.011,0.017,0.022,0.026,0.033
							c2.214,2.813,3.323,6.875,6.522,8.398c0,0,5.054,1.61,6.188-0.374C100.055,335.395,97.578,329.321,98.677,329.163z"/>
						<path style="opacity:0.3;fill:#FFFFFF;" d="M98.677,329.163c2.46-0.353,2.622,0.01,4.704,0.534
							c-0.818-1.939-1.262-4.584-4.25-6.915c-2.814-1.954-6.227-1.491-8.698,0.431c-0.182,0.142-0.425,0.205-0.669,0.156
							c-0.005-0.001-0.01-0.002-0.015-0.003c-0.571-0.115-0.913-0.722-0.659-1.192c1.109-2.049,3.425-3.43,5.936-3.439
							c-2.16-1.925-5.004-3.968-7.838-4.387c-3.101-0.459-7.815,2.621-8.79,5.51c-0.085,0.251-0.343,0.4-0.627,0.35
							c-0.006-0.001-0.012-0.002-0.018-0.003c-0.347-0.061-0.592-0.382-0.533-0.704c0.145-0.787,0.318-2.237,1.283-3.542
							c0.857-1.16,2.117-2.133,3.669-1.992c-2.265-2.692-9.994-2.016-9.736-1.748c-1.935,1.531-2.704,4.52-2.972,5.956
							c-0.095,0.51-0.566,0.85-1.12,0.816c-0.009,0-0.017-0.001-0.026-0.001c-0.711-0.044-1.268-0.677-1.177-1.34
							c0.204-1.486,0.668-3.823,1.635-4.896c-1.289-0.621-2.908,0.245-4.085,0.869c-3.751,1.989-4.729,6.233-6.111,9.894
							c0.672,2.72,1.925,6.211,4.994,9.415c1.867,1.95,4.435,3.145,7.094,3.427l0.065,0.007c-0.827-2.294-1.664-4.87-2.493-7.218
							c-0.159-0.45,0.06-0.91,0.503-1.065c0.006-0.002,0.011-0.004,0.017-0.006c0.466-0.159,1.016,0.079,1.232,0.534
							c1.392,2.938,2.099,5.405,3.575,8.4c2.325,0.842,8.867,0.751,8.455,0.373c-1.367-2.513-4.217-6.493-4.636-9.311
							c-0.062-0.418,0.256-0.77,0.695-0.767l0,0c0.332,0.002,0.64,0.212,0.765,0.515c1.438,3.509,3.101,6.556,5.662,9.544
							c3.668,0.571,6.438,0.917,8.451,0.179c-1.047-2.096-2.646-5.269-3.863-7.699c-0.385-0.767,0.669-1.355,1.22-0.677
							c0.009,0.011,0.017,0.022,0.026,0.033c2.214,2.813,3.323,6.875,6.522,8.398c0,0,5.054,1.61,6.188-0.374
							C100.055,335.395,97.578,329.321,98.677,329.163z"/>
					</g>
				</g>
			</g>
			<g>
				<g>
					<path style="fill:#407BFF;" d="M113.408,335.034c0,0-2.57,10.542-1.542,22.833c2.213,26.441,1.452,19.587,1.452,19.587
						l-4.548,1.584c0,0-2.645-36.028,2.654-44.985C116.724,325.095,113.408,335.034,113.408,335.034z"/>
					<path style="opacity:0.4;" d="M113.408,335.034c0,0-2.57,10.542-1.542,22.833c2.213,26.441,1.452,19.587,1.452,19.587
						l-4.548,1.584c0,0-2.645-36.028,2.654-44.985C116.724,325.095,113.408,335.034,113.408,335.034z"/>
					<g>
						<path style="fill:#407BFF;" d="M114.576,329.671c-2.212,0.102-2.293,0.447-4.027,1.253c0.392-1.833,0.338-4.222,2.564-6.762
							c2.136-2.18,5.2-2.346,7.683-1.076c0.183,0.094,0.406,0.108,0.611,0.025c0.004-0.002,0.008-0.003,0.012-0.005
							c0.48-0.196,0.678-0.785,0.378-1.153c-1.313-1.608-3.57-2.43-5.769-2.017c1.568-2.046,3.716-4.308,6.126-5.149
							c2.637-0.92,7.277,0.988,8.613,3.353c0.116,0.206,0.367,0.293,0.607,0.201c0.005-0.002,0.01-0.004,0.015-0.006
							c0.294-0.112,0.454-0.434,0.348-0.705c-0.258-0.664-0.652-1.905-1.715-2.885c-0.944-0.871-2.209-1.513-3.544-1.13
							c1.532-2.734,8.408-3.435,8.228-3.157c1.949,1.016,3.122,3.504,3.596,4.715c0.169,0.431,0.637,0.649,1.116,0.527
							c0.007-0.002,0.015-0.004,0.022-0.006c0.615-0.157,0.996-0.805,0.806-1.369c-0.427-1.266-1.223-3.234-2.249-4.011
							c1.024-0.759,2.586-0.272,3.72,0.078c3.615,1.113,5.18,4.664,7.001,7.637c-0.133,2.493-0.647,5.757-2.796,9.074
							c-1.308,2.018-3.355,3.493-5.635,4.185l-0.056,0.017c0.341-2.146,0.643-4.54,0.976-6.733c0.064-0.42-0.204-0.786-0.618-0.848
							c-0.005-0.001-0.011-0.002-0.016-0.002c-0.434-0.061-0.876,0.239-0.989,0.673c-0.727,2.804-0.934,5.08-1.724,7.948
							c-1.894,1.125-7.634,2.139-7.337,1.739c0.776-2.428,2.605-6.387,2.501-8.923c-0.016-0.376-0.353-0.631-0.736-0.555l0,0
							c-0.29,0.057-0.525,0.292-0.583,0.578c-0.672,3.311-1.618,6.255-3.36,9.298c-3.114,1.113-5.481,1.879-7.366,1.569
							c0.566-2.009,1.435-5.053,2.094-7.383c0.208-0.736-0.812-1.074-1.181-0.389c-0.006,0.011-0.012,0.022-0.017,0.033
							c-1.467,2.832-1.759,6.571-4.304,8.439c0,0-4.154,2.254-5.478,0.707C114.412,335.355,115.565,329.625,114.576,329.671z"/>
						<path style="opacity:0.1;fill:#FFFFFF;" d="M114.576,329.671c-2.212,0.102-2.293,0.447-4.027,1.253
							c0.392-1.833,0.338-4.222,2.564-6.762c2.136-2.18,5.2-2.346,7.683-1.076c0.183,0.094,0.406,0.108,0.611,0.025
							c0.004-0.002,0.008-0.003,0.012-0.005c0.48-0.196,0.678-0.785,0.378-1.153c-1.313-1.608-3.57-2.43-5.769-2.017
							c1.568-2.046,3.716-4.308,6.126-5.149c2.637-0.92,7.277,0.988,8.613,3.353c0.116,0.206,0.367,0.293,0.607,0.201
							c0.005-0.002,0.01-0.004,0.015-0.006c0.294-0.112,0.454-0.434,0.348-0.705c-0.258-0.664-0.652-1.905-1.715-2.885
							c-0.944-0.871-2.209-1.513-3.544-1.13c1.532-2.734,8.408-3.435,8.228-3.157c1.949,1.016,3.122,3.504,3.596,4.715
							c0.169,0.431,0.637,0.649,1.116,0.527c0.007-0.002,0.015-0.004,0.022-0.006c0.615-0.157,0.996-0.805,0.806-1.369
							c-0.427-1.266-1.223-3.234-2.249-4.011c1.024-0.759,2.586-0.272,3.72,0.078c3.615,1.113,5.18,4.664,7.001,7.637
							c-0.133,2.493-0.647,5.757-2.796,9.074c-1.308,2.018-3.355,3.493-5.635,4.185l-0.056,0.017
							c0.341-2.146,0.643-4.54,0.976-6.733c0.064-0.42-0.204-0.786-0.618-0.848c-0.005-0.001-0.011-0.002-0.016-0.002
							c-0.434-0.061-0.876,0.239-0.989,0.673c-0.727,2.804-0.934,5.08-1.724,7.948c-1.894,1.125-7.634,2.139-7.337,1.739
							c0.776-2.428,2.605-6.387,2.501-8.923c-0.016-0.376-0.353-0.631-0.736-0.555l0,0c-0.29,0.057-0.525,0.292-0.583,0.578
							c-0.672,3.311-1.618,6.255-3.36,9.298c-3.114,1.113-5.481,1.879-7.366,1.569c0.566-2.009,1.435-5.053,2.094-7.383
							c0.208-0.736-0.812-1.074-1.181-0.389c-0.006,0.011-0.012,0.022-0.017,0.033c-1.467,2.832-1.759,6.571-4.304,8.439
							c0,0-4.154,2.254-5.478,0.707C114.412,335.355,115.565,329.625,114.576,329.671z"/>
					</g>
				</g>
			</g>
			<g>
				<path style="fill:#407BFF;" d="M98.548,347.286c0,0,10.532,15.359,13.372,29.86c2.84,14.501,3.248,4.295,3.248,4.295
					l6.393,0.059c0,0-11.492-27.64-21.21-36.327C90.635,336.486,98.548,347.286,98.548,347.286z"/>
				<path style="opacity:0.1;" d="M98.548,347.286c0,0,10.532,15.359,13.372,29.86c2.84,14.501,3.248,4.295,3.248,4.295l6.393,0.059
					c0,0-11.492-27.64-21.21-36.327C90.635,336.486,98.548,347.286,98.548,347.286z"/>
			</g>
			<g>
				<g>
					<path style="fill:#407BFF;" d="M121.088,349.273c0,0-5.313,10.438-7.856,23.952c-5.472,29.073-5.472,21.39-5.472,21.39
						l-4.572,0.177c0,0,9.041-39.406,16.38-47.233C126.906,339.732,121.088,349.273,121.088,349.273z"/>
					<path style="opacity:0.4;" d="M121.088,349.273c0,0-5.313,10.438-7.856,23.952c-5.472,29.073-5.472,21.39-5.472,21.39
						l-4.572,0.177c0,0,9.041-39.406,16.38-47.233C126.906,339.732,121.088,349.273,121.088,349.273z"/>
					<g>
						<path style="fill:#407BFF;" d="M122.787,343.179c-1.652-1.538-1.925-1.305-3.672-1.895c1.421-1.268,2.868-3.335,6.046-3.855
							c2.89-0.281,5.194,1.829,6.188,4.731c0.073,0.214,0.224,0.39,0.424,0.47c0.004,0.002,0.008,0.003,0.012,0.005
							c0.467,0.186,0.975-0.168,0.988-0.702c0.057-2.329-1.054-4.684-2.89-5.95c2.398-0.584,5.348-0.927,7.601,0.13
							c2.466,1.156,4.613,6.184,4.102,9.172c-0.044,0.26,0.082,0.518,0.311,0.617c0.005,0.002,0.01,0.004,0.014,0.006
							c0.28,0.121,0.595-0.034,0.689-0.343c0.228-0.754,0.716-2.096,0.562-3.709c-0.136-1.433-0.646-2.907-1.843-3.562
							c2.8-1.195,8.175,3.262,7.872,3.365c0.769,2.294,0.064,5.267-0.349,6.643c-0.147,0.489,0.054,1.019,0.474,1.268
							c0.007,0.004,0.013,0.008,0.02,0.012c0.54,0.319,1.216,0.049,1.43-0.57c0.48-1.388,1.132-3.643,0.878-5.056
							c1.207,0.109,2.026,1.669,2.624,2.799c1.905,3.601,0.821,7.763,0.281,11.624c-1.645,2.018-4.044,4.411-7.65,5.647
							c-2.194,0.752-4.582,0.5-6.65-0.588l-0.051-0.027c1.579-1.571,3.284-3.381,4.887-4.998c0.307-0.31,0.342-0.818,0.083-1.174
							c-0.003-0.005-0.007-0.009-0.01-0.014c-0.274-0.371-0.778-0.441-1.129-0.155c-2.266,1.845-3.829,3.626-6.18,5.479
							c-2.06-0.436-6.813-3.793-6.352-3.913c2.067-1.49,5.842-3.507,7.344-5.735c0.223-0.331,0.138-0.794-0.184-1.012l0,0
							c-0.244-0.165-0.559-0.138-0.778,0.063c-2.542,2.316-5.051,4.121-8.194,5.423c-2.928-1.343-5.105-2.432-6.266-4.079
							c1.655-1.289,4.172-3.235,6.094-4.727c0.607-0.471,0.085-1.508-0.606-1.197c-0.011,0.005-0.022,0.01-0.033,0.015
							c-2.815,1.325-5.349,4.285-8.338,4.001c0,0-4.385-1.138-4.374-3.424C119.135,347.882,123.526,343.866,122.787,343.179z"/>
						<path style="opacity:0.2;fill:#FFFFFF;" d="M122.787,343.179c-1.652-1.538-1.925-1.305-3.672-1.895
							c1.421-1.268,2.868-3.335,6.046-3.855c2.89-0.281,5.194,1.829,6.188,4.731c0.073,0.214,0.224,0.39,0.424,0.47
							c0.004,0.002,0.008,0.003,0.012,0.005c0.467,0.186,0.975-0.168,0.988-0.702c0.057-2.329-1.054-4.684-2.89-5.95
							c2.398-0.584,5.348-0.927,7.601,0.13c2.466,1.156,4.613,6.184,4.102,9.172c-0.044,0.26,0.082,0.518,0.311,0.617
							c0.005,0.002,0.01,0.004,0.014,0.006c0.28,0.121,0.595-0.034,0.689-0.343c0.228-0.754,0.716-2.096,0.562-3.709
							c-0.136-1.433-0.646-2.907-1.843-3.562c2.8-1.195,8.175,3.262,7.872,3.365c0.769,2.294,0.064,5.267-0.349,6.643
							c-0.147,0.489,0.054,1.019,0.474,1.268c0.007,0.004,0.013,0.008,0.02,0.012c0.54,0.319,1.216,0.049,1.43-0.57
							c0.48-1.388,1.132-3.643,0.878-5.056c1.207,0.109,2.026,1.669,2.624,2.799c1.905,3.601,0.821,7.763,0.281,11.624
							c-1.645,2.018-4.044,4.411-7.65,5.647c-2.194,0.752-4.582,0.5-6.65-0.588l-0.051-0.027c1.579-1.571,3.284-3.381,4.887-4.998
							c0.307-0.31,0.342-0.818,0.083-1.174c-0.003-0.005-0.007-0.009-0.01-0.014c-0.274-0.371-0.778-0.441-1.129-0.155
							c-2.266,1.845-3.829,3.626-6.18,5.479c-2.06-0.436-6.813-3.793-6.352-3.913c2.067-1.49,5.842-3.507,7.344-5.735
							c0.223-0.331,0.138-0.794-0.184-1.012l0,0c-0.244-0.165-0.559-0.138-0.778,0.063c-2.542,2.316-5.051,4.121-8.194,5.423
							c-2.928-1.343-5.105-2.432-6.266-4.079c1.655-1.289,4.172-3.235,6.094-4.727c0.607-0.471,0.085-1.508-0.606-1.197
							c-0.011,0.005-0.022,0.01-0.033,0.015c-2.815,1.325-5.349,4.285-8.338,4.001c0,0-4.385-1.138-4.374-3.424
							C119.135,347.882,123.526,343.866,122.787,343.179z"/>
					</g>
				</g>
			</g>
			<polygon style="fill:#263238;" points="125.393,417.534 96.036,417.534 87.196,370.496 134.233,370.496 			"/>
		</g>
		<g>
			<path style="fill:#407BFF;" d="M98.354,348.719c1.728-2.922,2.236-2.735,4.538-4.402c-2.672-1.045-5.746-3.174-10.662-2.332
				c-4.382,1.03-6.808,5.058-6.944,9.531c-0.01,0.33-0.152,0.645-0.409,0.853c-0.005,0.004-0.01,0.008-0.016,0.013
				c-0.602,0.485-1.512,0.248-1.775-0.479c-1.149-3.171-0.591-6.951,1.532-9.589c-3.797,0.374-8.296,1.349-11.129,3.905
				c-3.101,2.797-3.961,10.755-1.843,14.608c0.184,0.335,0.117,0.752-0.175,0.999c-0.006,0.005-0.012,0.01-0.018,0.016
				c-0.357,0.304-0.892,0.245-1.17-0.133c-0.68-0.923-2.012-2.528-2.524-4.818c-0.455-2.035-0.379-4.309,1.084-5.796
				c-4.668-0.269-10.541,8.487-10.048,8.481c-0.082,3.528,2.315,7.265,3.552,8.953c0.44,0.6,0.386,1.426-0.118,1.973
				c-0.008,0.008-0.016,0.017-0.024,0.025c-0.649,0.702-1.768,0.663-2.366-0.082c-1.342-1.671-3.333-4.449-3.605-6.514
				c-1.728,0.741-2.219,3.286-2.582,5.13c-1.156,5.879,2.343,11.065,4.903,16.103c3.345,1.965,7.97,4.076,13.843,4.006
				c3.574-0.043,6.973-1.559,9.519-4.067l0.062-0.062c-3.042-1.383-6.38-3.034-9.479-4.469c-0.593-0.275-0.878-0.955-0.659-1.571
				c0.003-0.008,0.006-0.016,0.009-0.024c0.234-0.644,0.943-0.987,1.591-0.766c4.179,1.424,7.295,3.103,11.602,4.496
				c2.833-1.609,8.294-8.548,7.559-8.488c-3.724-1.033-10.203-1.952-13.433-4.277c-0.479-0.345-0.567-1.023-0.193-1.48l0,0
				c0.283-0.346,0.76-0.463,1.174-0.296c4.801,1.936,9.319,3.184,14.542,3.432c3.696-3.28,6.401-5.842,7.358-8.674
				c-3.026-0.959-7.62-2.398-11.133-3.506c-1.109-0.35-0.815-2.029,0.345-1.941c0.018,0.001,0.037,0.003,0.056,0.005
				c4.749,0.441,9.833,3.263,14.103,1.408c0,0,5.933-3.713,4.873-6.847C105.881,353.388,97.582,350.025,98.354,348.719z"/>
			<path style="opacity:0.6;fill:#FFFFFF;" d="M98.354,348.719c1.728-2.922,2.236-2.735,4.538-4.402
				c-2.672-1.045-5.746-3.174-10.662-2.332c-4.382,1.03-6.808,5.058-6.944,9.531c-0.01,0.33-0.152,0.645-0.409,0.853
				c-0.005,0.004-0.01,0.008-0.016,0.013c-0.602,0.485-1.512,0.248-1.775-0.479c-1.149-3.171-0.591-6.951,1.532-9.589
				c-3.797,0.374-8.296,1.349-11.129,3.905c-3.101,2.797-3.961,10.755-1.843,14.608c0.184,0.335,0.117,0.752-0.175,0.999
				c-0.006,0.005-0.012,0.01-0.018,0.016c-0.357,0.304-0.892,0.245-1.17-0.133c-0.68-0.923-2.012-2.528-2.524-4.818
				c-0.455-2.035-0.379-4.309,1.084-5.796c-4.668-0.269-10.541,8.487-10.048,8.481c-0.082,3.528,2.315,7.265,3.552,8.953
				c0.44,0.6,0.386,1.426-0.118,1.973c-0.008,0.008-0.016,0.017-0.024,0.025c-0.649,0.702-1.768,0.663-2.366-0.082
				c-1.342-1.671-3.333-4.449-3.605-6.514c-1.728,0.741-2.219,3.286-2.582,5.13c-1.156,5.879,2.343,11.065,4.903,16.103
				c3.345,1.965,7.97,4.076,13.843,4.006c3.574-0.043,6.973-1.559,9.519-4.067l0.062-0.062c-3.042-1.383-6.38-3.034-9.479-4.469
				c-0.593-0.275-0.878-0.955-0.659-1.571c0.003-0.008,0.006-0.016,0.009-0.024c0.234-0.644,0.943-0.987,1.591-0.766
				c4.179,1.424,7.295,3.103,11.602,4.496c2.833-1.609,8.294-8.548,7.559-8.488c-3.724-1.033-10.203-1.952-13.433-4.277
				c-0.479-0.345-0.567-1.023-0.193-1.48l0,0c0.283-0.346,0.76-0.463,1.174-0.296c4.801,1.936,9.319,3.184,14.542,3.432
				c3.696-3.28,6.401-5.842,7.358-8.674c-3.026-0.959-7.62-2.398-11.133-3.506c-1.109-0.35-0.815-2.029,0.345-1.941
				c0.018,0.001,0.037,0.003,0.056,0.005c4.749,0.441,9.833,3.263,14.103,1.408c0,0,5.933-3.713,4.873-6.847
				C105.881,353.388,97.582,350.025,98.354,348.719z"/>
		</g>
	</g>
</g>
<g id="Character">
	<g>
		<g>
			<g>
				<g>
					<polygon style="fill:#EBB376;" points="389.165,392.676 387.565,410.032 378.043,410.095 378.828,392.115 					"/>
					<path style="fill:#263238;" d="M381.77,222.173c0,0-4.791,70.127-5.277,107.913c-0.459,35.683-0.289,66.35-0.289,66.35
						l14.033,0.18c0,0,1.238-12.107,5.613-37.359c1.132-6.535,0.135-21.938,1.119-30.439c4.894-42.268,12.453-62.244,12.453-62.244
						c5.645-18.665,3.506-43.424,3.506-43.424L381.77,222.173z"/>
					<polygon style="fill:#407BFF;" points="391.686,392.968 391.08,400.324 374.723,400.303 374.943,392.939 					"/>
					<g>
						<path style="fill:#407BFF;" d="M374.57,410.296c-1.095-0.014-2.213-0.239-2.544-0.737c-0.169-0.291-0.137-0.672,0.079-0.95
							c0.164-0.252,0.412-0.432,0.691-0.503c1.499-0.404,4.45,1.474,4.58,1.558c0.073,0.047,0.108,0.139,0.086,0.229
							c-0.023,0.089-0.094,0.159-0.181,0.177C376.381,410.227,375.474,410.303,374.57,410.296z M373.287,408.482
							c-0.135-0.004-0.27,0.012-0.403,0.049c-0.176,0.029-0.334,0.139-0.429,0.3c-0.173,0.27-0.127,0.402-0.073,0.477
							c0.369,0.606,2.59,0.65,4.243,0.458C375.612,409.118,374.479,408.682,373.287,408.482z"/>
						<path style="fill:#407BFF;" d="M377.249,410.065c-0.03,0.009-0.06,0.005-0.086-0.009c-1.021-0.503-3.007-2.531-2.75-3.567
							c0.038-0.25,0.237-0.552,0.816-0.605c0.423-0.041,0.833,0.099,1.137,0.389c1.058,0.981,1.13,3.473,1.134,3.589
							c0.001,0.079-0.04,0.154-0.106,0.196C377.347,410.079,377.295,410.082,377.249,410.065z M375.341,406.301l-0.119-0.013
							c-0.377,0.029-0.412,0.186-0.432,0.242c-0.095,0.625,1.19,2.208,2.237,2.899c-0.036-1.048-0.379-2.04-0.984-2.844
							C375.855,406.402,375.605,406.301,375.341,406.301L375.341,406.301z"/>
						<path style="fill:#263238;" d="M378.266,408.789l9.614,0.126c0.362,0.005,0.659,0.272,0.714,0.643l1.2,8.217
							c0.112,0.728-0.368,1.446-1.072,1.603c-0.09,0.02-0.182,0.031-0.273,0.031c-3.462-0.108-6.53-0.347-10.846-0.397
							c-5.092-0.065-3.842,0.59-9.834,0.601c-3.61,0.003-3.988-4.301-2.445-4.492c7.06-0.832,7.932-3.037,10.805-5.626
							C376.749,408.998,377.509,408.747,378.266,408.789z"/>
					</g>
				</g>
				<path style="opacity:0.5;" d="M396.287,252.184l13.727,4.455c-0.52,5.6-10.446,48.662-11.628,55.509
					C391.924,299.486,396.287,252.184,396.287,252.184z"/>
				<g>
					<polygon style="fill:#EBB376;" points="420.354,391.744 420.761,409.168 411.31,410.327 410.021,392.376 					"/>
					<path style="fill:#263238;" d="M393.603,224.062l5.745,103.351c3.648,35.499,8.563,69.557,8.563,69.557l13.634-1.435
						c0,0-0.163-12.169,1.278-37.757c0.373-6.622-1.9-29.713-1.9-29.713c0-42.55,4.047-61.116,4.047-61.116
						c3.46-19.191-0.8-42.511-0.8-42.511L393.603,224.062z"/>
					<polygon style="fill:#407BFF;" points="422.892,391.744 423.137,399.121 406.885,400.982 406.257,393.641 					"/>
					<g>
						<path style="fill:#407BFF;" d="M407.883,410.926c-1.089,0.112-2.226,0.017-2.611-0.439c-0.201-0.27-0.214-0.651-0.031-0.953
							c0.134-0.269,0.359-0.477,0.628-0.579c1.442-0.574,4.59,0.953,4.729,1.021c0.078,0.038,0.123,0.125,0.112,0.218
							c-0.012,0.091-0.075,0.169-0.159,0.197C409.674,410.649,408.782,410.829,407.883,410.926z M406.4,409.272
							c-0.134,0.011-0.267,0.043-0.394,0.095c-0.172,0.049-0.316,0.177-0.392,0.348c-0.141,0.288-0.08,0.414-0.017,0.482
							c0.436,0.56,2.647,0.347,4.267-0.033C408.782,409.635,407.607,409.333,406.4,409.272z"/>
						<path style="fill:#407BFF;" d="M410.518,410.388c-0.028,0.012-0.059,0.012-0.087,0.001c-1.072-0.382-3.278-2.169-3.142-3.227
							c0.009-0.253,0.172-0.576,0.741-0.695c0.415-0.089,0.839,0.003,1.174,0.255c1.164,0.853,1.522,3.32,1.539,3.434
							c0.01,0.078-0.022,0.158-0.083,0.207C410.616,410.391,410.565,410.4,410.518,410.388z M408.189,406.869l-0.12,0.001
							c-0.372,0.072-0.388,0.233-0.401,0.29c-0.022,0.632,1.436,2.057,2.556,2.622c-0.156-1.036-0.611-1.983-1.305-2.712
							C408.711,406.91,408.451,406.839,408.189,406.869L408.189,406.869z"/>
						<path style="fill:#263238;" d="M411.381,409.004l9.565-0.981c0.361-0.037,0.686,0.194,0.784,0.557l2.137,8.024
							c0.195,0.71-0.199,1.478-0.88,1.716c-0.087,0.03-0.177,0.051-0.268,0.062c-3.451,0.29-6.527,0.406-10.82,0.853
							c-5.066,0.521-3.748,1.028-9.7,1.728c-3.586,0.418-4.457-3.814-2.946-4.181c6.918-1.638,7.531-3.929,10.086-6.832
							C409.898,409.385,410.625,409.049,411.381,409.004z"/>
					</g>
				</g>
			</g>
			<g>
				<g>
					<g>
						<g>
							<g>
								<path style="fill:#407BFF;" d="M430.298,167.8c0.675,0.585,1.008,1.469,0.855,2.349c-1,5.761-5.162,30.054-5.811,39.001
									c-0.487,6.72-0.217,20.308-0.217,20.308s-32.587,2.544-44.159-1.272l0.14-57.436c0.002-1.087,0.744-2.036,1.8-2.296
									C390.621,166.551,420.983,159.731,430.298,167.8z"/>
								<g>
									<path style="fill:#407BFF;" d="M386.335,169.551c-2.427-1.473-5.768-0.54-7.738,1.504c-1.97,2.044-2.816,4.921-3.239,7.728
										c-0.358,2.374-1.584,7.468-2.592,12.325c-1.223,5.891,2.688,13.79,8.638,14.675L386.335,169.551z"/>
								</g>
								<path style="opacity:0.2;" d="M427.384,193.191c-6.96-8.468-4.636-18.126-4.636-18.126h2.594l4.406,3.347l0,0
									C429.023,182.757,428.16,188.065,427.384,193.191z"/>
								<path style="opacity:0.2;" d="M398.943,173.853c0.036,0.949,0.834,1.689,1.783,1.653c0.949-0.036,1.689-0.834,1.653-1.784
									c-0.036-0.949-0.834-1.689-1.783-1.653C399.647,172.106,398.907,172.904,398.943,173.853z"/>
								<path style="opacity:0.2;" d="M397.077,188.545c0.036,0.949,0.834,1.689,1.784,1.653c0.949-0.036,1.689-0.834,1.653-1.783
									c-0.036-0.949-0.835-1.689-1.783-1.653C397.781,186.798,397.041,187.596,397.077,188.545z"/>
								<path style="opacity:0.2;" d="M396.028,204.591c0.036,0.949,0.834,1.689,1.783,1.653s1.689-0.834,1.653-1.783
									c-0.036-0.949-0.834-1.689-1.783-1.653C396.732,202.843,395.992,203.642,396.028,204.591z"/>
								<path style="opacity:0.2;" d="M396.698,220.284c0.036,0.949,0.834,1.689,1.783,1.653c0.949-0.036,1.689-0.834,1.653-1.783
									c-0.036-0.949-0.834-1.689-1.783-1.654C397.402,218.536,396.662,219.335,396.698,220.284z"/>
								<g>
									<path style="fill:#E0AA73;" d="M409.529,161.771l-2.215,2.978l-4.311,2.855l-2.579,0.647l-4.02-1.202l-1.762-0.183
										l-0.359-0.275c4.022-2.907,3.738-7.663,2.258-11.756l11.303-11.845C407.376,148.117,407.258,156.461,409.529,161.771z"/>
									<path style="opacity:0.2;" d="M397.526,159.424c-0.074-1.538-0.449-3.107-0.986-4.59l6.919-7.251l4.198-1.946l0.001,0.001
										c-0.092,1.777-0.122,3.745-0.043,5.752C406.191,154.298,403.301,157.958,397.526,159.424z"/>
									<path style="fill:#263238;" d="M394.691,139.795c4.602-4.583,5.899-12,5.078-13.368c-0.821-1.368-9.98-1.843-10.989-0.934
										c-5.074,4.383,0.589,11.497,0.589,11.497l-1.355,3.15L394.691,139.795z"/>
									<g>
										<path style="fill:#263238;" d="M411.781,144.602c0.338,1.762-0.171,3.668-1.343,5.027
											c-0.325,0.377-0.716,0.723-1.194,0.861c-0.802,0.23-1.71-0.223-2.114-0.954c-0.404-0.731-0.341-1.664,0.047-2.403
											c0.388-0.739,1.067-1.296,1.816-1.663c0.75-0.367,1.572-0.56,2.393-0.71c-0.089-0.016-0.177-0.033-0.266-0.049
											L411.781,144.602z"/>
									</g>
									<path style="fill:#EBB376;" d="M409.431,135.816c-0.214,7.848,0.05,12.447-3.772,16.591
										c-5.74,6.246-15.53,2.959-17.648-4.772c-1.919-7.013-1.228-18.635,6.331-22.002c5.383-2.432,11.718-0.039,14.15,5.343
										C409.178,132.495,409.499,134.152,409.431,135.816z"/>
									<path style="fill:#263238;" d="M419.31,137.546c1.684,0.947,2.231,2.651,1.697,4.11c-0.534,1.459-1.993,2.686-3.696,3.617
										c-1.732,0.946-4.21,1.63-6.079,0.82c-1.474-0.639-1.971-1.96-2.113-3.164c-0.393-3.342,1.325-8.758,5.695-10.781
										C420.155,129.675,424.834,135.704,419.31,137.546z"/>
									<path style="fill:#263238;" d="M411.152,140.959c13.339-9.397-1.57-15.304-5.074-12.355
										c-4.253,3.716-5.167,7.696,0.518,7.321c3.9-0.257-0.359,5.829-0.359,5.829L411.152,140.959z"/>
									<path style="fill:#263238;" d="M397.257,138.486c0.02,0.641-0.296,1.17-0.715,1.182c-0.419,0.011-0.77-0.491-0.79-1.132
										c-0.02-0.641,0.299-1.162,0.718-1.173C396.888,137.352,397.239,137.854,397.257,138.486z"/>
									<path style="fill:#263238;" d="M390.058,138.728c0.018,0.632-0.299,1.162-0.717,1.173c-0.419,0.011-0.77-0.491-0.788-1.123
										c-0.018-0.632,0.296-1.171,0.715-1.182C389.687,137.585,390.037,138.087,390.058,138.728z"/>
									<path style="fill:#263238;" d="M399.635,135.417c0.064-0.003,0.127-0.018,0.185-0.046c0.154-0.135,0.178-0.365,0.055-0.529
										c-0.742-0.949-1.894-1.486-3.097-1.443c-0.207,0.021-0.358,0.206-0.337,0.412s0.205,0.358,0.412,0.337l0,0
										c0.953-0.024,1.86,0.41,2.438,1.168C399.381,135.406,399.511,135.444,399.635,135.417z"/>
									<path style="fill:#263238;" d="M387.16,135.914c0.126-0.019,0.233-0.103,0.282-0.221c0.361-0.875,1.115-1.526,2.033-1.756
										c0.204-0.033,0.342-0.225,0.309-0.429c-0.033-0.204-0.225-0.342-0.429-0.309c-1.18,0.267-2.157,1.088-2.623,2.204
										c-0.084,0.182-0.005,0.398,0.178,0.482c0.003,0.002,0.007,0.003,0.01,0.005
										C386.994,135.926,387.079,135.934,387.16,135.914z"/>
									<path style="fill:#EBB376;" d="M413.499,142.993c-1,1.698-2.628,2.935-4.533,3.442c-2.538,0.637-3.745-1.637-2.989-4
										c0.677-2.118,2.817-5.016,5.334-4.617C413.828,138.217,414.703,140.883,413.499,142.993z"/>
									<path style="fill:#D58745;" d="M391.884,138.389c-0.869,2.458-2.074,4.785-3.58,6.913c1.485,1.263,3.828,0.593,3.828,0.593
										L391.884,138.389z"/>
								</g>
								<g>
									<path style="fill:#407BFF;" d="M416.22,164.808c-0.211-1.794-3.89-4.868-5.997-4.032c-2.106,0.836-5.601,6.1-9.005,6.312
										c-3.404,0.212-4.18-6.026-5.976-5.41c-1.796,0.617-3.859,2.474-4.4,3.828c-0.625,1.562-0.592,7.41,1.011,6.651
										c0,0,2.2-4.173,3.585-4.668c1.292-0.461,3.972,1.242,5.344,1.249c1.488,0.008,4.464-1.83,5.826-1.229
										c1.368,0.604,2.604,4.428,4.098,4.359C412.944,171.766,416.482,167.033,416.22,164.808z"/>
									<path style="opacity:0.4;fill:#FFFFFF;" d="M416.22,164.808c-0.211-1.794-3.89-4.868-5.997-4.032
										c-2.106,0.836-5.601,6.1-9.005,6.312c-3.404,0.212-4.18-6.026-5.976-5.41c-1.796,0.617-3.859,2.474-4.4,3.828
										c-0.625,1.562-0.592,7.41,1.011,6.651c0,0,2.2-4.173,3.585-4.668c1.292-0.461,3.972,1.242,5.344,1.249
										c1.488,0.008,4.464-1.83,5.826-1.229c1.368,0.604,2.604,4.428,4.098,4.359C412.944,171.766,416.482,167.033,416.22,164.808
										z"/>
									<g>
										<g>
											<path style="fill:#EBB376;" d="M378.819,187.004c1.079-2.316,2.127-4.711,3.153-7.138
												c2.03-4.84,3.995-9.821,5.895-14.758l5.279,1.446c-0.989,5.409-2.212,10.683-3.72,15.95
												c-0.751,2.644-1.581,5.31-2.545,7.906L378.819,187.004z"/>
										</g>
										<path style="fill:#EBB376;" d="M390.651,168.933c3.61,0.115,5.142-6.497,5.142-6.497l-8.196-3.079l-0.165,7.172
											L390.651,168.933z"/>
										<path style="fill:#EBB376;" d="M387.598,159.357l8.187,3.077l1.77-4.303c0.282-0.686,0.017-1.476-0.623-1.852l-4.32-2.541
											c-0.711-0.418-1.627-0.18-2.043,0.533L387.598,159.357z"/>
									</g>
								</g>
							</g>
							<g>
								<g>
									<path style="fill:#407BFF;" d="M382.703,204.725c6.732-11.087,7.358-20.503,12.382-31.314
										c-2.416-3.332-5.702-5.708-9.709-6.652c-2.498,7.201-6.087,14.562-9.571,19.922c-1.799,2.767-3.211,5.773-4.068,8.961
										c-0.21,0.782-0.373,1.568-0.381,2.371c-0.027,2.775,0.004,5.76,1.983,7.882
										C375.989,208.739,380.685,208.048,382.703,204.725z"/>
									<path style="opacity:0.1;fill:#FFFFFF;" d="M382.703,204.725c6.732-11.087,7.358-20.503,12.382-31.314
										c-2.416-3.332-5.702-5.708-9.709-6.652c-2.498,7.201-6.087,14.562-9.571,19.922c-1.799,2.767-3.211,5.773-4.068,8.961
										c-0.21,0.782-0.373,1.568-0.381,2.371c-0.027,2.775,0.004,5.76,1.983,7.882
										C375.989,208.739,380.685,208.048,382.703,204.725z"/>
								</g>
								<g>
									<polygon style="fill:#407BFF;" points="396.624,169.75 395.997,174.097 384.213,168.181 385.905,164.115 									"/>
									<polygon style="opacity:0.5;fill:#FFFFFF;" points="396.624,169.75 395.997,174.097 384.213,168.181 385.905,164.115 
																			"/>
								</g>
							</g>
						</g>
					</g>
					<g>
						<g>
							<path style="fill:#FFFFFF;" d="M387.429,200.742l1.791-0.236c1.046-0.138,1.783-1.098,1.645-2.145l-2.142-16.234
								c-0.138-1.046-1.098-1.783-2.145-1.645l-1.791,0.236L387.429,200.742z"/>
						</g>
						<g>
							<path style="fill:#263238;" d="M387.701,200.808l-5.345,0.705c-1.408,0.186-2.699-0.805-2.885-2.212l-1.97-14.927
								c-0.186-1.408,0.805-2.699,2.212-2.885l5.345-0.705c1.408-0.186,2.699,0.805,2.885,2.212l1.97,14.927
								C390.099,199.331,389.108,200.622,387.701,200.808z"/>
							<path style="opacity:0.7;fill:#FFFFFF;" d="M387.701,200.808l-5.345,0.705c-1.408,0.186-2.699-0.805-2.885-2.212
								l-1.97-14.927c-0.186-1.408,0.805-2.699,2.212-2.885l5.345-0.705c1.408-0.186,2.699,0.805,2.885,2.212l1.97,14.927
								C390.099,199.331,389.108,200.622,387.701,200.808z"/>
						</g>
						<path style="fill:#263238;" d="M385.762,185.722l-1.455,0.192c-0.557,0.073-1.067-0.318-1.141-0.875l-0.192-1.455
							c-0.073-0.557,0.318-1.067,0.875-1.141l1.455-0.192c0.557-0.074,1.067,0.318,1.141,0.875l0.192,1.455
							C386.711,185.137,386.319,185.648,385.762,185.722z"/>
						<path style="opacity:0.5;fill:#263238;" d="M385.762,185.722l-1.455,0.192c-0.557,0.073-1.067-0.318-1.141-0.875l-0.192-1.455
							c-0.073-0.557,0.318-1.067,0.875-1.141l1.455-0.192c0.557-0.074,1.067,0.318,1.141,0.875l0.192,1.455
							C386.711,185.137,386.319,185.648,385.762,185.722z"/>
						<path d="M384.505,183.46c0.034,0.259-0.148,0.496-0.406,0.53c-0.259,0.034-0.496-0.148-0.53-0.406
							c-0.034-0.259,0.148-0.496,0.407-0.53C384.234,183.019,384.471,183.201,384.505,183.46z"/>
						<path d="M385.949,183.932c0.034,0.259-0.148,0.496-0.407,0.53c-0.258,0.034-0.496-0.148-0.53-0.406
							c-0.034-0.259,0.148-0.496,0.407-0.53C385.677,183.491,385.914,183.673,385.949,183.932z"/>
						<path d="M384.644,184.875c0.034,0.259-0.148,0.496-0.407,0.53c-0.259,0.034-0.496-0.148-0.53-0.407
							c-0.034-0.259,0.148-0.496,0.406-0.53C384.372,184.434,384.609,184.616,384.644,184.875z"/>
					</g>
					<g>
						<path style="fill:#EBB376;" d="M393.182,203.523c-5.803,3.028-11.083-3.108-11.083-3.108l8.131-7.112l4.486,5.84
							L393.182,203.523z"/>
						<path style="fill:#EBB376;" d="M390.23,193.303l-4.947,9.695l-0.274-0.173c-2.099-1.326-3.889-3.086-5.251-5.162l0,0
							c-0.644-0.747-0.757-1.814-0.284-2.68l1.48-2.708c0.548-1.003,1.735-1.471,2.82-1.111L390.23,193.303z"/>
					</g>
					<g>
						<path style="fill:#407BFF;" d="M431.927,171.868c0.016,4.1-0.055,8.177-0.205,12.285c-0.118,3.109-0.252,6.209-0.48,9.318
							c-0.228,3.101-0.456,6.241-0.842,9.405l-0.126,1.165l-0.063,0.59l-0.149,0.976c-0.157,0.866-0.417,1.708-0.787,2.503
							c-0.574,1.236-1.456,2.298-2.565,3.085c-1.204,0.826-2.621,1.313-4.085,1.283c-15.771-0.324-28.505-6.232-28.505-6.232
							s1.946-7.857,1.631-8.361c1.472,0.244,14.502,3.379,23.529,4.024l-0.118-2.267c-0.039-1.047-1.11-26.396-1.11-26.396
							c0.008-3.423,4.1-7.563,7.516-7.61C429.055,165.588,431.919,168.39,431.927,171.868z"/>
						<path style="fill:#407BFF;" d="M394.82,199.988c-0.102-0.016-0.142-0.031-0.11-0.039
							C394.765,199.933,394.804,199.949,394.82,199.988z"/>
					</g>
					<g style="opacity:0.1;">
						<path style="fill:#FFFFFF;" d="M431.927,171.868c0.016,4.1-0.055,8.177-0.205,12.285c-0.118,3.109-0.252,6.209-0.48,9.318
							c-0.228,3.101-0.456,6.241-0.842,9.405l-0.126,1.165l-0.063,0.59l-0.149,0.976c-0.157,0.866-0.417,1.708-0.787,2.503
							c-0.574,1.236-1.456,2.298-2.565,3.085c-1.204,0.826-2.621,1.313-4.085,1.283c-15.771-0.324-28.505-6.232-28.505-6.232
							s1.946-7.857,1.631-8.361c1.472,0.244,14.502,3.379,23.529,4.024l-0.118-2.267c-0.039-1.047-1.11-26.396-1.11-26.396
							c0.008-3.423,4.1-7.563,7.516-7.61C429.055,165.588,431.919,168.39,431.927,171.868z"/>
						<path style="fill:#FFFFFF;" d="M394.82,199.988c-0.102-0.016-0.142-0.031-0.11-0.039
							C394.765,199.933,394.804,199.949,394.82,199.988z"/>
					</g>
					<g>
						<polygon style="fill:#407BFF;" points="391.206,206.296 394.549,208.695 398.205,196.896 394.361,195.399 						"/>
						<polygon style="opacity:0.5;fill:#FFFFFF;" points="391.206,206.296 394.549,208.695 398.205,196.896 394.361,195.399 						
							"/>
					</g>
				</g>
				<path style="fill:#263238;" d="M419.144,133.148c1.34,0.033,4.617-2.125-0.04-4.698c-0.619-0.342-2.502-0.941-2.502-0.941
					c1.206-2.979,0-8.493-4.631-8.239c-1.291,0.071-2.093,0.494-2.051,1.483c-0.421-1.455-0.884-2.947-2-4.168
					c-1.117-1.221-3.052-2.124-4.971-1.863c-1.919,0.261-3.569,2.154-2.657,3.471c-1.66-0.662-3.411-1.341-5.283-1.308
					c-1.871,0.033-3.855,1.054-3.921,2.484c-0.058,1.265,1.305,2.275,2.579,3.085c-1.664,0.32-4.22,0.75-5.319,1.757
					c-1.098,1.007-1.451,2.576-0.442,3.637c1.009,1.061,3.5,1.14,4.317-0.013c-4.324,4.926,1.126,5.547,12.364,3.137
					c-0.632,0.073-0.748,0.859-0.358,1.245c0.391,0.387,1.069,0.515,1.696,0.609C410.195,133.466,414.806,133.412,419.144,133.148z"
					/>
			</g>
		</g>
		<path style="fill:#263238;" d="M393.429,148.948c0.14,0.73,0.64,1.24,1.11,1.15c0.47-0.09,0.74-0.76,0.6-1.48
			c-0.14-0.72-0.64-1.24-1.11-1.15S393.279,148.228,393.429,148.948z"/>
	</g>
</g>
<g id="Screen">
	<g>
		<g>
			<g>
				<g>
					<g>
						<rect x="164.682" y="88.603" style="fill:#407BFF;" width="176.499" height="26.074"/>
						<rect x="164.682" y="88.603" style="opacity:0.5;fill:#FFFFFF;" width="176.499" height="26.074"/>
					</g>
					<g>
						<path style="fill:#263238;" d="M341.182,88.603h-176.5l0-7.679c0-4.518,3.662-8.18,8.18-8.18h160.139
							c4.518,0,8.18,3.662,8.18,8.18L341.182,88.603z"/>
						<g>
							<path style="fill:#FFFFFF;" d="M176.618,80.787c0.001,1.353-1.097,2.45-2.449,2.45c-1.353,0-2.449-1.097-2.449-2.45
								c-0.001-1.353,1.097-2.45,2.449-2.45S176.618,79.434,176.618,80.787z"/>
							<path style="fill:#FFFFFF;" d="M183.953,80.787c0,1.353-1.097,2.45-2.45,2.45c-1.353,0-2.449-1.097-2.45-2.45
								c0-1.353,1.097-2.45,2.45-2.45S183.953,79.434,183.953,80.787z"/>
							<path style="fill:#FFFFFF;" d="M191.287,80.787c0,1.353-1.097,2.45-2.449,2.45c-1.353,0-2.45-1.097-2.45-2.45
								c0-1.353,1.097-2.45,2.45-2.45C190.191,78.337,191.287,79.434,191.287,80.787z"/>
						</g>
					</g>
					<g>
						<path style="fill:#407BFF;" d="M164.682,336.116h176.5l0,7.679c0,4.518-3.662,8.18-8.18,8.18H172.863
							c-4.518,0-8.18-3.662-8.18-8.18L164.682,336.116z"/>
					</g>
					<g style="opacity:0.5;">
						<path style="fill:#FFFFFF;" d="M164.682,336.116h176.5l0,7.679c0,4.518-3.662,8.18-8.18,8.18H172.863
							c-4.518,0-8.18-3.662-8.18-8.18L164.682,336.116z"/>
					</g>
					<rect x="164.682" y="114.677" style="fill:#407BFF;" width="176.499" height="221.439"/>
					<rect x="164.682" y="114.677" style="opacity:0.3;fill:#FFFFFF;" width="176.499" height="221.439"/>
					<rect x="166.792" y="114.677" style="opacity:0.8;fill:#FFFFFF;" width="167.871" height="221.439"/>
					<rect x="334.663" y="190.14" style="opacity:0.4;" width="6.518" height="31.339"/>
				</g>
				<rect x="334.663" y="114.677" style="opacity:0.1;" width="6.518" height="8.942"/>
				<rect x="334.663" y="326.621" style="opacity:0.1;" width="6.518" height="8.942"/>
			</g>
			<g>
				<rect x="203.193" y="340.773" style="fill:#FFFFFF;" width="17.614" height="6.892"/>
				<g>
					<polygon style="fill:#FFFFFF;" points="201.066,342.065 198.482,344.363 201.066,346.373 					"/>
					<g>
						<polygon style="fill:#FFFFFF;" points="196.04,342.065 193.456,344.363 196.04,346.373 						"/>
						<rect x="190.549" y="342.065" style="fill:#FFFFFF;" width="1.257" height="4.308"/>
					</g>
					<polygon style="fill:#FFFFFF;" points="222.934,342.065 225.519,344.363 222.934,346.373 					"/>
					<g>
						<polygon style="fill:#FFFFFF;" points="227.96,342.065 230.545,344.363 227.96,346.373 						"/>
						
							<rect x="232.195" y="342.065" transform="matrix(-1 -1.224647e-16 1.224647e-16 -1 465.6463 688.4385)" style="fill:#FFFFFF;" width="1.257" height="4.308"/>
					</g>
				</g>
				<g>
					<rect x="269.244" y="340.701" style="fill:#FFFFFF;" width="13.785" height="7.036"/>
					<rect x="284.321" y="340.701" style="fill:#FFFFFF;" width="4.595" height="7.036"/>
				</g>
			</g>
			<g>
				<g>
					<line style="fill:#FFFFFF;" x1="184.101" y1="95.223" x2="171.528" y2="95.223"/>
					<rect x="171.528" y="94.723" style="fill:#407BFF;" width="12.573" height="1"/>
				</g>
				<g>
					<line style="fill:#FFFFFF;" x1="209.226" y1="95.223" x2="196.653" y2="95.223"/>
					<rect x="196.653" y="94.723" style="fill:#407BFF;" width="12.573" height="1"/>
				</g>
				<g>
					<line style="fill:#FFFFFF;" x1="234.352" y1="95.223" x2="221.779" y2="95.223"/>
					<rect x="221.779" y="94.723" style="fill:#407BFF;" width="12.573" height="1"/>
				</g>
				<g>
					<line style="fill:#FFFFFF;" x1="259.477" y1="95.223" x2="246.904" y2="95.223"/>
					<rect x="246.904" y="94.723" style="fill:#407BFF;" width="12.573" height="1"/>
				</g>
				<g>
					<line style="fill:#FFFFFF;" x1="284.603" y1="95.223" x2="272.03" y2="95.223"/>
					<rect x="272.03" y="94.723" style="fill:#407BFF;" width="12.573" height="1"/>
				</g>
				<g>
					<line style="fill:#FFFFFF;" x1="309.728" y1="95.223" x2="297.155" y2="95.223"/>
					<rect x="297.155" y="94.723" style="fill:#407BFF;" width="12.573" height="1"/>
				</g>
			</g>
			<g>
				<line style="fill:#FFFFFF;" x1="189.638" y1="98.787" x2="189.638" y2="109.837"/>
				<rect x="189.138" y="98.788" style="fill:#407BFF;" width="1" height="11.049"/>
			</g>
			<g>
				<line style="fill:#FFFFFF;" x1="223.663" y1="98.787" x2="223.663" y2="109.837"/>
				<rect x="223.163" y="98.788" style="fill:#407BFF;" width="1" height="11.049"/>
			</g>
			<g>
				<line style="fill:#FFFFFF;" x1="262.803" y1="98.787" x2="262.803" y2="109.837"/>
				<rect x="262.303" y="98.788" style="fill:#407BFF;" width="1" height="11.049"/>
			</g>
			<g>
				<line style="fill:#FFFFFF;" x1="287.644" y1="98.787" x2="287.644" y2="109.837"/>
				<rect x="287.144" y="98.788" style="fill:#407BFF;" width="1" height="11.049"/>
			</g>
			<rect x="294.314" y="98.787" style="fill:#FFFFFF;" width="5.726" height="11.05"/>
			<rect x="301.345" y="98.787" style="fill:#FFFFFF;" width="5.726" height="5.525"/>
			<rect x="308.354" y="98.787" style="fill:#FFFFFF;" width="5.726" height="5.525"/>
			<g>
				<rect x="320.771" y="103.351" style="fill:#FFFFFF;" width="11.391" height="6.485"/>
				<rect x="320.771" y="98.958" style="fill:#FFFFFF;" width="11.391" height="3.243"/>
			</g>
			<g>
				<polygon style="fill:#FFFFFF;" points="202.538,102.158 199.954,104.456 202.538,106.466 				"/>
				<g>
					<polygon style="fill:#FFFFFF;" points="197.513,102.158 194.928,104.456 197.513,106.466 					"/>
					<rect x="192.021" y="102.158" style="fill:#FFFFFF;" width="1.257" height="4.308"/>
				</g>
				<polygon style="fill:#FFFFFF;" points="210.436,102.158 213.02,104.456 210.436,106.466 				"/>
				<g>
					<polygon style="fill:#FFFFFF;" points="215.462,102.158 218.046,104.456 215.462,106.466 					"/>
					
						<rect x="219.696" y="102.158" transform="matrix(-1 -1.224647e-16 1.224647e-16 -1 440.6493 208.6244)" style="fill:#FFFFFF;" width="1.257" height="4.308"/>
				</g>
			</g>
			<g>
				<path style="fill:#FFFFFF;" d="M235.626,104.054c0,2.046-1.659,3.705-3.705,3.705c-2.046,0-3.705-1.659-3.705-3.705
					c0-2.046,1.659-3.705,3.705-3.705C233.968,100.35,235.626,102.008,235.626,104.054z"/>
				<g>
					<g>
						<line style="fill:#FFFFFF;" x1="231.922" y1="102.178" x2="231.922" y2="105.93"/>
						<rect x="231.421" y="102.178" style="fill:#407BFF;" width="1" height="3.753"/>
					</g>
					<g>
						<line style="fill:#FFFFFF;" x1="230.046" y1="104.054" x2="233.798" y2="104.054"/>
						<rect x="230.045" y="103.554" style="fill:#407BFF;" width="3.753" height="1"/>
					</g>
				</g>
			</g>
			<g>
				<circle style="fill:#FFFFFF;" cx="240.452" cy="104.054" r="3.705"/>
				<g>
					<g>
						<line style="fill:#FFFFFF;" x1="238.576" y1="104.054" x2="242.328" y2="104.054"/>
						<rect x="238.576" y="103.554" style="fill:#407BFF;" width="3.752" height="1"/>
					</g>
				</g>
			</g>
		</g>
		<g>
			<g>
				<line style="fill:#FFFFFF;" x1="247.887" y1="293.576" x2="222.934" y2="293.576"/>
				<rect x="222.934" y="293.075" style="fill:#407BFF;" width="24.953" height="1"/>
			</g>
			<g>
				<line style="fill:#FFFFFF;" x1="294.064" y1="293.576" x2="256.138" y2="293.576"/>
				<rect x="256.138" y="293.075" style="fill:#407BFF;" width="37.926" height="1"/>
			</g>
			<g>
				<g>
					<path style="fill:#407BFF;" d="M177.258,127.165h2.375v6.513h4.006v1.883h-6.381V127.165z"/>
					<path style="fill:#407BFF;" d="M184.038,132.299c0-1.955,1.547-3.347,3.67-3.347c2.147,0,3.67,1.392,3.67,3.347
						c0,1.967-1.523,3.37-3.67,3.37C185.585,135.669,184.038,134.266,184.038,132.299z M189.075,132.299
						c0-0.984-0.587-1.535-1.367-1.535c-0.768,0-1.367,0.551-1.367,1.535c0,0.995,0.6,1.559,1.367,1.559
						C188.488,133.857,189.075,133.294,189.075,132.299z"/>
					<path style="fill:#407BFF;" d="M196.791,128.952v2.051c-0.204-0.023-0.348-0.036-0.516-0.036c-0.923,0-1.559,0.468-1.559,1.607
						v2.986h-2.279v-6.5h2.171v0.779C195.076,129.252,195.831,128.952,196.791,128.952z"/>
					<path style="fill:#407BFF;" d="M204.278,132.886h-4.725c0.192,0.66,0.755,1.044,1.595,1.044c0.636,0,1.056-0.18,1.499-0.564
						l1.199,1.247c-0.624,0.695-1.535,1.056-2.77,1.056c-2.315,0-3.814-1.428-3.814-3.37c0-1.955,1.523-3.347,3.574-3.347
						c1.919,0,3.478,1.224,3.478,3.37C204.314,132.49,204.29,132.706,204.278,132.886z M199.516,131.686h2.663
						c-0.12-0.684-0.623-1.115-1.331-1.115C200.14,130.571,199.648,131.003,199.516,131.686z"/>
					<path style="fill:#407BFF;" d="M216.468,131.843v3.718h-2.279v-3.346c0-0.936-0.384-1.332-0.983-1.332
						c-0.66,0-1.14,0.444-1.14,1.451v3.227h-2.279v-3.346c0-0.936-0.372-1.332-0.983-1.332c-0.671,0-1.151,0.444-1.151,1.451v3.227
						h-2.279v-6.5h2.171v0.684c0.492-0.528,1.175-0.792,1.943-0.792c0.888,0,1.643,0.324,2.099,1.02
						c0.516-0.647,1.319-1.02,2.254-1.02C215.352,128.952,216.468,129.828,216.468,131.843z"/>
					<path style="fill:#407BFF;" d="M221.513,127.165h2.375v8.396h-2.375V127.165z"/>
					<path style="fill:#407BFF;" d="M232.753,132.311c0,2.063-1.427,3.358-3.19,3.358c-0.755,0-1.367-0.229-1.811-0.684v2.903
						h-2.279v-8.827h2.171v0.647c0.432-0.516,1.067-0.756,1.919-0.756C231.326,128.952,232.753,130.247,232.753,132.311z
						 M230.451,132.311c0-0.983-0.6-1.547-1.367-1.547c-0.768,0-1.367,0.563-1.367,1.547s0.6,1.547,1.367,1.547
						C229.851,133.857,230.451,133.294,230.451,132.311z"/>
					<path style="fill:#407BFF;" d="M233.297,134.997l0.684-1.56c0.6,0.372,1.475,0.6,2.267,0.6c0.768,0,1.02-0.168,1.02-0.443
						c0-0.876-3.838,0.12-3.838-2.482c0-1.224,1.128-2.159,3.167-2.159c0.912,0,1.919,0.192,2.566,0.552l-0.684,1.547
						c-0.647-0.359-1.295-0.479-1.871-0.479c-0.768,0-1.043,0.216-1.043,0.456c0,0.9,3.826-0.072,3.826,2.506
						c0,1.2-1.104,2.136-3.214,2.136C235.072,135.669,233.933,135.393,233.297,134.997z"/>
					<path style="fill:#407BFF;" d="M247.213,129.061v6.5h-2.171v-0.695c-0.492,0.539-1.188,0.804-1.931,0.804
						c-1.595,0-2.759-0.912-2.759-2.975v-3.634h2.279v3.262c0,1.008,0.396,1.403,1.079,1.403c0.671,0,1.223-0.443,1.223-1.535v-3.13
						H247.213z"/>
					<path style="fill:#407BFF;" d="M259.775,131.843v3.718h-2.279v-3.346c0-0.936-0.384-1.332-0.983-1.332
						c-0.66,0-1.14,0.444-1.14,1.451v3.227h-2.279v-3.346c0-0.936-0.372-1.332-0.983-1.332c-0.671,0-1.151,0.444-1.151,1.451v3.227
						h-2.279v-6.5h2.171v0.684c0.492-0.528,1.175-0.792,1.943-0.792c0.888,0,1.643,0.324,2.099,1.02
						c0.516-0.647,1.319-1.02,2.254-1.02C258.66,128.952,259.775,129.828,259.775,131.843z"/>
				</g>
				<g>
					<path style="fill:#407BFF;" d="M177.178,273.853h1.583v4.342h2.671v1.255h-4.254V273.853z"/>
					<path style="fill:#407BFF;" d="M181.698,277.275c0-1.304,1.032-2.23,2.447-2.23c1.431,0,2.447,0.927,2.447,2.23
						c0,1.312-1.016,2.247-2.447,2.247C182.729,279.522,181.698,278.587,181.698,277.275z M185.056,277.275
						c0-0.655-0.392-1.023-0.912-1.023c-0.512,0-0.912,0.368-0.912,1.023c0,0.664,0.4,1.039,0.912,1.039
						C184.664,278.315,185.056,277.94,185.056,277.275z"/>
					<path style="fill:#407BFF;" d="M190.2,275.045v1.367c-0.136-0.017-0.232-0.024-0.344-0.024c-0.616,0-1.04,0.313-1.04,1.071
						v1.991h-1.519v-4.334h1.447v0.52C189.057,275.244,189.561,275.045,190.2,275.045z"/>
					<path style="fill:#407BFF;" d="M195.191,277.667h-3.15c0.128,0.439,0.503,0.695,1.064,0.695c0.423,0,0.704-0.119,0.999-0.375
						l0.799,0.831c-0.415,0.464-1.023,0.704-1.847,0.704c-1.543,0-2.542-0.952-2.542-2.247c0-1.304,1.016-2.23,2.383-2.23
						c1.279,0,2.319,0.816,2.319,2.246C195.216,277.403,195.2,277.547,195.191,277.667z M192.018,276.867h1.775
						c-0.08-0.455-0.416-0.743-0.888-0.743C192.433,276.124,192.105,276.412,192.018,276.867z"/>
					<path style="fill:#407BFF;" d="M203.318,276.972v2.478h-1.519v-2.23c0-0.624-0.256-0.888-0.656-0.888
						c-0.44,0-0.76,0.296-0.76,0.968v2.15h-1.519v-2.23c0-0.624-0.248-0.888-0.656-0.888c-0.448,0-0.768,0.296-0.768,0.968v2.15
						h-1.519v-4.334h1.447v0.456c0.328-0.352,0.783-0.527,1.295-0.527c0.592,0,1.096,0.216,1.399,0.68
						c0.344-0.433,0.879-0.68,1.503-0.68C202.574,275.045,203.318,275.628,203.318,276.972z"/>
					<path style="fill:#407BFF;" d="M206.681,273.853h1.583v5.597h-1.583V273.853z"/>
					<path style="fill:#407BFF;" d="M214.175,277.283c0,1.375-0.952,2.239-2.127,2.239c-0.504,0-0.912-0.152-1.208-0.456v1.935
						h-1.519v-5.885h1.447v0.432c0.288-0.344,0.711-0.503,1.279-0.503C213.223,275.045,214.175,275.908,214.175,277.283z
						 M212.64,277.283c0-0.655-0.4-1.031-0.912-1.031c-0.512,0-0.912,0.376-0.912,1.031c0,0.656,0.4,1.031,0.912,1.031
						C212.24,278.315,212.64,277.94,212.64,277.283z"/>
					<path style="fill:#407BFF;" d="M214.538,279.074l0.456-1.039c0.4,0.248,0.983,0.399,1.511,0.399c0.512,0,0.68-0.111,0.68-0.296
						c0-0.583-2.559,0.08-2.559-1.655c0-0.815,0.752-1.439,2.111-1.439c0.607,0,1.279,0.128,1.711,0.367l-0.456,1.032
						c-0.432-0.24-0.864-0.32-1.247-0.32c-0.512,0-0.695,0.144-0.695,0.304c0,0.6,2.55-0.048,2.55,1.671
						c0,0.8-0.735,1.424-2.143,1.424C215.721,279.522,214.961,279.338,214.538,279.074z"/>
					<path style="fill:#407BFF;" d="M223.815,275.116v4.334h-1.447v-0.464c-0.328,0.36-0.792,0.536-1.288,0.536
						c-1.064,0-1.839-0.608-1.839-1.983v-2.423h1.519v2.175c0,0.672,0.264,0.936,0.72,0.936c0.448,0,0.815-0.296,0.815-1.023v-2.087
						H223.815z"/>
					<path style="fill:#407BFF;" d="M232.189,276.972v2.478h-1.519v-2.23c0-0.624-0.256-0.888-0.656-0.888
						c-0.44,0-0.76,0.296-0.76,0.968v2.15h-1.519v-2.23c0-0.624-0.248-0.888-0.656-0.888c-0.448,0-0.768,0.296-0.768,0.968v2.15
						h-1.519v-4.334h1.447v0.456c0.328-0.352,0.783-0.527,1.295-0.527c0.592,0,1.096,0.216,1.399,0.68
						c0.344-0.433,0.879-0.68,1.503-0.68C231.445,275.045,232.189,275.628,232.189,276.972z"/>
					<path style="fill:#407BFF;" d="M235.552,273.853h2.646c1.855,0,3.127,1.079,3.127,2.798c0,1.72-1.271,2.799-3.127,2.799h-2.646
						V273.853z M238.135,278.186c0.952,0,1.591-0.567,1.591-1.535c0-0.967-0.64-1.535-1.591-1.535h-0.999v3.07H238.135z"/>
					<path style="fill:#407BFF;" d="M241.816,277.275c0-1.304,1.031-2.23,2.447-2.23c1.431,0,2.447,0.927,2.447,2.23
						c0,1.312-1.016,2.247-2.447,2.247C242.848,279.522,241.816,278.587,241.816,277.275z M245.175,277.275
						c0-0.655-0.392-1.023-0.912-1.023c-0.512,0-0.912,0.368-0.912,1.023c0,0.664,0.4,1.039,0.912,1.039
						C244.783,278.315,245.175,277.94,245.175,277.275z"/>
					<path style="fill:#407BFF;" d="M247.416,273.518h1.519v5.933h-1.519V273.518z"/>
					<path style="fill:#407BFF;" d="M249.648,277.275c0-1.304,1.032-2.23,2.447-2.23c1.431,0,2.447,0.927,2.447,2.23
						c0,1.312-1.016,2.247-2.447,2.247C250.68,279.522,249.648,278.587,249.648,277.275z M253.006,277.275
						c0-0.655-0.392-1.023-0.912-1.023c-0.512,0-0.912,0.368-0.912,1.023c0,0.664,0.4,1.039,0.912,1.039
						C252.614,278.315,253.006,277.94,253.006,277.275z"/>
					<path style="fill:#407BFF;" d="M258.15,275.045v1.367c-0.136-0.017-0.232-0.024-0.344-0.024c-0.616,0-1.04,0.313-1.04,1.071
						v1.991h-1.519v-4.334h1.447v0.52C257.007,275.244,257.511,275.045,258.15,275.045z"/>
				</g>
				<g>
					<g>
						<line style="fill:#FFFFFF;" x1="216.754" y1="293.576" x2="192.711" y2="293.576"/>
						<rect x="192.711" y="293.075" style="fill:#407BFF;" width="24.042" height="1"/>
					</g>
					<g>
						<line style="fill:#FFFFFF;" x1="208.036" y1="301.731" x2="177.814" y2="301.731"/>
						<rect x="177.814" y="301.231" style="fill:#407BFF;" width="30.222" height="1"/>
					</g>
					<g>
						<line style="fill:#FFFFFF;" x1="288.916" y1="301.731" x2="218.813" y2="301.731"/>
						<rect x="218.814" y="301.231" style="fill:#407BFF;" width="70.103" height="1"/>
					</g>
					<g>
						<line style="fill:#FFFFFF;" x1="322.609" y1="301.731" x2="298.212" y2="301.731"/>
						<rect x="298.212" y="301.231" style="fill:#407BFF;" width="24.396" height="1"/>
					</g>
					<g>
						<line style="fill:#FFFFFF;" x1="254.208" y1="310.554" x2="177.4" y2="310.554"/>
						<rect x="177.4" y="310.054" style="fill:#407BFF;" width="76.808" height="1"/>
					</g>
					<g>
						<line style="fill:#FFFFFF;" x1="291.302" y1="310.554" x2="266.203" y2="310.554"/>
						<rect x="266.203" y="310.054" style="fill:#407BFF;" width="25.099" height="1"/>
					</g>
					<g>
						<line style="fill:#FFFFFF;" x1="197.398" y1="320.371" x2="177.457" y2="320.371"/>
						<rect x="177.457" y="319.871" style="fill:#407BFF;" width="19.941" height="1"/>
					</g>
					<g>
						<line style="fill:#FFFFFF;" x1="320.771" y1="310.554" x2="300.04" y2="310.554"/>
						<rect x="300.04" y="310.054" style="fill:#407BFF;" width="20.732" height="1"/>
					</g>
				</g>
				<g>
					<g>
						<g>
							<line style="fill:#FFFFFF;" x1="203.861" y1="149.531" x2="191.287" y2="149.531"/>
							<rect x="191.288" y="149.031" style="fill:#407BFF;" width="12.573" height="1"/>
						</g>
						<g>
							<line style="fill:#FFFFFF;" x1="237.288" y1="149.531" x2="210.039" y2="149.531"/>
							<rect x="210.039" y="149.031" style="fill:#407BFF;" width="27.249" height="1"/>
						</g>
						<g>
							<line style="fill:#FFFFFF;" x1="284.177" y1="149.531" x2="244.589" y2="149.531"/>
							<rect x="244.589" y="149.031" style="fill:#407BFF;" width="39.588" height="1"/>
						</g>
						<g>
							<line style="fill:#FFFFFF;" x1="322.609" y1="149.531" x2="291.302" y2="149.531"/>
							<rect x="291.302" y="149.031" style="fill:#407BFF;" width="31.306" height="1"/>
						</g>
						<g>
							<line style="fill:#FFFFFF;" x1="220.299" y1="160.403" x2="178.247" y2="160.403"/>
							<rect x="178.247" y="159.903" style="fill:#407BFF;" width="42.053" height="1"/>
						</g>
						<g>
							<line style="fill:#FFFFFF;" x1="262.078" y1="160.403" x2="229.902" y2="160.403"/>
							<rect x="229.902" y="159.903" style="fill:#407BFF;" width="32.176" height="1"/>
						</g>
						<g>
							<line style="fill:#FFFFFF;" x1="306.955" y1="160.403" x2="268.732" y2="160.403"/>
							<rect x="268.732" y="159.903" style="fill:#407BFF;" width="38.224" height="1"/>
						</g>
						<g>
							<line style="fill:#FFFFFF;" x1="322.609" y1="160.403" x2="313.168" y2="160.403"/>
							<rect x="313.168" y="159.903" style="fill:#407BFF;" width="9.441" height="1"/>
						</g>
						<g>
							<g>
								<line style="fill:#FFFFFF;" x1="200.02" y1="171.275" x2="181.646" y2="171.275"/>
								<rect x="181.646" y="170.775" style="fill:#407BFF;" width="18.373" height="1"/>
							</g>
							<g>
								<line style="fill:#FFFFFF;" x1="241.405" y1="171.275" x2="206.118" y2="171.275"/>
								<rect x="206.118" y="170.775" style="fill:#407BFF;" width="35.288" height="1"/>
							</g>
							<g>
								<line style="fill:#FFFFFF;" x1="284.177" y1="171.275" x2="247.878" y2="171.275"/>
								<rect x="247.877" y="170.775" style="fill:#407BFF;" width="36.3" height="1"/>
							</g>
						</g>
						<g>
							<line style="fill:#FFFFFF;" x1="322.609" y1="171.275" x2="293.299" y2="171.275"/>
							<rect x="293.299" y="170.775" style="fill:#407BFF;" width="29.309" height="1"/>
						</g>
						<g>
							<line style="fill:#FFFFFF;" x1="220.299" y1="182.147" x2="178.247" y2="182.147"/>
							<rect x="178.247" y="181.647" style="fill:#407BFF;" width="42.053" height="1"/>
						</g>
						<g>
							<line style="fill:#FFFFFF;" x1="262.078" y1="182.147" x2="228.217" y2="182.147"/>
							<rect x="228.217" y="181.647" style="fill:#407BFF;" width="33.862" height="1"/>
						</g>
						<g>
							<line style="fill:#FFFFFF;" x1="306.955" y1="182.147" x2="268.732" y2="182.147"/>
							<rect x="268.732" y="181.647" style="fill:#407BFF;" width="38.224" height="1"/>
						</g>
						<path style="fill:#FFFFFF;stroke:#407BFF;stroke-miterlimit:10;" d="M306.955,182.147"/>
						<g>
							<line style="fill:#FFFFFF;" x1="322.609" y1="182.147" x2="313.168" y2="182.147"/>
							<rect x="313.168" y="181.647" style="fill:#407BFF;" width="9.441" height="1"/>
						</g>
					</g>
					<g>
						<line style="fill:#FFFFFF;" x1="200.415" y1="236.506" x2="178.247" y2="236.506"/>
						<rect x="178.247" y="236.006" style="fill:#407BFF;" width="22.168" height="1"/>
					</g>
					<g>
						<line style="fill:#FFFFFF;" x1="244.589" y1="236.506" x2="208.435" y2="236.506"/>
						<rect x="208.435" y="236.006" style="fill:#407BFF;" width="36.154" height="1"/>
					</g>
					<g>
						<line style="fill:#FFFFFF;" x1="286.138" y1="236.506" x2="251.742" y2="236.506"/>
						<rect x="251.742" y="236.006" style="fill:#407BFF;" width="34.396" height="1"/>
					</g>
					<g>
						<line style="fill:#FFFFFF;" x1="322.609" y1="236.506" x2="293.299" y2="236.506"/>
						<rect x="293.299" y="236.006" style="fill:#407BFF;" width="29.309" height="1"/>
					</g>
					<g>
						<line style="fill:#FFFFFF;" x1="221.623" y1="247.378" x2="178.247" y2="247.378"/>
						<rect x="178.247" y="246.878" style="fill:#407BFF;" width="43.376" height="1"/>
					</g>
					<g>
						<line style="fill:#FFFFFF;" x1="264.383" y1="247.378" x2="229.902" y2="247.378"/>
						<rect x="229.902" y="246.878" style="fill:#407BFF;" width="34.481" height="1"/>
					</g>
					<g>
						<line style="fill:#FFFFFF;" x1="322.609" y1="247.378" x2="271.702" y2="247.378"/>
						<rect x="271.702" y="246.878" style="fill:#407BFF;" width="50.906" height="1"/>
					</g>
					<g>
						<line style="fill:#FFFFFF;" x1="185.266" y1="258.25" x2="178.247" y2="258.25"/>
						<rect x="178.247" y="257.75" style="fill:#407BFF;" width="7.02" height="1"/>
					</g>
					<g>
						<line style="fill:#FFFFFF;" x1="237.288" y1="258.25" x2="192.057" y2="258.25"/>
						<rect x="192.057" y="257.75" style="fill:#407BFF;" width="45.23" height="1"/>
					</g>
					<g>
						<line style="fill:#FFFFFF;" x1="256.948" y1="258.25" x2="243.195" y2="258.25"/>
						<rect x="243.195" y="257.75" style="fill:#407BFF;" width="13.753" height="1"/>
					</g>
					<g>
						<g>
							<line style="fill:#FFFFFF;" x1="203.861" y1="193.019" x2="191.287" y2="193.019"/>
							<rect x="191.288" y="192.519" style="fill:#407BFF;" width="12.573" height="1"/>
						</g>
						<g>
							<line style="fill:#FFFFFF;" x1="237.288" y1="193.019" x2="210.039" y2="193.019"/>
							<rect x="210.039" y="192.519" style="fill:#407BFF;" width="27.249" height="1"/>
						</g>
						<g>
							<line style="fill:#FFFFFF;" x1="284.177" y1="193.019" x2="244.589" y2="193.019"/>
							<rect x="244.589" y="192.519" style="fill:#407BFF;" width="39.588" height="1"/>
						</g>
						<g>
							<line style="fill:#FFFFFF;" x1="322.609" y1="193.019" x2="291.302" y2="193.019"/>
							<rect x="291.302" y="192.519" style="fill:#407BFF;" width="31.306" height="1"/>
						</g>
						<g>
							<line style="fill:#FFFFFF;" x1="220.299" y1="203.891" x2="178.247" y2="203.891"/>
							<rect x="178.247" y="203.391" style="fill:#407BFF;" width="42.053" height="1"/>
						</g>
						<g>
							<line style="fill:#FFFFFF;" x1="262.078" y1="203.891" x2="229.902" y2="203.891"/>
							<rect x="229.902" y="203.391" style="fill:#407BFF;" width="32.176" height="1"/>
						</g>
						<g>
							<line style="fill:#FFFFFF;" x1="306.955" y1="203.891" x2="268.732" y2="203.891"/>
							<rect x="268.732" y="203.391" style="fill:#407BFF;" width="38.224" height="1"/>
						</g>
						<g>
							<line style="fill:#FFFFFF;" x1="322.609" y1="203.891" x2="313.168" y2="203.891"/>
							<rect x="313.168" y="203.391" style="fill:#407BFF;" width="9.441" height="1"/>
						</g>
						<g>
							<line style="fill:#FFFFFF;" x1="195.22" y1="214.762" x2="178.247" y2="214.762"/>
							<rect x="178.247" y="214.263" style="fill:#407BFF;" width="16.973" height="1"/>
						</g>
						<g>
							<line style="fill:#FFFFFF;" x1="241.405" y1="214.762" x2="206.118" y2="214.762"/>
							<rect x="206.118" y="214.263" style="fill:#407BFF;" width="35.288" height="1"/>
						</g>
						<g>
							<line style="fill:#FFFFFF;" x1="284.177" y1="214.762" x2="247.878" y2="214.762"/>
							<rect x="247.877" y="214.263" style="fill:#407BFF;" width="36.3" height="1"/>
						</g>
						<g>
							<line style="fill:#FFFFFF;" x1="322.609" y1="214.762" x2="293.299" y2="214.762"/>
							<rect x="293.299" y="214.263" style="fill:#407BFF;" width="29.309" height="1"/>
						</g>
						<g>
							<line style="fill:#FFFFFF;" x1="220.299" y1="225.634" x2="178.247" y2="225.634"/>
							<rect x="178.247" y="225.134" style="fill:#407BFF;" width="42.053" height="1"/>
						</g>
						<g>
							<line style="fill:#FFFFFF;" x1="262.078" y1="225.634" x2="228.217" y2="225.634"/>
							<rect x="228.217" y="225.134" style="fill:#407BFF;" width="33.862" height="1"/>
						</g>
						<g>
							<line style="fill:#FFFFFF;" x1="306.955" y1="225.634" x2="268.732" y2="225.634"/>
							<rect x="268.732" y="225.134" style="fill:#407BFF;" width="38.224" height="1"/>
						</g>
						<path style="fill:#FFFFFF;stroke:#407BFF;stroke-miterlimit:10;" d="M306.955,225.634"/>
						<g>
							<line style="fill:#FFFFFF;" x1="322.609" y1="225.634" x2="313.168" y2="225.634"/>
							<rect x="313.168" y="225.134" style="fill:#407BFF;" width="9.441" height="1"/>
						</g>
					</g>
				</g>
			</g>
			<g>
				<line style="fill:#FFFFFF;" x1="319.809" y1="293.576" x2="301.593" y2="293.576"/>
				<rect x="301.593" y="293.075" style="fill:#407BFF;" width="18.215" height="1"/>
			</g>
		</g>
	</g>
</g>
<g id="Annotations">
	<g>
		<g>
			<g>
				<rect x="226.236" y="199.371" style="fill:#263238;" width="100.587" height="8.749"/>
			</g>
			<g>
				<line style="fill:#FFFFFF;" x1="262.106" y1="203.895" x2="229.93" y2="203.895"/>
				<rect x="229.93" y="203.395" style="fill:#407BFF;" width="32.176" height="1"/>
			</g>
			<g>
				<line style="fill:#FFFFFF;" x1="306.983" y1="203.895" x2="268.76" y2="203.895"/>
				<rect x="268.76" y="203.395" style="fill:#407BFF;" width="38.224" height="1"/>
			</g>
			<g>
				<line style="fill:#FFFFFF;" x1="322.637" y1="203.895" x2="313.195" y2="203.895"/>
				<rect x="313.195" y="203.395" style="fill:#407BFF;" width="9.441" height="1"/>
			</g>
			<g>
				<g>
					<g>
						<g>
							<g>
								<path style="fill:#FFFFFF;" d="M320.618,201.355c-1.507,0-2.733-1.226-2.733-2.733v-6.732h-4.793
									c-1.935,0-3.51-1.575-3.51-3.51v-13.69c0.009-1.927,1.576-3.487,3.497-3.487c0.005,0,0.011,0,0.016,0h49.729
									c1.927,0,3.495,1.568,3.495,3.495v13.682c0,1.936-1.575,3.51-3.51,3.51H330.31l-8.053,8.911
									C321.785,201.159,321.204,201.355,320.618,201.355z"/>
								<path style="fill:#407BFF;" d="M320.618,201.855c-1.783,0-3.233-1.45-3.233-3.233v-6.232h-4.293
									c-2.211,0-4.01-1.799-4.01-4.01v-13.69c0.011-2.2,1.803-3.987,3.997-3.987h49.745c2.203,0,3.995,1.792,3.995,3.995v13.682
									c0,2.211-1.799,4.01-4.01,4.01h-32.276l-7.904,8.746C322.003,201.622,321.314,201.855,320.618,201.855z M313.095,171.702
									c-1.661,0-3.005,1.341-3.013,2.99v13.688c0,1.66,1.351,3.01,3.01,3.01h5.293v7.232c0,1.231,1.001,2.233,2.233,2.233
									c0.478,0,0.953-0.161,1.336-0.452l8.133-9.013h32.721c1.66,0,3.01-1.351,3.01-3.01v-13.682c0-1.651-1.344-2.995-2.995-2.995
									H313.095z"/>
							</g>
						</g>
					</g>
				</g>
				<g>
					<path d="M317.451,183.179h-2.005l-0.373,0.921h-1.368l2.093-4.742h1.321l2.1,4.742h-1.396L317.451,183.179z M317.058,182.19
						l-0.61-1.518l-0.61,1.518H317.058z"/>
					<path d="M324.117,179.358v4.742h-1.104l-2.093-2.527v2.527h-1.314v-4.742h1.104l2.093,2.527v-2.527H324.117z"/>
					<path d="M329.583,179.358v4.742h-1.104l-2.093-2.527v2.527h-1.314v-4.742h1.105l2.093,2.527v-2.527H329.583z"/>
					<path d="M330.294,181.729c0-1.423,1.118-2.466,2.635-2.466c1.518,0,2.636,1.043,2.636,2.466c0,1.423-1.118,2.466-2.636,2.466
						C331.412,184.195,330.294,183.152,330.294,181.729z M334.21,181.729c0-0.82-0.562-1.355-1.28-1.355
						c-0.718,0-1.28,0.535-1.28,1.355c0,0.82,0.562,1.355,1.28,1.355C333.647,183.084,334.21,182.549,334.21,181.729z"/>
					<path d="M337.217,180.422h-1.457v-1.064h4.248v1.064h-1.45v3.679h-1.341V180.422z"/>
					<path d="M343.455,183.179h-2.005l-0.373,0.921h-1.368l2.093-4.742h1.321l2.1,4.742h-1.396L343.455,183.179z M343.062,182.19
						l-0.61-1.518l-0.61,1.518H343.062z"/>
					<path d="M346.38,180.422h-1.457v-1.064h4.248v1.064h-1.45v3.679h-1.341V180.422z"/>
					<path d="M349.678,179.358h1.341v4.742h-1.341V179.358z"/>
					<path d="M351.733,181.729c0-1.423,1.118-2.466,2.635-2.466c1.518,0,2.635,1.043,2.635,2.466c0,1.423-1.118,2.466-2.635,2.466
						C352.851,184.195,351.733,183.152,351.733,181.729z M355.649,181.729c0-0.82-0.563-1.355-1.281-1.355
						c-0.718,0-1.28,0.535-1.28,1.355c0,0.82,0.562,1.355,1.28,1.355C355.086,183.084,355.649,182.549,355.649,181.729z"/>
					<path d="M362.227,179.358v4.742h-1.104l-2.093-2.527v2.527h-1.315v-4.742h1.105l2.093,2.527v-2.527H362.227z"/>
				</g>
			</g>
		</g>
		<g>
			<g>
				<g>
					<g>
						<g>
							<g>
								<g>
									<path style="fill:#FFFFFF;" d="M277.858,286.496c-1.507,0-2.733-1.226-2.733-2.733v-6.732h-4.793
										c-1.935,0-3.51-1.575-3.51-3.51v-13.69c0.009-1.927,1.576-3.487,3.497-3.487c0.005,0,0.011,0,0.016,0h49.729
										c1.927,0,3.495,1.568,3.495,3.495v13.682c0,1.936-1.575,3.51-3.51,3.51H287.55l-8.053,8.911
										C279.026,286.301,278.445,286.496,277.858,286.496z"/>
									<path style="fill:#407BFF;" d="M277.858,286.996c-1.783,0-3.233-1.45-3.233-3.232v-6.232h-4.293
										c-2.211,0-4.01-1.799-4.01-4.01v-13.69c0.011-2.199,1.803-3.987,3.996-3.987h49.745c2.203,0,3.995,1.792,3.995,3.995
										v13.682c0,2.211-1.799,4.01-4.01,4.01h-32.276l-7.904,8.746C279.243,286.764,278.554,286.996,277.858,286.996z
										 M270.335,256.845c-1.661,0-3.005,1.341-3.013,2.989v13.688c0,1.659,1.351,3.01,3.01,3.01h5.293v7.232
										c0,1.231,1.001,2.232,2.233,2.232c0.478,0,0.953-0.16,1.336-0.452l8.134-9.013h32.721c1.66,0,3.01-1.351,3.01-3.01V259.84
										c0-1.651-1.344-2.995-2.995-2.995H270.335z"/>
								</g>
							</g>
						</g>
					</g>
					<g>
						<path d="M274.291,268.321h-2.005l-0.373,0.922h-1.368l2.093-4.742h1.321l2.1,4.742h-1.396L274.291,268.321z M273.898,267.331
							l-0.61-1.517l-0.61,1.517H273.898z"/>
						<path d="M280.957,264.5v4.742h-1.104l-2.093-2.527v2.527h-1.315V264.5h1.104l2.093,2.526V264.5H280.957z"/>
						<path d="M286.423,264.5v4.742h-1.105l-2.093-2.527v2.527h-1.314V264.5h1.104l2.093,2.526V264.5H286.423z"/>
						<path d="M287.134,266.871c0-1.423,1.118-2.467,2.635-2.467c1.518,0,2.636,1.044,2.636,2.467c0,1.423-1.118,2.466-2.636,2.466
							C288.252,269.337,287.134,268.294,287.134,266.871z M291.049,266.871c0-0.82-0.562-1.355-1.28-1.355
							c-0.718,0-1.28,0.535-1.28,1.355c0,0.819,0.562,1.354,1.28,1.354C290.487,268.226,291.049,267.691,291.049,266.871z"/>
						<path d="M294.057,265.564H292.6V264.5h4.248v1.064h-1.45v3.679h-1.341V265.564z"/>
						<path d="M300.295,268.321h-2.005l-0.373,0.922h-1.368l2.093-4.742h1.321l2.1,4.742h-1.396L300.295,268.321z M299.902,267.331
							l-0.61-1.517l-0.61,1.517H299.902z"/>
						<path d="M303.22,265.564h-1.457V264.5h4.248v1.064h-1.45v3.679h-1.341V265.564z"/>
						<path d="M306.518,264.5h1.341v4.742h-1.341V264.5z"/>
						<path d="M308.573,266.871c0-1.423,1.118-2.467,2.635-2.467s2.635,1.044,2.635,2.467c0,1.423-1.118,2.466-2.635,2.466
							S308.573,268.294,308.573,266.871z M312.489,266.871c0-0.82-0.563-1.355-1.281-1.355s-1.28,0.535-1.28,1.355
							c0,0.819,0.562,1.354,1.28,1.354S312.489,267.691,312.489,266.871z"/>
						<path d="M319.066,264.5v4.742h-1.104l-2.093-2.527v2.527h-1.314V264.5h1.105l2.093,2.526V264.5H319.066z"/>
					</g>
				</g>
				<rect x="220.137" y="289.205" style="fill:#263238;" width="77.047" height="8.749"/>
			</g>
			<g>
				<line style="fill:#FFFFFF;" x1="247.915" y1="293.58" x2="222.962" y2="293.58"/>
				<rect x="222.962" y="293.08" style="fill:#407BFF;" width="24.953" height="1"/>
			</g>
			<g>
				<line style="fill:#FFFFFF;" x1="294.092" y1="293.58" x2="256.166" y2="293.58"/>
				<rect x="256.166" y="293.08" style="fill:#407BFF;" width="37.926" height="1"/>
			</g>
		</g>
		<g>
			<g>
				<rect x="177.485" y="166.763" style="fill:#263238;" width="110.187" height="8.749"/>
				<g>
					<g>
						<g>
							<g>
								<g>
									<path style="fill:#FFFFFF;" d="M286.937,171.046c-1.507,0-2.733-1.226-2.733-2.733v-6.732h-4.793
										c-1.936,0-3.51-1.575-3.51-3.51v-13.69c0.009-1.927,1.576-3.487,3.497-3.487c0.005,0,0.011,0,0.016,0h49.729
										c1.927,0,3.495,1.568,3.495,3.495v13.682c0,1.936-1.575,3.51-3.51,3.51h-32.499l-8.053,8.911
										C288.105,170.85,287.524,171.046,286.937,171.046z"/>
									<path style="fill:#407BFF;" d="M286.938,171.546c-1.783,0-3.233-1.45-3.233-3.233v-6.232h-4.293
										c-2.211,0-4.01-1.799-4.01-4.01v-13.69c0.011-2.2,1.803-3.987,3.996-3.987h49.745c2.203,0,3.995,1.792,3.995,3.995v13.682
										c0,2.211-1.799,4.01-4.01,4.01h-32.276l-7.904,8.746C288.322,171.314,287.633,171.546,286.938,171.546z M279.414,141.394
										c-1.661,0-3.005,1.341-3.013,2.99v13.688c0,1.66,1.351,3.01,3.01,3.01h5.293v7.232c0,1.231,1.001,2.233,2.233,2.233
										c0.478,0,0.953-0.161,1.336-0.452l8.133-9.013h32.721c1.66,0,3.01-1.35,3.01-3.01v-13.682c0-1.651-1.344-2.995-2.995-2.995
										H279.414z"/>
								</g>
							</g>
						</g>
					</g>
					<g>
						<path d="M283.57,152.871h-2.005l-0.373,0.921h-1.368l2.093-4.742h1.321l2.1,4.742h-1.396L283.57,152.871z M283.177,151.882
							l-0.61-1.518l-0.61,1.518H283.177z"/>
						<path d="M290.236,149.05v4.742h-1.104l-2.093-2.527v2.527h-1.315v-4.742h1.104l2.093,2.527v-2.527H290.236z"/>
						<path d="M295.702,149.05v4.742h-1.105l-2.093-2.527v2.527h-1.314v-4.742h1.104l2.093,2.527v-2.527H295.702z"/>
						<path d="M296.413,151.421c0-1.423,1.118-2.466,2.635-2.466s2.636,1.043,2.636,2.466c0,1.423-1.118,2.466-2.636,2.466
							S296.413,152.844,296.413,151.421z M300.329,151.421c0-0.82-0.562-1.355-1.28-1.355c-0.718,0-1.28,0.535-1.28,1.355
							c0,0.82,0.562,1.355,1.28,1.355C299.767,152.776,300.329,152.241,300.329,151.421z"/>
						<path d="M303.336,150.114h-1.457v-1.064h4.248v1.064h-1.45v3.679h-1.341V150.114z"/>
						<path d="M309.574,152.871h-2.005l-0.373,0.921h-1.368l2.093-4.742h1.321l2.1,4.742h-1.396L309.574,152.871z M309.181,151.882
							l-0.61-1.518l-0.61,1.518H309.181z"/>
						<path d="M312.5,150.114h-1.457v-1.064h4.248v1.064h-1.45v3.679H312.5V150.114z"/>
						<path d="M315.797,149.05h1.341v4.742h-1.341V149.05z"/>
						<path d="M317.852,151.421c0-1.423,1.118-2.466,2.635-2.466s2.635,1.043,2.635,2.466c0,1.423-1.118,2.466-2.635,2.466
							S317.852,152.844,317.852,151.421z M321.768,151.421c0-0.82-0.563-1.355-1.281-1.355s-1.28,0.535-1.28,1.355
							c0,0.82,0.562,1.355,1.28,1.355S321.768,152.241,321.768,151.421z"/>
						<path d="M328.346,149.05v4.742h-1.104l-2.093-2.527v2.527h-1.314v-4.742h1.105l2.093,2.527v-2.527H328.346z"/>
					</g>
				</g>
			</g>
			<g>
				<g>
					<line style="fill:#FFFFFF;" x1="200.048" y1="171.279" x2="181.674" y2="171.279"/>
					<rect x="181.674" y="170.779" style="fill:#407BFF;" width="18.373" height="1"/>
				</g>
				<g>
					<line style="fill:#FFFFFF;" x1="241.433" y1="171.279" x2="206.146" y2="171.279"/>
					<rect x="206.146" y="170.779" style="fill:#407BFF;" width="35.287" height="1"/>
				</g>
				<g>
					<line style="fill:#FFFFFF;" x1="284.205" y1="171.279" x2="247.906" y2="171.279"/>
					<rect x="247.905" y="170.779" style="fill:#407BFF;" width="36.3" height="1"/>
				</g>
			</g>
		</g>
	</g>
</g>
</svg>
